<svg xmlns="http://www.w3.org/2000/svg" viewBox="0 0 23.2825 23.331"><defs><style>.cls-1{fill:#231815;}</style></defs><g id="レイヤー_2" data-name="レイヤー 2"><g id="_01" data-name="01"><g id="レイヤー_2-2" data-name="レイヤー 2"><g id="フッター"><path class="cls-1" d="M23.282,20.7905a2.49,2.49,0,0,1-2.49,2.49h-4.42v-9.2h3.12l.51-3.53h-3.63v-2.24a2,2,0,0,1,.31-1.24,1.77,1.77,0,0,1,1.4-.47h1.92v-3.12a20.17,20.17,0,0,0-2.7-.15,4.45,4.45,0,0,0-3.3,1.22,4.61,4.61,0,0,0-1.27,3.45v2.6H9.562v3.53h3.17v9.2H2.492a2.37,2.37,0,0,1-1.76-.73,2.37,2.37,0,0,1-.73-1.81v-18.3a2.37,2.37,0,0,1,.73-1.76,2.37,2.37,0,0,1,1.76-.73h18.3a2.37,2.37,0,0,1,1.76.73,2.37,2.37,0,0,1,.73,1.76Z"/></g></g></g></g></svg>