<svg xmlns="http://www.w3.org/2000/svg" viewBox="0 0 24.05 23.99"><defs><style>.cls-1{fill:#231815;}</style></defs><g id="レイヤー_2" data-name="レイヤー 2"><g id="_01" data-name="01"><g id="レイヤー_2-2" data-name="レイヤー 2"><g id="フッター"><path class="cls-1" d="M24,7c0,1,.05,2.66.05,5s0,4-.08,5a9.9209,9.9209,0,0,1-.46,2.65,6.24,6.24,0,0,1-3.8,3.8,9.9209,9.9209,0,0,1-2.65.46c-1,0-2.69.08-5,.08s-4,0-5-.08a8.4891,8.4891,0,0,1-2.65-.51A5.67,5.67,0,0,1,2,22,6.24,6.24,0,0,1,.54,19.66,9.9206,9.9206,0,0,1,.08,17C0,16,0,14.32,0,12S0,8,.08,7A9.9206,9.9206,0,0,1,.54,4.34,6.24,6.24,0,0,1,4.34.54,9.9206,9.9206,0,0,1,7,.08C8,0,9.68,0,12,0s4,0,5,.08a9.9209,9.9209,0,0,1,2.65.46,6.24,6.24,0,0,1,3.8,3.8A10.7757,10.7757,0,0,1,24,7ZM21.38,19.07a11.5012,11.5012,0,0,0,.42-2.89c0-.79.06-1.89.06-3.32V11.14c0-1.46,0-2.57-.06-3.32a10.89,10.89,0,0,0-.42-2.89,3.84,3.84,0,0,0-2.31-2.3,10.4,10.4,0,0,0-2.89-.43c-.79,0-1.89-.06-3.32-.06H11.14c-1.43,0-2.53,0-3.32.06a11,11,0,0,0-2.89.43,3.8,3.8,0,0,0-2.3,2.3A10.4,10.4,0,0,0,2.2,7.82c0,.79-.06,1.89-.06,3.32v1.72c0,1.43,0,2.53.06,3.32a11,11,0,0,0,.43,2.89,4.05,4.05,0,0,0,2.3,2.31,11.5012,11.5012,0,0,0,2.89.42c.79,0,1.89.06,3.32.06h1.72c1.46,0,2.57,0,3.32-.06a10.89,10.89,0,0,0,2.89-.42A4.1,4.1,0,0,0,21.38,19.07ZM12,5.84A6.16,6.16,0,1,1,5.84,12,6.17,6.17,0,0,1,12,5.84ZM12,16a4,4,0,0,0,4-4,3.86,3.86,0,0,0-1.18-2.84,4,4,0,0,0-5.6568-.0232L9.14,9.16a4,4,0,0,0-.0232,5.6568L9.14,14.84A3.86,3.86,0,0,0,12,16ZM19.88,5.57a1.45,1.45,0,1,0-2.47,1,1.39,1.39,0,0,0,1,.43,1.3,1.3,0,0,0,1-.43A1.71,1.71,0,0,0,19.88,5.57Z"/></g></g></g></g></svg>