<svg xmlns="http://www.w3.org/2000/svg" xmlns:xlink="http://www.w3.org/1999/xlink" viewBox="0 0 172.6474 159.9923"><defs><style>.cls-1{fill:none;}.cls-2{fill:#f5a200;}.cls-3{fill:#231815;}.cls-4{fill:#fff;}.cls-5{fill:#ffe33f;}.cls-6{fill:#003b7f;}.cls-7{fill:#e60012;}.cls-8{fill:#feebbe;}.cls-9{fill:#d8332f;}.cls-10{fill:#f9be58;}.cls-11{fill:#fff1d2;}.cls-12{fill:#00913a;}.cls-13{clip-path:url(#clip-path);}.cls-14{clip-path:url(#clip-path-2);}.cls-15{fill:#48322a;}</style><clipPath id="clip-path"><path class="cls-1" d="M61.4519,23.481C58.0164,25.65,54.9633,31.786,56.28,38.0076a20.0827,20.0827,0,0,0,4.8407,9.0942c3.571,5.2835,6.3971,3.7935,10.4583.9653,6.8842-4.7935,11.8427-11.43,13.0727-15.089,1.6573-4.9187,3.2674-9.1853,1.053-11.9665-3.5984-4.52-18.5065-1.1584-24.2529,2.4694"/></clipPath><clipPath id="clip-path-2"><path class="cls-1" d="M162.1728,30.4964c3.101,2.624,5.2764,9.1244,3.1084,15.1035a20.0743,20.0743,0,0,1-6.0545,8.3352c-4.27,4.7376-6.8606,2.87-10.492-.4937C142.5829,47.74,138.5933,40.48,137.88,36.6865c-.958-5.1017-1.96-9.5505.6176-11.9977,4.1884-3.978,18.489,1.4184,23.6752,5.8076"/></clipPath></defs><g id="レイヤー_2" data-name="レイヤー 2"><g id="_01" data-name="01"><path class="cls-2" d="M97.5712,114.3776c-5.1053,3.8983-7.9689,4.7016-18.2518,8.6367-7.3542,2.8149-15.6953-10.9785-10.1486-12.392,11.2629-2.8709,14.8965-4.7088,14.8965-4.7088"/><path class="cls-3" d="M97.0077,113.64a32.3477,32.3477,0,0,1-7,4.1948c-2.5873,1.1574-5.8716,2.3426-11.02,4.3125a4.7578,4.7578,0,0,1-1.7149.3165,6.5527,6.5527,0,0,1-3.2153-.9455,12.7689,12.7689,0,0,1-4.1127-3.9723,8.7216,8.7216,0,0,1-1.65-4.38,1.9716,1.9716,0,0,1,.2721-1.1073,1.322,1.322,0,0,1,.8331-.5363c11.3088-2.8832,15.001-4.7375,15.0864-4.78a.9285.9285,0,1,0-.838-1.6572l-.0279.0134c-.3634.1758-4.163,1.9438-14.6791,4.6242a3.1888,3.1888,0,0,0-1.9175,1.3024,3.8014,3.8014,0,0,0-.5863,2.1409,8.68,8.68,0,0,0,.9274,3.5851,15.4666,15.4666,0,0,0,3.9615,5.1123,9.4933,9.4933,0,0,0,5.9462,2.4572,6.6152,6.6152,0,0,0,2.3787-.4391c5.1341-1.9652,8.423-3.149,11.1144-4.3516a34.2512,34.2512,0,0,0,7.3689-4.4142.9285.9285,0,1,0-1.127-1.476Z"/><path class="cls-3" d="M142.9809,127.6868a27.4213,27.4213,0,0,0,7.5022-1.9059,20.7613,20.7613,0,0,0,5.9631-3.6479,15.1787,15.1787,0,0,0,4.3879-6.6651l-2.2952-.7478a12.757,12.757,0,0,1-3.7035,5.6147,20.251,20.251,0,0,1-7.8548,4.11,26.4326,26.4326,0,0,1-3.026.6817c-.3753.061-.6729.1-.8732.1233l-.225.0242-.0643.0058.1888,2.4069Z"/><path class="cls-4" d="M156.1007,105.2931a6.492,6.492,0,0,1,3.3471,4.0043,6.2659,6.2659,0,0,1,1.0641-3.9454c1.5859-2.0515,4.812-3.4944,5.8407-2.927.989.5468.9594,3.717-.2741,5.857a7.6263,7.6263,0,0,1-3.3442,2.8047,6.8911,6.8911,0,0,1,4.4348-.3522c2.5881.9284,4.8872,3.7758,4.5378,4.6528-.3625.9063-3.73,1.6447-6.3461,1.1391a17.9134,17.9134,0,0,1-3.2926-1.9292,9.8057,9.8057,0,0,1,1.608,4.5129c.0854,2.3728-1.2852,4.862-2.2653,4.977-.9536.1165-2.4805-2.4744-2.8754-4.868a11.2788,11.2788,0,0,1,.3257-4.7471,9.3725,9.3725,0,0,1-3.316,3.3588c-2.367,1.4371-6.4879.64-6.9728-.36-.5039-1.0361,1.9736-3.8172,4.4923-4.9461a15.6355,15.6355,0,0,1,4.2947-.3463,26.2827,26.2827,0,0,1-4.3875-1.5962c-2.22-1.4444-2.5866-4.4022-1.9839-5.1407C151.6174,104.674,153.7191,103.9519,156.1007,105.2931Z"/><path class="cls-3" d="M156.1007,105.2931l-.445.7884a6.4277,6.4277,0,0,1,2.4293,2.2912,4.6635,4.6635,0,0,1,.394.83l.0683.22.0113.0456.1-.0225-.1011.019.0006.0035.1-.0225-.1011.019a.9053.9053,0,0,0,1.7912-.25l-.0006-.008c-.0023-.0323-.0086-.1358-.0086-.29a5.157,5.157,0,0,1,.8873-3.01,7.9379,7.9379,0,0,1,2.3467-1.9451,5.2509,5.2509,0,0,1,2.1858-.7556l.1447.0118.0222.0057.0267-.0758-.0385.07.0118.0059.0267-.0758-.0385.07.0633-.1153-.0922.0956.0285.0194.0637-.115-.0922.0956.0557.0872a3.0016,3.0016,0,0,1,.2058,1.242,7.0065,7.0065,0,0,1-.8534,3.3029,5.7206,5.7206,0,0,1-1.7961,1.8078,7.9579,7.9579,0,0,1-.8022.468l-.2343.1125-.0575.0253-.0107.0046.341.8386.3677.8272.0043-.0018a7.1464,7.1464,0,0,1,2.51-.522,3.7048,3.7048,0,0,1,1.2475.1966,7.9189,7.9189,0,0,1,2.845,1.9309,6.5359,6.5359,0,0,1,.8828,1.1155,2.5175,2.5175,0,0,1,.2047.4077l.0361.1178.0045.026.02-.0024h-.0195l0,.0024.02-.0024h.3343l-.3251-.129-.0287.129h.3538l-.3251-.129.2788.1089-.2432-.1766-.0347.0655.2779.1111-.2432-.1766-.0024.0012a3.3525,3.3525,0,0,1-1.2736.5192,10.4623,10.4623,0,0,1-2.4263.28,8.898,8.898,0,0,1-1.6664-.148l-.1716.8887.2884-.8581a10.56,10.56,0,0,1-1.8918-1.0184c-.3252-.2084-.6171-.4064-.826-.5513s-.3305-.2335-.3305-.2335a.9054.9054,0,0,0-1.2766,1.2481l.01.0139a8.93,8.93,0,0,1,1.4377,4.0152l.0031.1809a6.4753,6.4753,0,0,1-.6809,2.7972,3.7892,3.7892,0,0,1-.5845.8771l-.2074.18-.0347.0189.0561.1457-.0179-.1537-.0382.008.0561.1457-.0179-.1537-.0041.0006.0465.381,0-.3841-.0466.0031.0465.381,0-.3841v.2625l.0763-.2529-.0763-.01v.2625l.0763-.2529-.0089.0294.012-.0284-.0031-.001-.0089.0294.012-.0284a1.462,1.462,0,0,1-.4053-.3706,8.59,8.59,0,0,1-1.7054-5.1719,10.98,10.98,0,0,1,.2079-2.0869c.052-.2639.1036-.4749.1413-.6163l.0442-.1582.0127-.0419a.9052.9052,0,0,0-1.6688-.6876l.268.136-.2667-.1387-.0013.0027.268.136-.2667-.1387a8.5441,8.5441,0,0,1-2.98,2.9967,5.5174,5.5174,0,0,1-2.7905.6511,7.4369,7.4369,0,0,1-2.1407-.3015,3.0384,3.0384,0,0,1-.6469-.2739l-.13-.0939-.0079-.0079-.1384.1258.1658-.08-.0274-.0455-.1384.1258.1658-.08-.2479.1193.27-.0563-.0226-.0641-.2474.12.27-.0563-.09.0188h.0927l-.0028-.0188-.09.0188h.0927a1.5757,1.5757,0,0,1,.2588-.6179,9.4671,9.4671,0,0,1,3.7642-3.1888l-.37-.8261.2125.88a14.1816,14.1816,0,0,1,3.2037-.3473c.2555,0,.4622.0063.6029.0124l.1589.0081.0466.0031a.9053.9053,0,0,0,.3141-1.7744s-.2042-.0572-.5323-.1545c-.4917-.1461-1.2552-.3814-1.9741-.635a9.6177,9.6177,0,0,1-1.6313-.6936,3.9936,3.9936,0,0,1-1.4031-1.6223,4.121,4.121,0,0,1-.4283-1.719,1.7111,1.7111,0,0,1,.04-.3993l.0273-.0846.0023-.0048-.1566-.0945.1414.1155.0152-.021-.1566-.0945.1414.1155a1.463,1.463,0,0,1,.557-.3527,3.18,3.18,0,0,1,1.176-.212,4.5448,4.5448,0,0,1,2.2343.6317l.4443-.7887.4443-.7888a6.3568,6.3568,0,0,0-3.1229-.8648,4.98,4.98,0,0,0-1.8511.3426,3.1853,3.1853,0,0,0-1.2832.886,2.5413,2.5413,0,0,0-.4641,1.6144,5.898,5.898,0,0,0,.61,2.5087,5.8015,5.8015,0,0,0,2.0448,2.35,7.4568,7.4568,0,0,0,1.2666.6056c1.4422.5655,3.356,1.0987,3.3706,1.1036l.2441-.8717.07-.9027c-.0186-.0013-.379-.029-.9485-.029a15.9287,15.9287,0,0,0-3.6287.398l-.1577.0539a11.5862,11.5862,0,0,0-3.42,2.4476,8.3964,8.3964,0,0,0-1.1535,1.457,3.1017,3.1017,0,0,0-.52,1.5543,1.6137,1.6137,0,0,0,.1571.7094,2.0152,2.0152,0,0,0,.7993.8127,5.5972,5.5972,0,0,0,1.6536.6158,9.6568,9.6568,0,0,0,2.0737.2226,7.27,7.27,0,0,0,3.73-.9137,10.2294,10.2294,0,0,0,3.6538-3.7234l-.8075-.4093L158,114.1937a12.2982,12.2982,0,0,0-.4938,3.46,10.4939,10.4939,0,0,0,.1364,1.7137,11.1629,11.1629,0,0,0,1.3019,3.6189,6.2588,6.2588,0,0,0,.98,1.318,2.8452,2.8452,0,0,0,.6036.4643,1.6846,1.6846,0,0,0,.82.2276l.1727-.01-.0041.0005a2.2072,2.2072,0,0,0,1.3074-.7438,6.35,6.35,0,0,0,1.2371-2.1115,8.1629,8.1629,0,0,0,.5243-2.8077l-.0044-.2455a9.2206,9.2206,0,0,0-.9194-3.4748,11.2288,11.2288,0,0,0-.8493-1.5217l-.7439.516-.5323.7323c.009.0066.5463.3971,1.2446.8447a11.8556,11.8556,0,0,0,2.2917,1.21l.1168.0308a10.6782,10.6782,0,0,0,2.01.181,11.9209,11.9209,0,0,0,3.2032-.4241,5.6146,5.6146,0,0,0,1.2362-.5012,2.0029,2.0029,0,0,0,.9093-.9476,1.4544,1.4544,0,0,0,.1-.5412,2.9935,2.9935,0,0,0-.5053-1.4838,9.8323,9.8323,0,0,0-4.6673-3.8162,5.5074,5.5074,0,0,0-1.8587-.3029,8.8332,8.8332,0,0,0-3.2493.68.9053.9053,0,0,0,.7086,1.666,8.814,8.814,0,0,0,1.4247-.7795,7.4851,7.4851,0,0,0,2.3629-2.412,8.77,8.77,0,0,0,1.0951-4.2067,5.3663,5.3663,0,0,0-.2208-1.6161,2.15,2.15,0,0,0-.9467-1.2782,2.117,2.117,0,0,0-1.0308-.2374,6.8109,6.8109,0,0,0-3.07.9861,9.7025,9.7025,0,0,0-2.8942,2.417,6.8885,6.8885,0,0,0-1.2662,4.1183c0,.2715.0147.4405.0168.4634l.9016-.0827.89-.1669a5.565,5.565,0,0,0-.6966-1.6836,8.2473,8.2473,0,0,0-3.0952-2.9422Z"/><path class="cls-5" d="M163.2576,111.6673a2.2848,2.2848,0,1,1-2.3921-2.1753A2.2879,2.2879,0,0,1,163.2576,111.6673Z"/><path class="cls-3" d="M163.2576,111.6673l-.9043.0424.0015.0663a1.383,1.383,0,0,1-1.3127,1.3791l.0035,0-.0678.0015a1.3812,1.3812,0,0,1-1.38-1.3133l-.0018-.0717a1.3777,1.3777,0,0,1,1.3131-1.3751l.0655-.0015a1.3811,1.3811,0,0,1,1.379,1.316l.9043-.0435.9043-.0435a3.1926,3.1926,0,0,0-3.1876-3.04l-.151.0037a3.1893,3.1893,0,0,0-3.0383,3.1837l.0039.1588a3.1918,3.1918,0,0,0,3.1889,3.0369l.15-.0034.0033,0a3.1931,3.1931,0,0,0,3.0342-3.1875l-.0034-.1511Z"/><path class="cls-2" d="M110.8208,126.5794c3.3028,9.9733,1.8732,14.83-.85,26.4-1.7038,7.2394-21.5251,5.0641-19.5885-.4244,2.5541-7.2379,2.5541-8.5157-.1414-16.0409Z"/><path class="cls-3" d="M110.8208,126.5794l-.86.2845a31.5724,31.5724,0,0,1,1.867,10.2182c.0037,4.4191-1.1263,8.85-2.7391,15.69a3.3835,3.3835,0,0,1-.9608,1.6573,7.4644,7.4644,0,0,1-3.252,1.6881,17.46,17.46,0,0,1-4.5826.5664,18.6664,18.6664,0,0,1-6.5644-1.1064,6.2794,6.2794,0,0,1-1.99-1.1674,1.55,1.55,0,0,1-.585-1.1119,1.32,1.32,0,0,1,.0813-.4413c1.26-3.5772,1.9464-5.7951,1.95-8.1271-.0041-2.3963-.7276-4.7013-2.0927-8.521l-.8522.3053.3934.8152,20.5805-9.9349-.3936-.8153-.86.2845.86-.2845-.3936-.8153L89.1136,136.053l.2745.7667c1.3666,3.8067,1.9909,5.92,1.9867,7.91.0036,1.9379-.5863,3.96-1.8466,7.524a3.1226,3.1226,0,0,0-.1848,1.0444,3.3488,3.3488,0,0,0,1.1476,2.4237,9.8618,9.8618,0,0,0,4.1922,2.07,22.1174,22.1174,0,0,0,5.6106.7026,17.3423,17.3423,0,0,0,6.58-1.1542,8.0056,8.0056,0,0,0,2.5253-1.6209,5.2029,5.2029,0,0,0,1.4526-2.5324c1.6006-6.8127,2.7837-11.3607,2.7873-16.1051a33.3852,33.3852,0,0,0-1.9588-10.7873l-.3242-.979-.9287.4483Z"/><path class="cls-2" d="M139.5646,144.6777c1.9174-4.0455,7.0257-5.7508,7.6653-14.0526,1.0907-14.1708-21.5046-50.4605-29.8787-50.4605-11.6385.0007-34.0673,31.2286-31.9633,49.6217,1.289,11.26,12.6314,14.7441,23.7292,15.0064,3.1231.24,8.7013,3.8274,6.2358,9.0405-2.6986,5.7065,18.1411,8.1944,21.0179,0,1.43-4.0708,2.2093-7.0774,3.1938-9.1555"/><path class="cls-3" d="M139.5646,144.6777l.818.3879c.8279-1.7825,2.5173-3.1966,4.197-5.2481a15.4812,15.4812,0,0,0,3.5529-9.1229q.0412-.5368.0408-1.103c-.0068-3.92-1.4051-8.9241-3.5914-14.3163a119.0031,119.0031,0,0,0-13.44-23.9138,60.3248,60.3248,0,0,0-7.38-8.5717,19.4609,19.4609,0,0,0-3.33-2.5416,6.334,6.334,0,0,0-3.0811-.989c-3.17.022-6.6721,1.9386-10.2907,4.9595-5.4139,4.55-11.0531,11.72-15.379,19.5435-4.3177,7.8271-7.3289,16.2879-7.3371,23.5084a23.0145,23.0145,0,0,0,.1441,2.6187,15.2774,15.2774,0,0,0,2.8628,7.4941,18.9392,18.9392,0,0,0,9.4311,6.3726,42.19,42.19,0,0,0,12.3132,1.9418l.0215-.9051-.0694.9026a7.7213,7.7213,0,0,1,3.8927,1.6958,5.0889,5.0889,0,0,1,2.1188,3.8952,5.0245,5.0245,0,0,1-.5248,2.16,3.23,3.23,0,0,0-.3276,1.3865,3.3235,3.3235,0,0,0,1.1255,2.396,9.69,9.69,0,0,0,4.1542,2.06,22.3053,22.3053,0,0,0,5.6693.7031,19.3724,19.3724,0,0,0,7.2815-1.2944,8.0243,8.0243,0,0,0,4.7877-4.5647c1.4375-4.1024,2.2318-7.1262,3.1576-9.0679l-.818-.3876-.8182-.3876c-1.0431,2.2146-1.8081,5.2039-3.23,9.2429a6.2363,6.2363,0,0,1-3.7749,3.4933,17.6139,17.6139,0,0,1-6.5859,1.1554,18.6865,18.6865,0,0,1-6.6127-1.1045,6.1371,6.1371,0,0,1-1.9569-1.1547,1.5237,1.5237,0,0,1-.5687-1.09,1.4192,1.4192,0,0,1,.1537-.6124,6.458,6.458,0,0,0-2.0925-8.2375,9.45,9.45,0,0,0-4.8922-2.0927l-.0231-.0019-.025-.0006c-5.4622-.1257-10.9533-1.0611-15.142-3.2747a15.094,15.094,0,0,1-5.19-4.3074,13.458,13.458,0,0,1-2.5187-6.6222,21.1858,21.1858,0,0,1-.1323-2.4127C86.1366,118.31,91.3,106.6088,97.87,97.2694a62.0032,62.0032,0,0,1,10.3546-11.6639c3.4434-2.9082,6.7351-4.5573,9.1264-4.5356a6.003,6.003,0,0,1,3.11,1.3494,41.9472,41.9472,0,0,1,7.9783,8.355,118.1613,118.1613,0,0,1,12.2363,20.1487c3.41,7.13,5.7,14.08,5.6864,18.6686q0,.5025-.0354.964a13.6276,13.6276,0,0,1-3.1539,8.1217c-1.5137,1.8882-3.3371,3.35-4.4268,5.6127l.8182.3877"/><path class="cls-6" d="M87.9405,140.3727c.6582,1.5373,4.6093,5.9263,2.1953,8.9992,0,0,4.1694,5.266,20.4094,3.73l2.6337-9.8759Z"/><path class="cls-3" d="M87.9405,140.3727l-.8151.349a10.4333,10.4333,0,0,0,.7433,1.3006,24.4783,24.4783,0,0,1,1.435,2.4722,6.2582,6.2582,0,0,1,.7184,2.6027,2.6842,2.6842,0,0,1-.5836,1.727l-.4319.55.434.5482c.1592.2221,3.6732,4.362,15.4746,4.3472,1.7218,0,3.6208-.087,5.7133-.2847l.6144-.0581,3.0578-11.4663-27.7751-3.14.6,1.4012.8151-.349-.1.8811,24.2161,2.7378-2.3685,8.882.8567.2285-.0834-.8827c-2.0409.1929-3.8844.2766-5.5466.2766-5.7006,0-9.2658-.9843-11.3794-1.9283a10.3578,10.3578,0,0,1-2.175-1.2666,4.9027,4.9027,0,0,1-.4385-.3834l-.0851-.09-.0125-.0145-.2722.2284.2784-.2205-.0062-.0079-.2722.2284.2784-.2205-.6951.55.6974.5476a4.4737,4.4737,0,0,0,.9622-2.8223,9.2174,9.2174,0,0,0-1.4088-4.3535c-.3547-.6269-.7191-1.1945-1.0189-1.669a9.5072,9.5072,0,0,1-.6121-1.0509l-.8151.3489-.1.8811Z"/><path class="cls-6" d="M91.6715,140.5923a41.3165,41.3165,0,0,0,20.1912,6.5851s3.95,3.73,3.73,5.266c0,0,5.7067,4.6086,21.2878.8783,0,0,2.0736-7.1922,2.6838-8.6439.6086-1.4516,4.7781-7.3764,4.7781-7.3764l-35.7813-1.1968-16.67,1.1968Z"/><path class="cls-3" d="M91.6715,140.5923l-.4771.7474a42.1506,42.1506,0,0,0,20.6683,6.7243v-.8866l-.6088.6445.15.1452a28.23,28.23,0,0,1,1.9908,2.1529,11.1784,11.1784,0,0,1,.9826,1.3685,2.148,2.148,0,0,1,.3373.8255l0,.0058-.07.4975.3911.3158c.1382.1181,3.2586,2.5373,10.7369,2.5325a48.8006,48.8006,0,0,0,11.3142-1.4816l.5024-.12.1432-.4964c.0011-.0038.5172-1.7943,1.11-3.7681.2964-.9869.6119-2.0184.8895-2.8891.2755-.8658.523-1.5908.6494-1.8889a15.23,15.23,0,0,1,.9371-1.6374c.7027-1.12,1.6427-2.5181,2.4041-3.6307s1.3434-1.94,1.3447-1.9415l.9442-1.3419-37.4674-1.253-17.4869,1.2555-.3059,4.5849.4426.2825.4771-.7474.8847.059.1683-2.5209,15.8542-1.1381,35.7344,1.1953.03-.8862-.7252-.51c-.0021.003-1.0468,1.4876-2.1714,3.1593-.5625.8361-1.1446,1.7187-1.6293,2.4912a15.8827,15.8827,0,0,0-1.07,1.8935c-.1784.4269-.419,1.1454-.7039,2.0363-.8471,2.656-2.0131,6.7006-2.0143,6.7047l.8521.2457-.2065-.8623a47.0423,47.0423,0,0,1-10.9014,1.4328,22.3736,22.3736,0,0,1-7.5245-1.1161,10.5072,10.5072,0,0,1-1.6514-.7386c-.1706-.0972-.2912-.1753-.3647-.2256l-.0753-.0534-.012-.0089-.2019.26.2069-.2563-.005-.0039-.2019.26.2069-.2563-.557.69.878.1234.0175-.2528a3.8956,3.8956,0,0,0-.7206-1.9523,24.6572,24.6572,0,0,0-3.2964-3.8289l-.2564-.2421h-.3524l-.0943-.0015a40.7673,40.7673,0,0,1-19.62-6.4442l-.4771.7473.8847.059Z"/><path class="cls-6" d="M99.7613,125.2146l-6.8636-20.1073s-19.4808,1.9808-19.5471,4.252c1.1156,3.2512,6.9371,10.2931,5.6779,15.3881C88.2434,124.3731,94.1534,127.14,99.7613,125.2146Z"/><path class="cls-3" d="M99.7613,125.2146l.8391-.2864-6.8636-20.1073a.8868.8868,0,0,0-.9287-.5957c-.0094.0011-4.8889.4968-9.799,1.2808a67.8662,67.8662,0,0,0-6.8116,1.3758,13.5079,13.5079,0,0,0-2.3869.8507,3.5,3.5,0,0,0-.8409.5625,1.5008,1.5008,0,0,0-.5054,1.0385l.0475.3136a18.8187,18.8187,0,0,0,1.4069,2.8649c.9038,1.5981,2.0186,3.4464,2.8972,5.3221A13.37,13.37,0,0,1,78.319,123.22a5.4686,5.4686,0,0,1-.1515,1.3152.8866.8866,0,0,0,.8969,1.0984q.8773-.0356,1.7155-.0346c5.7975-.0056,10.25,1.18,14.4427,1.19a14.6362,14.6362,0,0,0,4.8264-.7356.8859.8859,0,0,0,.5514-1.1251l-.8391.2864-.2878-.8388a12.8654,12.8654,0,0,1-4.2509.64c-3.84.01-8.4081-1.1847-14.4427-1.19q-.873,0-1.7875.0361l.0361.886.8608.2125a7.2465,7.2465,0,0,0,.2031-1.74c-.0123-2.7389-1.3022-5.5517-2.6555-8.0843-.68-1.2636-1.3849-2.4527-1.9743-3.496a17.4787,17.4787,0,0,1-1.2733-2.5679l-.8387.2878.8862.0258-.415-.0121.367.2026.048-.1905-.415-.0121.367.2026-.1355-.0749.1216.0969.0139-.022-.1355-.0749.1216.0969a2.97,2.97,0,0,1,.9526-.5093A29.7384,29.7384,0,0,1,79.715,107.89c2.828-.5619,6.1537-1.0388,8.7649-1.3732,1.306-.1674,2.4343-.2993,3.2354-.3894s1.2709-.1378,1.2709-.1378l-.0885-.8824-.8391.2865,6.8635,20.1073.8392-.2865-.2878-.8388Z"/><path class="cls-6" d="M143.5778,142.0839s4.0633-3.3264,3.8377-13.562c-.3183-14.5347-21.6-48.0781-30.1674-48.0781-11.9026,0-30.6635,27.2472-32.38,46.1032a21.7077,21.7077,0,0,0,3.0721,13.8259l11.0972,3.1127,8.1783-3.0347,6.4419,3.9734,29.92-2.34"/><path class="cls-3" d="M143.5778,142.0839l.5616.686c.1793-.1281,4.1857-3.5947,4.1718-13.434q0-.41-.0092-.8333c-.09-3.8361-1.5172-8.7177-3.7118-13.9674a114.9131,114.9131,0,0,0-13.4073-23.2446,57.31,57.31,0,0,0-7.41-8.32,19.1626,19.1626,0,0,0-3.3826-2.4636,6.7027,6.7027,0,0,0-3.1424-.95c-3.3208.0141-6.8565,1.8439-10.4031,4.7543-5.3135,4.38-10.6672,11.3012-14.8916,18.9328-4.2188,7.6341-7.3032,15.9657-7.968,23.2223-.0737.8032-.1072,1.5806-.1072,2.3291a21.9789,21.9789,0,0,0,3.3427,12.0951l.1811.2519,11.6737,3.2743,8.0431-2.9843,6.32,3.8981,30.4857-2.3845.2151-.1763-.5616-.686-.0691-.884-29.6317,2.3178-6.5642-4.0487-8.3134,3.085L88.18,139.519l-.24.8539.72-.518-.0027-.004a20.3851,20.3851,0,0,1-3.0058-11.0553c0-.6955.0311-1.4186.1-2.1678.8262-9.1849,5.8887-20.6367,12.2145-29.6962A56.9975,56.9975,0,0,1,107.9724,85.68c3.3722-2.7877,6.645-4.3638,9.2757-4.35a6.3493,6.3493,0,0,1,3.2473,1.3184,40.0821,40.0821,0,0,1,8.0314,8.1013,113.228,113.228,0,0,1,12.1976,19.5707c3.4042,6.9367,5.7178,13.71,5.8046,18.2205q.0088.405.0088.7946a21.8609,21.8609,0,0,1-1.8349,9.5871,10.0976,10.0976,0,0,1-1.2131,1.9606,5.3556,5.3556,0,0,1-.3728.4183l-.09.0859-.0162.0142.1789.2081-.1739-.2123-.005.0042.1789.2081-.1739-.2123.5619.6861-.0691-.884.0691.884"/><polygon class="cls-4" points="99.792 104.437 106.511 132.613 114.934 105.588 99.792 104.437"/><path class="cls-3" d="M99.7923,104.4368l-.8625.2057,6.719,28.1763a.8867.8867,0,0,0,1.709.0581l8.4229-27.0252a.8865.8865,0,0,0-.7793-1.1479l-15.142-1.1511a.8866.8866,0,0,0-.93,1.09l.8625-.2057-.0673.8841,14.0312,1.0665-7.1311,22.88-5.9705-25.0368-.8623.2057-.0673.8841Z"/><polygon class="cls-7" points="111.077 128.293 106.274 131.412 103.624 128.293 106.109 117.667 108.321 117.667 111.077 128.293"/><path class="cls-3" d="M111.0772,128.2934l-.4828-.7437-4.1495,2.694-1.8555-2.1838,2.2228-9.506h.8229l2.5838,9.9621.8583-.2226-.4828-.7437.4828.7437.8583-.2226-2.7561-10.6262a.886.886,0,0,0-.8583-.6642H106.109a.8861.8861,0,0,0-.8634.6849l-2.4849,10.6262a.8856.8856,0,0,0,.1877.7761l2.65,3.1186a.8851.8851,0,0,0,1.1585.1695l4.8031-3.1186a.8892.8892,0,0,0,.3755-.9663Z"/><polygon class="cls-7" points="108.321 117.667 106.109 117.667 104.881 115.294 107.263 112.283 109.552 115.437 108.321 117.667"/><path class="cls-3" d="M108.3211,117.6672V116.78h-1.6726l-.7166-1.385,1.3007-1.6444,1.27,1.751-.9583,1.7368.7763.4284v0l.7764.4285,1.2305-2.23a.8842.8842,0,0,0-.0585-.9491l-2.2888-3.1541a.8869.8869,0,0,0-1.4131-.0293l-2.3818,3.011a.8887.8887,0,0,0-.092.9576l1.2277,2.3729a.8877.8877,0,0,0,.7875.4792h2.2121a.8881.8881,0,0,0,.7764-.4582Z"/><path class="cls-3" d="M103.4148,118.4573l3.8138-4.7206,4.04,5.5127a.8866.8866,0,1,0,1.43-1.0481l-5.4017-7.3713-5.2617,6.5129a.8867.8867,0,0,0,1.38,1.1144Z"/><polyline class="cls-6" points="93.583 108.577 91.592 114.335 97.06 117.352 94.809 122.972 106.483 132.612 100.569 108.406"/><path class="cls-3" d="M92.745,108.287l-1.9911,5.7582a.8875.8875,0,0,0,.41,1.0661l4.7819,2.6383-1.9593,4.8922a.8869.8869,0,0,0,.2586,1.0134l11.6741,9.64a.8867.8867,0,0,0,1.4259-.8942L101.43,108.1953a.8866.8866,0,0,0-1.7226.421l5.28,21.6105L95.8731,122.7l2.01-5.0186a.8876.8876,0,0,0-.3948-1.1059l-4.8143-2.6563,1.7473-5.0526a.8867.8867,0,1,0-1.676-.58Z"/><polyline class="cls-6" points="120.881 109.434 122.51 115.305 116.863 117.972 118.754 123.725 106.511 132.613 113.916 108.827"/><path class="cls-3" d="M120.0265,109.6716l1.4289,5.15-4.9708,2.3486a.8877.8877,0,0,0-.4636,1.0787l1.6889,5.1378-9.5581,6.9394,6.6105-21.2356a.8866.8866,0,1,0-1.6931-.527L105.6647,132.35a.8867.8867,0,0,0,1.3676.9811l12.243-8.8886a.8864.8864,0,0,0,.3214-.9944l-1.6464-5.0084,4.9381-2.3329a.8877.8877,0,0,0,.4755-1.0388l-1.6285-5.87a.8866.8866,0,1,0-1.7087.4741Z"/><path class="cls-3" d="M104.7339,136.1046h.8867a1.0271,1.0271,0,1,1,1.0249,1.0263,1.026,1.026,0,0,1-1.0249-1.0263h-1.7734a2.8,2.8,0,1,0,2.7983-2.8,2.7986,2.7986,0,0,0-2.7983,2.8Z"/><path class="cls-2" d="M164.7314,68.9356c-2.3713,34.0362-28.0673,43.9668-58.764,41.8283-30.6942-2.137-54.4935-19.4573-52.3962-49.571C55.4717,33.9075,81.7255,15.9918,112.42,18.13,143.1163,20.268,166.631,41.65,164.7314,68.9356"/><path class="cls-3" d="M164.7314,68.9356l-.9265-.0646c-1.0835,15.3712-6.9089,25.5711-15.767,32.0455-8.8642,6.4707-20.888,9.1971-34.3632,9.195q-3.7535,0-7.6427-.2739c-14.5685-1.0129-27.5168-5.4859-36.7758-13.0729C59.9994,89.17,54.3812,78.5132,54.3711,64.842q0-1.7592.1265-3.5845a42.113,42.113,0,0,1,16.5787-30.63C80.58,23.1868,93.4077,18.8847,107.482,18.8855q2.4136,0,4.8732.17c14.5773,1.0147,27.4872,6.4276,36.7289,14.7254,9.2424,8.3032,14.823,19.4579,14.826,32.0788q0,1.4918-.1052,3.0111l.9265.0644.9264.0643q.11-1.5828.1095-3.14c.0031-13.1819-5.8591-24.8637-15.4425-33.4608-9.5846-8.6025-22.8841-14.1534-37.84-15.1961q-2.5224-.176-5.0024-.1749c-14.4507.0007-27.6793,4.4116-37.55,12.1367A43.9817,43.9817,0,0,0,52.6449,61.1283q-.1317,1.8885-.131,3.7137c-.01,14.1919,5.918,25.4717,15.5656,33.3594,9.6453,7.8959,22.96,12.4523,37.8235,13.4888q3.943.2743,7.7717.2785c13.7136-.002,26.1332-2.7564,35.4577-9.5518C158.4629,95.6247,164.5715,84.7724,165.6578,69Z"/><path class="cls-8" d="M119.7844,72.8882a25.8315,25.8315,0,0,0-11.3056,1.9588,25.1484,25.1484,0,0,0-10.8294-3.5c-6.1149-.4257-9.7943,4.0111-10.22,10.1251-.4261,6.1119,4.4486,15.0065,19.47,16.0528s21.1756-7.08,21.6017-13.1921-2.6028-11.0183-8.7162-11.4443"/><path class="cls-3" d="M107.1743,80.2154l-.1665,3.081a.9286.9286,0,1,0,1.8545.1l.1665-3.081a.9286.9286,0,0,0-1.8545-.1"/><path class="cls-3" d="M107.1367,83.3308a14.0277,14.0277,0,0,0,1.9591,2.7733A10.1306,10.1306,0,0,0,111.43,88.048a6.402,6.402,0,0,0,3.2507.93,7.0688,7.0688,0,0,0,4.2147-1.5329.9285.9285,0,1,0-1.1016-1.495,5.2153,5.2153,0,0,1-3.1131,1.1708,4.544,4.544,0,0,1-2.3115-.6757,9.3771,9.3771,0,0,1-2.6183-2.4652,12.8944,12.8944,0,0,1-.7221-1.0738l-.1825-.3165-.0434-.08-.0106-.02a.9286.9286,0,1,0-1.6556.8414Z"/><path class="cls-9" d="M112.4507,73.7519a6.9843,6.9843,0,0,0-3.9039,1.0569,6.9866,6.9866,0,0,0-3.72-1.5881c-1.4531-.1008-2.6631,1.4693-2.7664,2.9682-.1385,1.9743,2.4215,4.1017,6.0855,4.3566,3.6667.2556,6.5128-1.7516,6.632-3.4708.1047-1.498-.874-3.2218-2.3272-3.3228"/><path class="cls-10" d="M82.705,53.8311l-14.3661.1349-4.22,2.01-.5011,6.9395,1.23,8.5165,4.1975,8.7714,8.1066,2.2336,10.2959.7545a10.9724,10.9724,0,0,1-.0182-1.72c.407-5.8428,3.784-10.1539,9.42-10.1533.2617,0,.5292.0093.8006.0282a22.8488,22.8488,0,0,1,4.6237.8236l2.1409-9.7931-6.0085-6.2379L82.705,53.8311"/><path class="cls-11" d="M96.8488,71.3185c-5.6356-.0006-9.0126,4.3105-9.42,10.1533a10.9724,10.9724,0,0,0,.0182,1.72l3.1586.2314,7.0476-2.1459,3.6211-4.5408.9984-4.5662a22.8488,22.8488,0,0,0-4.6237-.8236c-.2714-.0189-.5389-.0282-.8006-.0282"/><path class="cls-10" d="M137.0856,57.7612l-15.8686.0264-6.8443,5.31.7081,9.9637a23.9694,23.9694,0,0,1,3.2216-.2235c.4863,0,.9811.016,1.482.0509,6.1134.426,9.1422,5.3316,8.7162,11.4443a10.8478,10.8478,0,0,1-.2837,1.8054l10.2513.7311,8.3432-1.045,5.4146-8.0765,2.4422-8.2512.5025-6.9394-3.8878-2.5961-14.1973-2.2"/><path class="cls-11" d="M118.3024,72.8373a23.9694,23.9694,0,0,0-3.2216.2235l.3338,4.6978,2.93,5.0146,6.6676,3.1362,3.2046.2285a10.8478,10.8478,0,0,0,.2837-1.8054c.426-6.1127-2.6028-11.0183-8.7162-11.4443-.5009-.0349-.9957-.0509-1.482-.0509"/><path class="cls-3" d="M107.3091,82.8254l-.0233.0325a12.4659,12.4659,0,0,1-1.9749,2.0846,6.4032,6.4032,0,0,1-3.9192,1.6912,4.9053,4.9053,0,0,1-3.4781-1.63.9286.9286,0,0,0-1.298,1.3283,6.77,6.77,0,0,0,4.7761,2.159,8.4014,8.4014,0,0,0,5.3552-2.3324,13.9763,13.9763,0,0,0,2.0852-2.27.9285.9285,0,1,0-1.523-1.0626Z"/><path class="cls-3" d="M90.4424,66.5009c-.1666,2.3875-3.23,4.1185-5.6182,3.9519a4.3338,4.3338,0,0,1-4.022-4.624c.1665-2.3869,2.9254-4.4311,5.3123-4.2652A4.8794,4.8794,0,0,1,90.4424,66.5009Z"/><path class="cls-3" d="M127.4822,69.0808c-.1665,2.3875,2.6278,4.5268,5.0155,4.6933a4.3344,4.3344,0,0,0,4.6234-4.022c.1649-2.3875-2.283-4.7944-4.6707-4.9608A4.8791,4.8791,0,0,0,127.4822,69.0808Z"/><path class="cls-12" d="M61.4517,23.481C58.0162,25.65,54.9633,31.7858,56.28,38.0076a20.081,20.081,0,0,0,4.8408,9.0942c3.5711,5.2837,6.397,3.7936,10.4581.9653,6.8843-4.7935,11.8428-11.43,13.0727-15.0888,1.6574-4.9189,3.2675-9.1855,1.0531-11.9667C82.1064,16.4915,67.1981,19.8532,61.4517,23.481Z"/><path class="cls-3" d="M61.4517,23.481l-.4957-.7853a12.2892,12.2892,0,0,0-4.155,4.893,16.6378,16.6378,0,0,0-1.7625,7.4045A15.4683,15.4683,0,0,0,55.3717,38.2a20.95,20.95,0,0,0,5.093,9.5588l.6562-.657-.7694.52a11.1542,11.1542,0,0,0,2.7273,2.9641,5.0286,5.0286,0,0,0,2.9281.9722,6.87,6.87,0,0,0,3.0563-.8319A25.4647,25.4647,0,0,0,72.11,48.8292,45.454,45.454,0,0,0,80.95,40.69a25.7433,25.7433,0,0,0,4.5815-7.4161c1.0664-3.1912,2.17-6.1491,2.1831-8.8324a6.2343,6.2343,0,0,0-1.2837-4.0085A6.2738,6.2738,0,0,0,83.213,18.45a15.7453,15.7453,0,0,0-4.4-.5435A38.0889,38.0889,0,0,0,69.0958,19.37a32.0279,32.0279,0,0,0-8.14,3.3256l.4957.7853.4958.7852A30.3215,30.3215,0,0,1,69.5893,21.16a36.3037,36.3037,0,0,1,9.2236-1.397,13.9515,13.9515,0,0,1,3.8735.4674A4.46,4.46,0,0,1,84.9783,21.59a4.3731,4.3731,0,0,1,.8794,2.8518c.0125,2.1515-.9981,5.0372-2.086,8.24a24.1167,24.1167,0,0,1-4.2505,6.8223,43.5986,43.5986,0,0,1-8.4729,7.8011,23.8249,23.8249,0,0,1-2.8149,1.76,5.0632,5.0632,0,0,1-2.2265.6361,3.1579,3.1579,0,0,1-1.8646-.6375A9.3805,9.3805,0,0,1,61.89,46.5817l-.05-.0741-.0631-.0629-.03-.03a19.22,19.22,0,0,1-4.559-8.5992,13.6119,13.6119,0,0,1-.2927-2.8218,14.7888,14.7888,0,0,1,1.5648-6.5709,10.4882,10.4882,0,0,1,3.4869-4.1561Z"/><g class="cls-13"><path class="cls-8" d="M77.7381,25.4919a5.9517,5.9517,0,0,0-4.6-4.4907,29.3748,29.3748,0,0,1,1.4192-3.8.9277.9277,0,0,0-.5115-1.6544c-.76-.0531-1.27-.084-3.8938,8.7972a9.8372,9.8372,0,0,0-8.0293,5.5879.9291.9291,0,0,0,.3847,1.2558l.3721.1061a.9252.9252,0,0,0,.8829-.4908A8.1613,8.1613,0,0,1,69.59,26.2805a122.5735,122.5735,0,0,0-3.2078,13.6688.9292.9292,0,0,0,.78,1.0575l.0752.0082a.9282.9282,0,0,0,.9816-.7878c.3625-2.3913,1.0294-5.3949,1.8039-8.4383a4.7163,4.7163,0,0,1,4.4156,3.4066.9313.9313,0,0,0,.82.6457l.3448-.0421a.9283.9283,0,0,0,.605-1.1657,6.5566,6.5566,0,0,0-5.7072-4.6743c.6815-2.5608,1.411-5.0656,2.0707-7.18a4.1175,4.1175,0,0,1,3.3462,3.0773.9273.9273,0,0,0,.8445.7443l.2469-.0154A.928.928,0,0,0,77.7381,25.4919Z"/></g><path class="cls-3" d="M61.4517,23.481l-.4957-.7853a12.2892,12.2892,0,0,0-4.155,4.893,16.6378,16.6378,0,0,0-1.7625,7.4045A15.4683,15.4683,0,0,0,55.3717,38.2a20.95,20.95,0,0,0,5.093,9.5588l.6562-.657-.7694.52a11.1542,11.1542,0,0,0,2.7273,2.9641,5.0286,5.0286,0,0,0,2.9281.9722,6.87,6.87,0,0,0,3.0563-.8319A25.4647,25.4647,0,0,0,72.11,48.8292,45.454,45.454,0,0,0,80.95,40.69a25.7433,25.7433,0,0,0,4.5815-7.4161c1.0664-3.1912,2.17-6.1491,2.1831-8.8324a6.2343,6.2343,0,0,0-1.2837-4.0085A6.2738,6.2738,0,0,0,83.213,18.45a15.7453,15.7453,0,0,0-4.4-.5435A38.0889,38.0889,0,0,0,69.0958,19.37a32.0279,32.0279,0,0,0-8.14,3.3256l.4957.7853.4958.7852A30.3215,30.3215,0,0,1,69.5893,21.16a36.3037,36.3037,0,0,1,9.2236-1.397,13.9515,13.9515,0,0,1,3.8735.4674A4.46,4.46,0,0,1,84.9783,21.59a4.3731,4.3731,0,0,1,.8794,2.8518c.0125,2.1515-.9981,5.0372-2.086,8.24a24.1167,24.1167,0,0,1-4.2505,6.8223,43.5986,43.5986,0,0,1-8.4729,7.8011,23.8249,23.8249,0,0,1-2.8149,1.76,5.0632,5.0632,0,0,1-2.2265.6361,3.1579,3.1579,0,0,1-1.8646-.6375A9.3805,9.3805,0,0,1,61.89,46.5817l-.05-.0741-.0631-.0629-.03-.03a19.22,19.22,0,0,1-4.559-8.5992,13.6119,13.6119,0,0,1-.2927-2.8218,14.7888,14.7888,0,0,1,1.5648-6.5709,10.4882,10.4882,0,0,1,3.4869-4.1561Z"/><path class="cls-12" d="M162.1729,30.4964c3.1008,2.624,5.2763,9.1242,3.1082,15.1036a20.0737,20.0737,0,0,1-6.0544,8.3351c-4.27,4.7376-6.8606,2.87-10.492-.4937C142.5829,47.74,138.5933,40.48,137.88,36.6863c-.958-5.1016-1.96-9.55.6176-11.9975C142.6862,20.711,156.9865,26.1072,162.1729,30.4964Z"/><path class="cls-3" d="M162.1729,30.4964l-.6.7087c1.9567,1.63,3.67,5.3288,3.6541,9.3366a13.9028,13.9028,0,0,1-.8189,4.7417,18.2761,18.2761,0,0,1-3.554,5.814,19.6961,19.6961,0,0,1-1.565,1.5733c-.1991.1778-.3589.3118-.4667.4l-.121.0969-.0335.0259-.0712.0536-.06.0666a10.0889,10.0889,0,0,1-2.3256,2.01,3.4964,3.4964,0,0,1-1.78.5372,4.2409,4.2409,0,0,1-2.2815-.8075,21.5226,21.5226,0,0,1-2.7844-2.2929,43.6028,43.6028,0,0,1-7.308-8.9,24.168,24.168,0,0,1-3.2651-7.3455,42.3924,42.3924,0,0,1-1.0051-7.1464,7.5393,7.5393,0,0,1,.3154-2.3341,3.92,3.92,0,0,1,1.0338-1.6719,5.7747,5.7747,0,0,1,3.9909-1.1334,29.4285,29.4285,0,0,1,9.9771,2.2917,32.4643,32.4643,0,0,1,8.4683,4.6845l.6-.7087.6-.7089a34.1483,34.1483,0,0,0-8.9877-4.9951,31.1369,31.1369,0,0,0-10.6574-2.4207,7.5184,7.5184,0,0,0-5.27,1.6437,5.7863,5.7863,0,0,0-1.52,2.4415,9.362,9.362,0,0,0-.4075,2.9114,43.6233,43.6233,0,0,0,1.037,7.4893,25.7883,25.7883,0,0,0,3.5108,7.9791,45.4479,45.4479,0,0,0,7.6253,9.2857,23.1348,23.1348,0,0,0,3.0421,2.4924,6.0645,6.0645,0,0,0,3.2861,1.1026,5.3537,5.3537,0,0,0,2.712-.7879,11.8843,11.8843,0,0,0,2.7728-2.3728l-.69-.6216.5587.7418a20.9457,20.9457,0,0,0,6.3686-8.76,15.7556,15.7556,0,0,0,.93-5.3748c-.016-4.5187-1.8064-8.6083-4.3116-10.7542Z"/><g class="cls-14"><path class="cls-8" d="M145.7649,30.23a5.953,5.953,0,0,1,5.18-3.81,29.5929,29.5929,0,0,0-.88-3.96.9278.9278,0,0,1,.7369-1.5665c.7605.0522,1.269.0928,2.6352,9.251a9.8386,9.8386,0,0,1,7.1774,6.6476.9286.9286,0,0,1-.5555,1.19l-.3819.0537a.9269.9269,0,0,1-.8075-.6087,8.1617,8.1617,0,0,0-5.1436-5.2865,122.3243,122.3243,0,0,1,1.2807,13.9814.9294.9294,0,0,1-.9167.9395l-.0767-.0023a.9294.9294,0,0,1-.8637-.9167c-.0279-2.4184-.2726-5.4854-.6189-8.607a4.7147,4.7147,0,0,0-4.843,2.7619.93.93,0,0,1-.902.5254l-.3375-.0892a.93.93,0,0,1-.4348-1.2387,6.5546,6.5546,0,0,1,6.3006-3.837c-.3213-2.6316-.6956-5.2123-1.0553-7.3986a4.1182,4.1182,0,0,0-3.74,2.5836.9307.9307,0,0,1-.9417.62l-.2418-.05A.93.93,0,0,1,145.7649,30.23Z"/></g><path class="cls-3" d="M162.1729,30.4964l-.6.7087c1.9567,1.63,3.67,5.3288,3.6541,9.3366a13.9028,13.9028,0,0,1-.8189,4.7417,18.2761,18.2761,0,0,1-3.554,5.814,19.6961,19.6961,0,0,1-1.565,1.5733c-.1991.1778-.3589.3118-.4667.4l-.121.0969-.0335.0259-.0712.0536-.06.0666a10.0889,10.0889,0,0,1-2.3256,2.01,3.4964,3.4964,0,0,1-1.78.5372,4.2409,4.2409,0,0,1-2.2815-.8075,21.5226,21.5226,0,0,1-2.7844-2.2929,43.6028,43.6028,0,0,1-7.308-8.9,24.168,24.168,0,0,1-3.2651-7.3455,42.3924,42.3924,0,0,1-1.0051-7.1464,7.5393,7.5393,0,0,1,.3154-2.3341,3.92,3.92,0,0,1,1.0338-1.6719,5.7747,5.7747,0,0,1,3.9909-1.1334,29.4285,29.4285,0,0,1,9.9771,2.2917,32.4643,32.4643,0,0,1,8.4683,4.6845l.6-.7087.6-.7089a34.1483,34.1483,0,0,0-8.9877-4.9951,31.1369,31.1369,0,0,0-10.6574-2.4207,7.5184,7.5184,0,0,0-5.27,1.6437,5.7863,5.7863,0,0,0-1.52,2.4415,9.362,9.362,0,0,0-.4075,2.9114,43.6233,43.6233,0,0,0,1.037,7.4893,25.7883,25.7883,0,0,0,3.5108,7.9791,45.4479,45.4479,0,0,0,7.6253,9.2857,23.1348,23.1348,0,0,0,3.0421,2.4924,6.0645,6.0645,0,0,0,3.2861,1.1026,5.3537,5.3537,0,0,0,2.712-.7879,11.8843,11.8843,0,0,0,2.7728-2.3728l-.69-.6216.5587.7418a20.9457,20.9457,0,0,0,6.3686-8.76,15.7556,15.7556,0,0,0,.93-5.3748c-.016-4.5187-1.8064-8.6083-4.3116-10.7542Z"/><path class="cls-3" d="M72.31,75.0269a1.1641,1.1641,0,1,1-1.081-1.2432A1.1653,1.1653,0,0,1,72.31,75.0269Z"/><path class="cls-3" d="M81.8958,75.6945a1.1657,1.1657,0,1,1-1.0811-1.2431A1.1654,1.1654,0,0,1,81.8958,75.6945Z"/><path class="cls-3" d="M77.0793,79.8839a1.165,1.165,0,1,1-1.081-1.2433A1.1633,1.1633,0,0,1,77.0793,79.8839Z"/><path class="cls-3" d="M136.07,79.4682a1.1635,1.1635,0,1,1-1.08-1.2432A1.1639,1.1639,0,0,1,136.07,79.4682Z"/><path class="cls-3" d="M145.6558,80.1359a1.1635,1.1635,0,1,1-1.0788-1.2433A1.1634,1.1634,0,0,1,145.6558,80.1359Z"/><path class="cls-3" d="M140.8409,84.3251a1.1649,1.1649,0,1,1-1.0818-1.2439A1.1643,1.1643,0,0,1,140.8409,84.3251Z"/><path class="cls-4" d="M161.75,61.9644c-.1-.4281-9.36-4.1451-19.1079-4.8885s-20.4906-1.0325-22.5067-.4047c-2.0117.633-6.6205,2.2579-8.01,2.4488l-.0237.0029L109.67,59.12l-2.4067-.3471-.0221-.0058c-1.3485-.3885-5.6741-2.66-7.5754-3.5749-1.9041-.9115-12.5768-2.1709-22.33-2.8363S57.8969,53.8541,57.7363,54.263c-.1621.41.0943,7.9107.0943,7.9107s.0862.9241.1488,1.1754A17.8132,17.8132,0,0,0,60.1,65.8524a13.7979,13.7979,0,0,1,2.193,4.2586c.445,1.35,2.01,4.39,3.061,6.6822,1.0539,2.2932,1.9279,3.745,3.9772,4.5814a28.89,28.89,0,0,0,11.072,2.97,56.1365,56.1365,0,0,0,16.5074-.9624c2.5527-.7222,4.361-4.3927,5.32-6.6s1.8584-4.8305,2.6735-7.1274a9.7274,9.7274,0,0,1,2.6219-4.05,1.8093,1.8093,0,0,1,1.3206-.3264l.7516.0539a1.8121,1.8121,0,0,1,1.26.5135,9.7262,9.7262,0,0,1,2.0118,4.3847c.476,2.3905.99,5.1163,1.6211,7.4375.6309,2.3228,1.8954,6.2136,4.3154,7.2969A56.1109,56.1109,0,0,0,135.0061,88.29,28.8835,28.8835,0,0,0,146.39,86.9441c2.1472-.5335,3.2216-1.8437,4.5953-3.9616,1.3691-2.1178,3.3543-4.9012,3.99-6.173a13.7838,13.7838,0,0,1,2.7826-3.899,14.7571,14.7571,0,0,0,2.2932-2.0929c.0974-.2395.4688-1.0383.4688-1.0383S161.8516,62.3926,161.75,61.9644Zm-58.73,4.6978c-.3153,2.4-2.4965,7.9667-3.3632,9.7611a7.5578,7.5578,0,0,1-5.0846,4.4443,41.4739,41.4739,0,0,1-13.7654.6632A28.0575,28.0575,0,0,1,71.32,78.7121c-1.7664-.8253-3.8607-3.9557-4.891-6.8665C64.2461,65.677,64.532,63.131,64.532,63.131c.1046-.7458.1628-3.8223,1.1569-5.1945.9926-1.3729,1.0943-2.036,2.8423-2.5452,1.7464-.5063,6.9012-.5365,12.3447.0287,5.4406.5644,14.6452,1.5991,16.4049,2.4237a8.7336,8.7336,0,0,1,4.2359,3.5931C102.6617,63.3166,103.3411,64.2629,103.02,66.6622Zm47.6131,11.27c-1.4384,2.7326-3.9616,5.53-5.8275,6.0913a28.047,28.047,0,0,1-9.7934,1.4252,41.4955,41.4955,0,0,1-13.5282-2.6352,7.5591,7.5591,0,0,1-4.3919-5.13c-.6-1.9-1.9588-7.7228-1.9248-10.143.0279-2.4207.8356-3.2592,2.2387-4.9555a8.7352,8.7352,0,0,1,4.7088-2.9462c1.86-.563,11.117-.2638,16.5834-.04s10.5643.9941,12.2194,1.7466c1.658.7553,1.6624,1.4266,2.4464,2.9277.787,1.501.4024,4.5533.3995,5.3072C153.7633,69.58,153.6792,72.14,150.6329,77.9317Z"/><path class="cls-3" d="M161.75,61.9644c-.1-.4281-9.36-4.1451-19.1079-4.8885s-20.4906-1.0325-22.5067-.4047c-2.0117.633-6.6205,2.2579-8.01,2.4488l-.0237.0029L109.67,59.12l-2.4067-.3471-.0221-.0058c-1.3485-.3885-5.6741-2.66-7.5754-3.5749-1.9041-.9115-12.5768-2.1709-22.33-2.8363S57.8969,53.8541,57.7363,54.263c-.1621.41.0943,7.9107.0943,7.9107s.0862.9241.1488,1.1754A17.8132,17.8132,0,0,0,60.1,65.8524a13.7979,13.7979,0,0,1,2.193,4.2586c.445,1.35,2.01,4.39,3.061,6.6822,1.0539,2.2932,1.9279,3.745,3.9772,4.5814a28.89,28.89,0,0,0,11.072,2.97,56.1365,56.1365,0,0,0,16.5074-.9624c2.5527-.7222,4.361-4.3927,5.32-6.6s1.8584-4.8305,2.6735-7.1274a9.7274,9.7274,0,0,1,2.6219-4.05,1.8093,1.8093,0,0,1,1.3206-.3264l.7516.0539a1.8121,1.8121,0,0,1,1.26.5135,9.7262,9.7262,0,0,1,2.0118,4.3847c.476,2.3905.99,5.1163,1.6211,7.4375.6309,2.3228,1.8954,6.2136,4.3154,7.2969A56.1109,56.1109,0,0,0,135.0061,88.29,28.8835,28.8835,0,0,0,146.39,86.9441c2.1472-.5335,3.2216-1.8437,4.5953-3.9616,1.3691-2.1178,3.3543-4.9012,3.99-6.173a13.7838,13.7838,0,0,1,2.7826-3.899,14.7571,14.7571,0,0,0,2.2932-2.0929c.0974-.2395.4688-1.0383.4688-1.0383S161.8516,62.3926,161.75,61.9644Zm-58.73,4.6978c-.3153,2.4-2.4965,7.9667-3.3632,9.7611a7.5578,7.5578,0,0,1-5.0846,4.4443,41.4739,41.4739,0,0,1-13.7654.6632A28.0575,28.0575,0,0,1,71.32,78.7121c-1.7664-.8253-3.8607-3.9557-4.891-6.8665C64.2461,65.677,64.532,63.131,64.532,63.131c.1046-.7458.1628-3.8223,1.1569-5.1945.9926-1.3729,1.0943-2.036,2.8423-2.5452,1.7464-.5063,6.9012-.5365,12.3447.0287,5.4406.5644,14.6452,1.5991,16.4049,2.4237a8.7336,8.7336,0,0,1,4.2359,3.5931C102.6617,63.3166,103.3411,64.2629,103.02,66.6622Zm47.6131,11.27c-1.4384,2.7326-3.9616,5.53-5.8275,6.0913a28.047,28.047,0,0,1-9.7934,1.4252,41.4955,41.4955,0,0,1-13.5282-2.6352,7.5591,7.5591,0,0,1-4.3919-5.13c-.6-1.9-1.9588-7.7228-1.9248-10.143.0279-2.4207.8356-3.2592,2.2387-4.9555a8.7352,8.7352,0,0,1,4.7088-2.9462c1.86-.563,11.117-.2638,16.5834-.04s10.5643.9941,12.2194,1.7466c1.658.7553,1.6624,1.4266,2.4464,2.9277.787,1.501.4024,4.5533.3995,5.3072C153.7633,69.58,153.6792,72.14,150.6329,77.9317Z"/><path class="cls-2" d="M143.2388,116.7092s3.7406-15.506,4.5-19.82c2.1518-12.2179-18.8633-15.3143-18.2561-6.2137.3831,5.7686-4.6513,18.6557-4.6513,18.6557"/><path class="cls-3" d="M144.1415,116.927c0-.0014.9358-3.8794,1.9667-8.2991,1.0319-4.425,2.1552-9.3681,2.5447-11.5777a10.8435,10.8435,0,0,0,.1686-1.8819,9.7191,9.7191,0,0,0-4.3246-8.0058,14.9023,14.9023,0,0,0-8.4453-2.68,9.266,9.266,0,0,0-5.1526,1.3585,5.187,5.187,0,0,0-2.3584,4.4534q0,.2191.0151.4446c.0125.1872.0187.3879.0187.5995.009,2.7985-1.1336,7.2836-2.294,10.9828-.5787,1.8552-1.1586,3.5269-1.5932,4.7328-.2172.6029-.3981,1.0894-.5245,1.4243s-.1966.515-.1966.515a.9286.9286,0,1,0,1.73.6764c.0048-.0128,1.1789-3.0181,2.3575-6.7954,1.1756-3.789,2.3692-8.3007,2.3783-11.5359q0-.3717-.0229-.7238l-.0111-.32a3.3035,3.3035,0,0,1,1.5388-2.913,7.4647,7.4647,0,0,1,4.1152-1.0416,13.0722,13.0722,0,0,1,7.3631,2.3325,7.8484,7.8484,0,0,1,3.55,6.4965,9.0019,9.0019,0,0,1-.1406,1.56c-.37,2.1044-1.496,7.0713-2.5242,11.4778-.5146,2.2059-1.0055,4.2775-1.3677,5.7976s-.5953,2.4853-.5959,2.4877a.9287.9287,0,0,0,1.8055.4357Z"/><path class="cls-6" d="M124.0247,111.041c2.71-4.1415,4.38-17.6917,4.38-17.6917s19.3482,1.6492,20.1013,6.2961l-5.2674,18.2738"/><path class="cls-3" d="M124.7666,111.5265a18.7118,18.7118,0,0,0,1.9373-4.75,103.0649,103.0649,0,0,0,2.5809-13.3188l-.88-.1085-.0753.8834c.0008,0,.2931.0249.818.0785a91.6589,91.6589,0,0,1,10.668,1.7069,28.2824,28.2824,0,0,1,5.54,1.7931,7.0369,7.0369,0,0,1,1.6862,1.0685,1.662,1.662,0,0,1,.5892.9076l.8752-.1419-.8519-.2455-5.2676,18.2738a.8867.8867,0,0,0,1.7041.4911l5.2673-18.2738.0233-.3874a3.5838,3.5838,0,0,0-1.3951-2.15,15.376,15.376,0,0,0-5.05-2.3407A85.3284,85.3284,0,0,0,128.48,92.4659a.8873.8873,0,0,0-.9552.775c0,.0021-.1028.834-.3,2.16-.296,1.9881-.8046,5.0715-1.4869,8.0232-.3407,1.4752-.7251,2.9175-1.143,4.1652a13.5727,13.5727,0,0,1-1.312,2.9666.8867.8867,0,0,0,1.4839.971Z"/><rect class="cls-4" x="14.4456" y="11.4356" width="46.0374" height="126.5598" transform="translate(-15.1048 9.735) rotate(-12.3424)"/><polygon class="cls-15" points="0.785 14.784 48.469 4.383 82.122 158.75 85.72 157.965 51.283 0 0 11.185 0.785 14.784 0.785 14.784"/><polygon class="cls-15" points="73.478 131.612 73.394 131.23 28.803 140.987 1.916 18.117 46.126 8.444 73.096 131.696 73.478 131.612 73.394 131.23 73.478 131.612 73.86 131.529 46.722 7.512 0.985 17.52 28.206 141.919 73.944 131.911 73.86 131.529 73.478 131.612"/><rect class="cls-4" x="41.6891" y="7.6754" width="12.6118" height="5.7735" transform="translate(-1.1484 10.505) rotate(-12.3445)"/><polygon class="cls-15" points="54.772 12.034 54.689 11.652 42.751 14.265 41.683 9.388 53.24 6.86 54.39 12.117 54.772 12.034 54.689 11.652 54.772 12.034 55.155 11.95 53.836 5.929 40.752 8.791 42.153 15.196 55.238 12.332 55.155 11.95 54.772 12.034"/><rect class="cls-4" x="40.9812" y="1.1254" width="5.7733" height="13.1395" transform="translate(-0.6309 9.5564) rotate(-12.3446)"/><polygon class="cls-15" points="45.283 0.66 44.901 0.744 47.627 13.197 42.751 14.265 40.109 2.193 45.367 1.043 45.283 0.66 44.901 0.744 45.283 0.66 45.2 0.278 39.178 1.596 42.153 15.196 48.558 13.794 45.582 0.195 45.2 0.278 45.283 0.66"/><rect class="cls-4" x="23.1259" y="5.0325" width="5.7734" height="13.1395" transform="translate(-1.879 5.8295) rotate(-12.3446)"/><polygon class="cls-15" points="27.428 4.568 27.046 4.651 29.771 17.104 24.895 18.171 22.254 6.1 27.512 4.95 27.428 4.568 27.046 4.651 27.428 4.568 27.344 4.185 21.323 5.503 24.298 19.103 30.703 17.701 27.726 4.102 27.344 4.185 27.428 4.568"/><rect class="cls-4" x="5.2711" y="8.9395" width="5.7729" height="13.1395" transform="translate(-3.1272 2.1026) rotate(-12.3447)"/><polygon class="cls-15" points="9.573 8.475 9.191 8.558 11.916 21.012 7.041 22.079 4.399 10.007 9.656 8.857 9.573 8.475 9.191 8.558 9.573 8.475 9.489 8.093 3.468 9.41 6.444 23.01 12.848 21.608 9.871 8.009 9.489 8.093 9.573 8.475"/><rect class="cls-4" x="46.7266" y="30.6945" width="12.6111" height="5.7734" transform="translate(-5.9522 12.1114) rotate(-12.3419)"/><polygon class="cls-15" points="59.809 35.053 59.726 34.671 47.788 37.283 46.721 32.408 58.276 29.879 59.427 35.137 59.809 35.053 59.726 34.671 59.809 35.053 60.191 34.97 58.873 28.947 45.79 31.811 47.191 38.215 60.275 35.352 60.191 34.97 59.809 35.053"/><rect class="cls-4" x="51.7634" y="53.7136" width="12.6118" height="5.7731" transform="translate(-10.7559 13.72) rotate(-12.3419)"/><polygon class="cls-15" points="64.847 58.072 64.763 57.69 52.825 60.302 51.758 55.427 63.314 52.898 64.465 58.156 64.847 58.072 64.763 57.69 64.847 58.072 65.229 57.988 63.911 51.967 50.826 54.83 52.228 61.233 65.312 58.37 65.229 57.988 64.847 58.072"/><rect class="cls-4" x="56.8008" y="76.7323" width="12.6112" height="5.7735" transform="translate(-15.5635 15.3333) rotate(-12.3453)"/><polygon class="cls-15" points="69.883 81.091 69.8 80.709 57.862 83.321 56.795 78.445 68.351 75.917 69.501 81.175 69.883 81.091 69.8 80.709 69.883 81.091 70.265 81.007 68.947 74.986 55.864 77.848 57.265 84.253 70.349 81.389 70.265 81.007 69.883 81.091"/><rect class="cls-4" x="61.8375" y="99.7519" width="12.6116" height="5.7729" transform="translate(-20.3736 16.9477) rotate(-12.3486)"/><polygon class="cls-15" points="74.92 104.11 74.837 103.727 62.899 106.341 61.832 101.465 73.388 98.936 74.538 104.193 74.92 104.11 74.837 103.727 74.92 104.11 75.302 104.026 73.985 98.005 60.901 100.868 62.302 107.272 75.386 104.408 75.302 104.026 74.92 104.11"/><rect class="cls-4" x="66.8747" y="122.7706" width="12.6116" height="5.773" transform="translate(-25.1672 18.5459) rotate(-12.3419)"/><polygon class="cls-15" points="79.958 127.129 79.874 126.747 67.936 129.359 66.869 124.484 78.425 121.955 79.576 127.213 79.958 127.129 79.874 126.747 79.958 127.129 80.34 127.045 79.022 121.023 65.938 123.887 67.339 130.29 80.423 127.428 80.34 127.045 79.958 127.129"/><path class="cls-3" d="M28.445,23.7846a4.4286,4.4286,0,0,1,2.57.8239c.308.3934.4038.6543.2681.7633a3.2022,3.2022,0,0,1-.7942.3154l-.94.205a7.41,7.41,0,0,0,.0693,1.512,4.0154,4.0154,0,0,0,1.63-1.0007,1.7313,1.7313,0,0,1,1.66.8829c-.1237.8105-1.0449,1.6551-2.7561,2.5526a21.5259,21.5259,0,0,0,1.2646,4.5835,7.0988,7.0988,0,0,1,3.8791,1.4813c.4672.9417.087,1.406-1.11,1.4472a8.192,8.192,0,0,0-2.6175-.4922A7.3188,7.3188,0,0,1,28.29,38.8617a7.8553,7.8553,0,0,1-2.9933.4539A4.22,4.22,0,0,1,22.69,38.42a1.9337,1.9337,0,0,1-.9522-1.779A5.586,5.586,0,0,1,27.39,33.556a8.3717,8.3717,0,0,0,.98.1664c-.2873-.8607-.5335-1.7109-.7413-2.5688a20.38,20.38,0,0,1-2.6927,1.1909,7.5227,7.5227,0,0,1-2.6249.395,1.5631,1.5631,0,0,1-.9064-1.8512,16.7785,16.7785,0,0,1,1.9145-2.6278,2.5267,2.5267,0,0,1-2.16.1312A13.8645,13.8645,0,0,1,26.2342,24.51c.0369-.29.0679-.5174.0812-.6413a1.8552,1.8552,0,0,1,.0839-.4392c.0472-.1518.1916-.2224.445-.2579.2344-.0323.45-.0588.6265-.078A1.3939,1.3939,0,0,1,28.445,23.7846Zm-4.28,4.0294a7.53,7.53,0,0,0-1.0861,1.6448c-.3832.725-.1872.983.5763.7958a11.2447,11.2447,0,0,0,3.1716-1.2955,19.6946,19.6946,0,0,0-.4083-2.14A8.2514,8.2514,0,0,0,24.1649,27.814Zm-.7309,8.7765c-.308.6088.1414.9138,1.3839.902a2.9416,2.9416,0,0,0,3.2306-1.571A5.3777,5.3777,0,0,0,23.434,36.5905Z"/><path class="cls-3" d="M29.1891,45.4482A11.7016,11.7016,0,0,1,29.9,47.5011c.1266.8563.2873,1.6846.4906,2.5248a34.5551,34.5551,0,0,0,.8417,3.932c.1061.118.2446.1076.4391-.0162a9.06,9.06,0,0,0,1.0126-.501,10.1807,10.1807,0,0,0,1.9572-2.2564c.5394-.8417,1.0744-1.7024,1.59-2.5587a15.8811,15.8811,0,0,0,1.0037-2.3875l.1768.1621c-.2313,1.0554-.4627,2.1091-.6559,3.1555a17.7223,17.7223,0,0,0-1.06,3.5062c-.2476.4348-.4319.8783-.6441,1.2852a2.441,2.441,0,0,1-.8681,1.0744,2.5411,2.5411,0,0,1-1.1776,1.32,1.33,1.33,0,0,1-.9313.4259c-.3581.0177-.7193.0162-1.0434.0074a1.8066,1.8066,0,0,1-1.138-.6145,7.9149,7.9149,0,0,1-.8193-.9861,9.2974,9.2974,0,0,1-1.64-4.1989c-.27-1.87-.5381-3.739-.8151-5.6477-.06-.3683-.1164-.7177-.1769-1.0861a1.8379,1.8379,0,0,0-.529-.9476,4.1461,4.1461,0,0,0-.3008-.457l.1534-.0338.0132-.1239a3.4007,3.4007,0,0,1,2.22.6A3.4365,3.4365,0,0,1,29.1891,45.4482Zm3.4238-3.9041.1769-.0178a4.0007,4.0007,0,0,1,1.4547.4053c.2416.1872.5261.3862.83.5808a1.0659,1.0659,0,0,1,.4849.8385c-.0015.1812-.0649.255-.2078.2461-.3553-.0634-.6677-.115-1.0007-.1621a.9471.9471,0,0,1-.7679-.3949c-.1887-.22-.3965-.4348-.5808-.6367-.24-.2682-.5025-.5512-.7811-.8121l.01-.0427.2373.0677Zm4.6631.1061-.04.1886-.0619.1739a.4834.4834,0,0,1-.5232-.0059.7628.7628,0,0,0-.5174-.0678,3.2586,3.2586,0,0,1-1.9144-1.77,3.8414,3.8414,0,0,1,.6912-.05A4.75,4.75,0,0,1,37.276,41.65Z"/><path class="cls-3" d="M32.7854,61.15a1.859,1.859,0,0,1,.4392,1.0892,1.8174,1.8174,0,0,0,.103,1.0212,3.1121,3.1121,0,0,1,.1651,1.0289,3.8821,3.8821,0,0,0,.9742-.5956,8.9568,8.9568,0,0,1,1.3264-.731,3.3893,3.3893,0,0,0-.022-1.02,1.456,1.456,0,0,0-.5513-.8637.6018.6018,0,0,1-.2092-.4966l.0014-.3612a.77.77,0,0,0,.5086.03,2.886,2.886,0,0,1,1.9424,1.4428,1.3921,1.3921,0,0,1,.2033.5572q.04.3225.42.27A7.4453,7.4453,0,0,1,43.0593,65.51a3.5972,3.5972,0,0,1,.728,2.4128,1.9471,1.9471,0,0,1-.3272,1.0759c-.2239.3492-.4348.6764-.6322.9609a10.0065,10.0065,0,0,1-1.4444.8386,1.11,1.11,0,0,1-.5644.2638,3.009,3.009,0,0,1-1.2262.7309,6.53,6.53,0,0,0-1.294.6043,4.3642,4.3642,0,0,0-.8047.3568c.5542-.765,1.1068-1.5475,1.6079-2.38a6.5442,6.5442,0,0,0,.9314-2.7147,6.9512,6.9512,0,0,0-.0825-2.4923,2.2376,2.2376,0,0,0-.8387-.62c-.33-.1283-.6439-.28-.955-.4128a.3888.3888,0,0,0-.3786.1017c-.0532.4938-.1091.9683-.1386,1.4768a2.9177,2.9177,0,0,1-.4452,1.3634,14.4206,14.4206,0,0,1-1.4413,3.3277c-.174.2993-.3508.5984-.5454.9021a6.56,6.56,0,0,0,.9123,1.0463,2.5473,2.5473,0,0,1,.9478.7561,1.3484,1.3484,0,0,0,.9859.6485.3915.3915,0,0,1,.2063.3964.9292.9292,0,0,0-.04.451c.0133.1577-.0943.2211-.2784.2a2.8577,2.8577,0,0,1-1.5343-.588,8.7469,8.7469,0,0,0-1.4444-.9079,1.1311,1.1311,0,0,1-.3669-.3021.3077.3077,0,0,0-.4143-.05,3.5451,3.5451,0,0,0-1.4059,1.1925.5829.5829,0,0,0-.3847.1636,1.3681,1.3681,0,0,1-1.2733.0575,4.0592,4.0592,0,0,0-.9448-1.1983.8.8,0,0,0-.5439-.4643,1.0414,1.0414,0,0,1-.8739-.8739,10.822,10.822,0,0,1,.3154-1.9558,17.6431,17.6431,0,0,1,1.8172-2.8887,9.6156,9.6156,0,0,1-.1739-2.9137c.034-1.1318.04-2.2977-.0324-3.4472.0281-.1475.056-.2948.1-.4643l-.06-.0869.1783-.0192-.0663-.2049a1.2352,1.2352,0,0,1,1.2572.3257A3.6384,3.6384,0,0,0,32.7854,61.15ZM31.13,68.18a13.0061,13.0061,0,0,0-.8829,1.3794,3.2321,3.2321,0,0,0-.395,1.5917,1.3115,1.3115,0,0,0-.1429.8151,2.6825,2.6825,0,0,0,1.1378.3331.8065.8065,0,0,0,.9683-.0708c.2725-.2211.5615-.4642.8121-.7l.1679-.2372A10.0855,10.0855,0,0,1,31.13,68.18Zm4.5541-3.969a6.8544,6.8544,0,0,0-2.1858,1.4841,5.7132,5.7132,0,0,0,.1577,1.9131c.1577.6278.2963,1.26.3921,1.8819a17.4068,17.4068,0,0,0,1.03-2.1738,14.2211,14.2211,0,0,1,.4259-1.5386,3.8183,3.8183,0,0,0,.2564-1.5829Z"/><path class="cls-3" d="M41.189,81.2868a1.6767,1.6767,0,0,1,.0692.87,2.8754,2.8754,0,0,0-.6838,1.1937,11.7959,11.7959,0,0,1-.41,1.3353,5.97,5.97,0,0,1-.2388.6544,1.6955,1.6955,0,0,0,.5586-.0207,3.36,3.36,0,0,1,2.24,1.1555,12.4809,12.4809,0,0,1,.0959,1.2645,22.7384,22.7384,0,0,0-.1976,2.6751c.0383.1723.15.2284.3272.2093a4.9176,4.9176,0,0,0,1.9764-.3317,4.0224,4.0224,0,0,1,1.9778-.2329,4.2944,4.2944,0,0,1,1.6124.8534.4883.4883,0,0,1,.1046.4789c-.171.1372-.34.2757-.5305.4171a4.5181,4.5181,0,0,0-.7223.5586,5.9568,5.9568,0,0,1-2.1988.9639,4.7015,4.7015,0,0,0,.3507-.78,6.2451,6.2451,0,0,1-4.1237-.7649,3.9171,3.9171,0,0,1-1.3175-3.7287l-.0325-.3331a3.4918,3.4918,0,0,0-1.9852,2.4023,4.2568,4.2568,0,0,1-1.325,2.1178,1.1488,1.1488,0,0,1-.7943.9566.5386.5386,0,0,1-.64-.0811,6.6835,6.6835,0,0,1-.6705-1.1377l.0192-.3671.1444-.3522a.6907.6907,0,0,1,.3684-.5233,1.7544,1.7544,0,0,0,.5306-.4171,6.342,6.342,0,0,0,1.1348-1.9749c.2476-.6971.5321-1.4221.7753-2.1384L37.58,85.995a28.66,28.66,0,0,1-2.6027,2.3374.9571.9571,0,0,1-1.6552-.2211,7.8176,7.8176,0,0,0-.4274-.6705A2.0355,2.0355,0,0,1,33.41,85.482c.1194-.1871.2344-.3934.3507-.6a1.1436,1.1436,0,0,1,.7487.9417l-.0118.2226.1534-.0339a23.41,23.41,0,0,0,4.1842-4.1886.3485.3485,0,0,1,.15-.4164c.1429.01.2225-.0869.1989-.2845l-.0309-.0515.2947-.2063.1651-.0766c.3124.0529.6632.0957.9993.1636A1.0951,1.0951,0,0,1,41.189,81.2868Zm-.7575-2.725a2.3261,2.3261,0,0,1-1.3251,1.0125,9.6652,9.6652,0,0,1-1.6181.4952,1.7624,1.7624,0,0,1-1.5843-.3566,3.3054,3.3054,0,0,1-.9816-1.0907l.0133-.022.3035.0943-.0177-.0782.0383-.0074-.056-.168.0545-.1135a7.6754,7.6754,0,0,1,.9138.0414,1.9,1.9,0,0,0,.87-.15,1.4939,1.4939,0,0,0,.9315-.7045.5775.5775,0,0,1,.5512-.1414,8.2514,8.2514,0,0,1,1.2689.3847A.9637.9637,0,0,1,40.4315,78.5618Z"/><path class="cls-3" d="M44.1927,97.0338a.4839.4839,0,0,0-.1769.4805c.0264.2152-.0487.3316-.2624.3581a10.5925,10.5925,0,0,0-1.4428,2.224c-.3655.8033-.6942,1.5991-.9949,2.4273a17.5861,17.5861,0,0,1-.4731,2.3331,5.1766,5.1766,0,0,1,.1813,1.468,4.8625,4.8625,0,0,0,.2448,1.4915,3.7647,3.7647,0,0,1,.3183.9947,1.3091,1.3091,0,0,0,.7752-.13,4.7175,4.7175,0,0,0,2.0588-1.9765,27.0308,27.0308,0,0,0,1.2748-2.61c.3318-.8753.6664-1.7316,1.0347-2.6145-.0928-.703-.19-1.4251-.2681-2.1518a4.8994,4.8994,0,0,1,.215-2.1355c.0192-.1856.0429-.3507.0679-.5173a1.5846,1.5846,0,0,1,.89.4892,11.9776,11.9776,0,0,1,1.2218,3.9293,9.4731,9.4731,0,0,0,1.4929,3.43,2.1113,2.1113,0,0,1,.5777,1.0774.4506.4506,0,0,1,.0812.4658,1.7282,1.7282,0,0,0-.0488.5128.7536.7536,0,0,1-.1974.3847.64.64,0,0,1-.6352-.0619c-.52-.45-.992-.9491-1.4856-1.4621a13.9645,13.9645,0,0,1-1.52-2.5409,5.05,5.05,0,0,0-.32.8328,14.4709,14.4709,0,0,0-1.2748,3.353,12.2385,12.2385,0,0,1-1.294,3.3558,8.1946,8.1946,0,0,1-1.3809.9447,2.1073,2.1073,0,0,1-1.6213.115,5.0237,5.0237,0,0,1-3.0537-3.9528,18.7483,18.7483,0,0,1,.0575-6.4391,2.5089,2.5089,0,0,1-2.3625-.7884l-.0973-.2594.0649-.0752-.1061-.2978a1.3112,1.3112,0,0,0,.557-.4833,7.7663,7.7663,0,0,0,2.8047-1.7789.7723.7723,0,0,0,.0545-.3935c-.01-.1385.0692-.2359.2446-.255l-.1562-.1665a.4835.4835,0,0,0,.395-.3067l.143-.1723.1769-.1991-.0074-.0383.2785-.1016.196-.2034c.7768.1518,1.5033.3538,2.2313.5557A4.8094,4.8094,0,0,1,44.1927,97.0338Z"/><path class="cls-3" d="M44.6127,115.2a1.8388,1.8388,0,0,1,.4377,1.0877,1.8216,1.8216,0,0,0,.1047,1.0229,3.0612,3.0612,0,0,1,.1635,1.0287,3.934,3.934,0,0,0,.9756-.5954,8.8713,8.8713,0,0,1,1.3251-.7326,3.3009,3.3009,0,0,0-.0222-1.02,1.4447,1.4447,0,0,0-.55-.8622.5992.5992,0,0,1-.2093-.4967l.0015-.3627a.7553.7553,0,0,0,.5069.03,2.9011,2.9011,0,0,1,1.944,1.4428,1.3816,1.3816,0,0,1,.2019.5585q.0419.323.4215.27a7.4454,7.4454,0,0,1,4.9711,2.989,3.5874,3.5874,0,0,1,.7281,2.4112,1.9468,1.9468,0,0,1-.3257,1.0759c-.2255.3507-.4348.6779-.6337.9624a9.9588,9.9588,0,0,1-1.443.837,1.1021,1.1021,0,0,1-.5659.2638,2.9893,2.9893,0,0,1-1.2262.7311,6.5617,6.5617,0,0,0-1.2925.6042,4.6374,4.6374,0,0,0-.8062.3567c.5557-.7634,1.1084-1.5476,1.6079-2.38a6.552,6.552,0,0,0,.933-2.7133,6.9571,6.9571,0,0,0-.0841-2.4937,2.2274,2.2274,0,0,0-.8385-.619c-.3287-.13-.6426-.2815-.9536-.4142a.3911.3911,0,0,0-.3787.1033c-.0531.4936-.1091.9683-.14,1.4752a2.9118,2.9118,0,0,1-.4435,1.3632,14.3438,14.3438,0,0,1-1.4429,3.3279c-.1739.3007-.3493.6-.5439.9036a6.4749,6.4749,0,0,0,.9109,1.0448,2.5414,2.5414,0,0,1,.9491.7576,1.3511,1.3511,0,0,0,.9845.647.3947.3947,0,0,1,.2078.398.9211.9211,0,0,0-.0412.4494c.0133.1577-.093.2211-.2771.2019a2.8646,2.8646,0,0,1-1.5342-.5879,8.8091,8.8091,0,0,0-1.4458-.91,1.1284,1.1284,0,0,1-.3671-.3021.3049.3049,0,0,0-.4126-.0486,3.54,3.54,0,0,0-1.4061,1.1909.5883.5883,0,0,0-.386.1649,1.3687,1.3687,0,0,1-1.272.0575,4.0658,4.0658,0,0,0-.9447-1.1981.8.8,0,0,0-.5438-.4642,1.0725,1.0725,0,0,1-.6147-.3272,1.0557,1.0557,0,0,1-.2593-.5468,10.6187,10.6187,0,0,1,.314-1.9557,17.6467,17.6467,0,0,1,1.8185-2.89,9.6156,9.6156,0,0,1-.1754-2.9136c.034-1.1319.04-2.2978-.0309-3.4458.0281-.1474.056-.2949.1-.4644l-.06-.0884.1768-.0177L42.66,113.9a1.2343,1.2343,0,0,1,1.2572.3272A3.64,3.64,0,0,0,44.6127,115.2Zm-1.6551,7.03a12.7368,12.7368,0,0,0-.8842,1.378A3.2468,3.2468,0,0,0,41.68,125.2a1.3006,1.3006,0,0,0-.143.8151,2.6764,2.6764,0,0,0,1.1363.3344.8088.8088,0,0,0,.97-.0721c.2727-.22.56-.4643.8106-.6986l.168-.2388A10.0422,10.0422,0,0,1,42.9576,122.23Zm4.5541-3.9689a6.8321,6.8321,0,0,0-2.1858,1.4826,5.7044,5.7044,0,0,0,.1578,1.9131c.1562.6293.2947,1.26.3905,1.8819a17.3237,17.3237,0,0,0,1.03-2.1723,13.8233,13.8233,0,0,1,.4274-1.54,3.8423,3.8423,0,0,0,.2566-1.583Z"/></g></g></svg>