<svg xmlns="http://www.w3.org/2000/svg" viewBox="0 0 30 24.0032"><defs><style>.cls-1{fill:#231815;}</style></defs><g id="レイヤー_2" data-name="レイヤー 2"><g id="_01" data-name="01"><g id="レイヤー_2-2" data-name="レイヤー 2"><g id="フッター"><path class="cls-1" d="M9.43,24A17.25,17.25,0,0,0,26.997,7.0732Q27,6.9168,27,6.76V5.98a12.3793,12.3793,0,0,0,3-3.14,12.6205,12.6205,0,0,1-3.53,1,6.09,6.09,0,0,0,2.7-3.4,12.21,12.21,0,0,1-3.91,1.47A6.21,6.21,0,0,0,20.77,0a6.1,6.1,0,0,0-6.15,6.05l0,.01a6.2854,6.2854,0,0,0,.15,1.38A17.53,17.53,0,0,1,2.09,1.11,5.9806,5.9806,0,0,0,4,9.2a6.1991,6.1991,0,0,1-2.78-.76.22.22,0,0,0,0,.08,6.1,6.1,0,0,0,4.94,5.94,6.1493,6.1493,0,0,1-1.62.21,6.3417,6.3417,0,0,1-1.16-.11,6.16,6.16,0,0,0,5.75,4.21,12.48,12.48,0,0,1-7.64,2.59A14.18,14.18,0,0,1,0,21.28,17.6,17.6,0,0,0,9.43,24"/></g></g></g></g></svg>