<svg xmlns="http://www.w3.org/2000/svg" viewBox="0 0 90 90"><defs><style>.cls-1{fill:#fff;}.cls-2,.cls-4{fill:#e83820;}.cls-3,.cls-5{fill:none;}.cls-3,.cls-4,.cls-5{stroke:#e83820;stroke-linecap:round;stroke-linejoin:round;}.cls-3,.cls-4{stroke-width:1.898px;}.cls-5{stroke-width:0.8px;}</style></defs><g id="レイヤー_2" data-name="レイヤー 2"><g id="_01" data-name="01"><circle class="cls-1" cx="45" cy="45" r="45"/><path class="cls-2" d="M53.3129,46.478l-2.536-4.392a2.6891,2.6891,0,0,1,.984-3.674l7.981-4.608a2.6893,2.6893,0,0,1,3.6749.985l2.5361,4.392a2.6906,2.6906,0,0,1-.986,3.675l-7.979,4.606a2.6886,2.6886,0,0,1-3.675-.984"/><path class="cls-3" d="M42.892,41.5942l-1.006,3.765a4.4752,4.4752,0,0,1-2.09,2.726l-13.874,8.01,2.831,4.902,13.873-8.009a4.4884,4.4884,0,0,1,3.407-.448l3.763,1.013a4.4881,4.4881,0,0,0,3.407-.447l19.475-11.244a4.4837,4.4837,0,0,0,1.6409-6.125l-3.737-6.473a4.4833,4.4833,0,0,0-6.125-1.641L44.982,38.8672A4.4841,4.4841,0,0,0,42.892,41.5942Z"/><path class="cls-4" d="M28.7533,60.9975l-2.777,1.604a2.8306,2.8306,0,1,1-2.83-4.903l2.776-1.603Z"/><path class="cls-5" d="M45.1,38.7993a13.75,13.75,0,0,0,1.921,8.383,13.7446,13.7446,0,0,0,6.3,5.855"/><path class="cls-5" d="M63.4086,28.229a13.75,13.75,0,0,1,6.3,5.855,13.751,13.751,0,0,1,1.921,8.383"/><line class="cls-3" x1="15.0795" y1="48.229" x2="19.4145" y2="51.253"/><line class="cls-3" x1="20.266" y1="44.4575" x2="22.66" y2="48.6035"/><line class="cls-3" x1="26.1254" y1="41.852" x2="26.5774" y2="47.118"/></g></g></svg>