<svg xmlns="http://www.w3.org/2000/svg" viewBox="0 0 90 90"><defs><style>.cls-1{fill:#fff;}.cls-2,.cls-4,.cls-5{fill:none;stroke:#e83820;stroke-linejoin:round;}.cls-2,.cls-4{stroke-linecap:round;}.cls-2,.cls-5{stroke-width:1.911px;}.cls-3{fill:#e83820;}.cls-4{stroke-width:1.944px;}</style></defs><g id="レイヤー_2" data-name="レイヤー 2"><g id="_01" data-name="01"><circle class="cls-1" cx="45" cy="45" r="45"/><path class="cls-2" d="M54.3735,53.53H43.7855a2.3155,2.3155,0,0,1,0-4.631h16.01"/><path class="cls-2" d="M54.3735,58.1605H40.0205a2.3155,2.3155,0,0,1,0-4.631H50.61"/><path class="cls-2" d="M52.4918,62.7913H42.6557a2.3155,2.3155,0,0,1,0-4.631h9.8361"/><path class="cls-2" d="M56.2563,62.7913H46.42a2.316,2.316,0,0,0,0,4.632h14.193c8.421,0,12.304-4.632,12.304-4.632h2.851"/><path class="cls-2" d="M60.22,47.4163l-3.668-3.668a2.7871,2.7871,0,0,1,3.942-3.941l9.726,9.725h5.548"/><path class="cls-2" d="M67.8,54.9964a7.58,7.58,0,0,1-7.58-7.58"/><path class="cls-3" d="M27.44,37.5824h-7.716v-2.273a.9037.9037,0,0,1,.904-.904h5.909a.9035.9035,0,0,1,.903.904Z"/><path class="cls-3" d="M29.6967,41.3988H17.4677v-4.042a.9024.9024,0,0,1,.902-.903h10.424a.9026.9026,0,0,1,.903.903Z"/><path class="cls-3" d="M27.44,30.5814h-7.716v-2.264a1.8057,1.8057,0,0,1,1.806-1.805h4.103a1.8059,1.8059,0,0,1,1.807,1.805Z"/><rect class="cls-3" x="22.3195" y="26.9239" width="2.526" height="8.61"/><polygon class="cls-4" points="29.697 41.399 17.468 41.399 14.232 44.937 14.232 67.423 32.932 67.423 32.932 44.937 29.697 41.399"/><polyline class="cls-5" points="27.1 28.773 36.486 28.773 38.49 30.777"/><rect class="cls-3" x="14.2324" y="48.2939" width="18.7" height="12.357"/><path class="cls-3" d="M37.3824,37.2279a.9269.9269,0,0,1-.68-.28.9945.9945,0,0,1-.21-.3.9261.9261,0,0,1-.07-.37.9492.9492,0,0,1,1.32-.88.7938.7938,0,0,1,.31.2.97.97,0,0,1,.28.68.9683.9683,0,0,1-.59.88A.8929.8929,0,0,1,37.3824,37.2279Z"/><path class="cls-3" d="M39.3423,42.7376a.9631.9631,0,0,1,.46-1.27h0a.9448.9448,0,0,1,1.27.46h0a.9449.9449,0,0,1-.46,1.27h0a.9249.9249,0,0,1-.3994.09h0A.9806.9806,0,0,1,39.3423,42.7376Zm-1.41-3.03a.95.95,0,0,1,.46-1.27h0a.955.955,0,0,1,1.27.46h0a.9631.9631,0,0,1-.46,1.27h0a.9748.9748,0,0,1-.41.0908h0A.9382.9382,0,0,1,37.9322,39.7074Z"/><path class="cls-3" d="M41.6226,46.3177a.9045.9045,0,0,1-.36-.08.7874.7874,0,0,1-.31-.2.9489.9489,0,0,1-.28-.68.9265.9265,0,0,1,.28-.67.94.94,0,0,1,.31-.21.9216.9216,0,0,1,.73,0,.9494.9494,0,0,1,.31.21.9305.9305,0,0,1,.28.67.9531.9531,0,0,1-.28.68.7938.7938,0,0,1-.31.2A.9146.9146,0,0,1,41.6226,46.3177Z"/><path class="cls-3" d="M40.5718,34.0374a.9647.9647,0,0,1-.89-.59,1.1,1.1,0,0,1-.07-.36.9431.9431,0,0,1,.08-.3691.7916.7916,0,0,1,.2-.3106.9428.9428,0,0,1,.86-.26.7905.7905,0,0,1,.18.05c.06.03.12.06.17.09a1.8118,1.8118,0,0,1,.1406.12.96.96,0,0,1,.21.3106.9328.9328,0,0,1,.0693.3691.8941.8941,0,0,1-.0693.36.9688.9688,0,0,1-.21.31A.95.95,0,0,1,40.5718,34.0374Z"/><path class="cls-3" d="M48.6519,42.5179a.96.96,0,0,1,0-1.3506h0a.9427.9427,0,0,1,1.3506,0h0a.96.96,0,0,1,0,1.3506h0a.9261.9261,0,0,1-.67.2793h0A.9485.9485,0,0,1,48.6519,42.5179Zm-2.1894-2.19a.9588.9588,0,0,1,0-1.35h0a.9588.9588,0,0,1,1.35,0h0a.9415.9415,0,0,1,0,1.35h0a.92.92,0,0,1-.67.28h0A.9419.9419,0,0,1,46.4625,40.3275Zm-2.19-2.19a.96.96,0,0,1,0-1.3506h0a.96.96,0,0,1,1.3506,0h0a.9427.9427,0,0,1,0,1.3506h0a.9258.9258,0,0,1-.67.2793h0A.9487.9487,0,0,1,44.272,38.138Zm-2.1894-2.19a.959.959,0,0,1,0-1.35h0a.959.959,0,0,1,1.35,0h0a.9415.9415,0,0,1,0,1.35h0a.92.92,0,0,1-.67.28h0A.942.942,0,0,1,42.0826,35.9476Z"/><path class="cls-3" d="M51.522,44.9876a.9575.9575,0,0,1-.37-1.84,1.0229,1.0229,0,0,1,.73,0,.9565.9565,0,0,1-.36,1.84Z"/><path class="cls-3" d="M43.7623,30.848a1.1579,1.1579,0,0,1-.37-.07,1.0527,1.0527,0,0,1-.31-.21.9221.9221,0,0,1-.2-.31.9416.9416,0,0,1-.07-.37.9475.9475,0,0,1,1.62-.67.94.94,0,0,1,.29.67.9513.9513,0,0,1-.08.37.82.82,0,0,1-.21.31A.9144.9144,0,0,1,43.7623,30.848Z"/><path class="cls-3" d="M52.3521,34.9681a.9707.9707,0,0,1-.46-1.27h0a.9534.9534,0,0,1,1.27-.46h0a.9473.9473,0,0,1,.46,1.27h0a.9552.9552,0,0,1-.86.55h0A.9857.9857,0,0,1,52.3521,34.9681Zm-2.99-1.41a.96.96,0,0,1-.47-1.27h0a.97.97,0,0,1,1.27-.46h0a.966.966,0,0,1,.47,1.27h0a.9631.9631,0,0,1-.87.55h0A.8187.8187,0,0,1,49.3619,33.5579Zm-3-1.4a.9586.9586,0,0,1-.47-1.2695h0a.96.96,0,0,1,1.27-.46h0a.9587.9587,0,0,1,.47,1.27h0a.9631.9631,0,0,1-.87.55h0A.93.93,0,0,1,46.3619,32.1575Z"/><path class="cls-3" d="M55.7623,36.4574a.9525.9525,0,0,1-.68-.2793.7988.7988,0,0,1-.2-.3106.9.9,0,0,1-.08-.3594.9479.9479,0,0,1,.08-.37.9171.9171,0,0,1,.2-.31,1.0507,1.0507,0,0,1,.31-.21,1.0237,1.0237,0,0,1,.73,0,.8485.8485,0,0,1,.31.21.93.93,0,0,1,.28.6806.89.89,0,0,1-.07.3594.9576.9576,0,0,1-.21.3106A.9468.9468,0,0,1,55.7623,36.4574Z"/><path class="cls-3" d="M56.9721,28.2777a.2136.2136,0,0,1-.215-.199,2.4237,2.4237,0,0,0-2.433-2.436.2154.2154,0,0,1,0-.43,2.4244,2.4244,0,0,0,2.433-2.436.216.216,0,0,1,.4309,0,2.4245,2.4245,0,0,0,2.4331,2.436.2154.2154,0,0,1,0,.43,2.4239,2.4239,0,0,0-2.4331,2.436.2145.2145,0,0,1-.2159.199"/><path class="cls-3" d="M65.7534,36.9388a.4286.4286,0,0,1-.431-.399,4.8543,4.8543,0,0,0-4.875-4.88.433.433,0,0,1,0-.864,4.8533,4.8533,0,0,0,4.875-4.878.4327.4327,0,0,1,.863,0,4.8527,4.8527,0,0,0,4.875,4.878.433.433,0,0,1,0,.864,4.8537,4.8537,0,0,0-4.875,4.88.4288.4288,0,0,1-.432.399"/></g></g></svg>