<svg xmlns="http://www.w3.org/2000/svg" viewBox="0 0 90 90"><defs><style>.cls-1{fill:#fff;}.cls-2{fill:#e83820;}</style></defs><g id="レイヤー_2" data-name="レイヤー 2"><g id="_01" data-name="01"><circle class="cls-1" cx="45" cy="45" r="45"/><path class="cls-2" d="M23.7372,42.5974l-3.6181,3.619L16.5,42.5974a6.6585,6.6585,0,0,0-3.0359,5.572v11.624H26.7731V48.1694a6.6611,6.6611,0,0,0-3.0359-5.572"/><path class="cls-2" d="M26.0438,36.1316a5.9255,5.9255,0,1,1-5.925-5.925,5.9249,5.9249,0,0,1,5.925,5.925"/><path class="cls-2" d="M73.5,42.5974l-3.6181,3.619-3.6179-3.619a6.6561,6.6561,0,0,0-3.0361,5.572v11.624h13.308V48.1694A6.6585,6.6585,0,0,0,73.5,42.5974"/><path class="cls-2" d="M75.8075,36.1316a5.9261,5.9261,0,1,1-5.926-5.925,5.9258,5.9258,0,0,1,5.926,5.925"/><polygon class="cls-2" points="34.825 53.854 31.727 48.169 34.825 42.486 32.949 42.486 29.851 48.169 32.949 53.854 34.825 53.854"/><polygon class="cls-2" points="45 42.486 36.701 42.486 33.604 48.17 36.701 53.854 45 53.854 45 42.486"/><polygon class="cls-2" points="55.176 53.854 58.274 48.169 55.176 42.486 57.052 42.486 60.15 48.169 57.052 53.854 55.176 53.854"/><polygon class="cls-2" points="45 42.486 53.299 42.486 56.396 48.17 53.299 53.854 45 53.854 45 42.486"/></g></g></svg>