<svg xmlns="http://www.w3.org/2000/svg" viewBox="0 0 90 90"><defs><style>.cls-1{fill:#fff;}.cls-2,.cls-3{fill:none;stroke:#e83820;stroke-linecap:round;stroke-linejoin:round;}.cls-2{stroke-width:1.886px;}.cls-3{stroke-width:0.943px;}</style></defs><g id="レイヤー_2" data-name="レイヤー 2"><g id="_01" data-name="01"><circle class="cls-1" cx="45" cy="45" r="45"/><rect class="cls-2" x="24.6183" y="30.7778" width="40.762" height="28.445"/><line class="cls-3" x1="29.0742" y1="59.2225" x2="29.0742" y2="30.7775"/><line class="cls-3" x1="60.9258" y1="30.7772" x2="60.9258" y2="59.2222"/><path class="cls-3" d="M29.0742,42.55,43.51,41.3377a17.8633,17.8633,0,0,1,2.98,0l14.436,1.212"/><path class="cls-3" d="M29.0742,36.98l14.9309-.835a17.8719,17.8719,0,0,1,1.9911,0l14.93.835"/><path class="cls-3" d="M29.0742,47.45,43.51,48.6621a17.8633,17.8633,0,0,0,2.98,0l14.436-1.212"/><path class="cls-3" d="M29.0742,53.0184l14.9309.836a17.8719,17.8719,0,0,0,1.9911,0l14.93-.836"/><path class="cls-2" d="M65.3809,32.5594S77.39,31.83,77.39,41.3814c0,11.861-12.0089,16.059-12.0089,16.059"/><path class="cls-2" d="M24.6192,32.5594S12.61,31.83,12.61,41.3814c0,11.861,12.009,16.059,12.009,16.059"/></g></g></svg>