<svg xmlns="http://www.w3.org/2000/svg" viewBox="0 0 254.9795 43.2031"><defs><style>.cls-1{fill:#e83820;}</style></defs><g id="レイヤー_2" data-name="レイヤー 2"><g id="_01" data-name="01"><path class="cls-1" d="M9.937,6c-3.36,1.584-5.04,3.6963-5.0884,6.9131a2.3413,2.3413,0,0,1,.5762-.0479A4.1469,4.1469,0,0,1,9.793,17.0889a4.3161,4.3161,0,0,1-4.3682,4.6572C1.8242,21.7461,0,19.01,0,14.3047c0-5.28,2.6406-9.36,8.0649-12.0488ZM23.3784,6c-3.36,1.584-5.04,3.6963-5.0888,6.9131a2.3441,2.3441,0,0,1,.5761-.0479,4.147,4.147,0,0,1,4.3687,4.2237,4.3165,4.3165,0,0,1-4.3687,4.6572c-3.6,0-5.4243-2.7363-5.4243-7.4414,0-5.28,2.64-9.36,8.0645-12.0488Z"/><path class="cls-1" d="M67.8276,40.3711a36.9315,36.9315,0,0,0-8.497-6.1924v.96c0,4.4648-3.6,7.4892-9.8887,7.4892-8.0166,0-12.1929-3.1689-12.1929-8.4492,0-5.0889,4.56-8.6885,12.145-8.6885.7681,0,1.5362.0479,2.3042.0957l-.144-3.1679H49.25c-2.5444,0-8.1128-.24-11.1372-.6241l.0483-6.7685a76.2646,76.2646,0,0,0,11.1851.9121H51.458l.0483-3.8887H49.25a73.6737,73.6737,0,0,1-9.8408-.72L39.3608,4.8a59.569,59.569,0,0,0,9.8413.9121h2.3521V4.08A22.8531,22.8531,0,0,0,51.2661.624H59.043c-.1441,1.0078-.2881,2.3516-.3365,3.4561l-.0478,1.44A107.5959,107.5959,0,0,0,69.5078,4.3682l.1441,6.5761c-2.8326.2881-6.5289.6729-11.0889.8643l-.0484,3.9365c4.8965-.24,8.689-.6719,12.3375-1.1045L70.9,21.4092c-4.1763.4326-7.6807.7207-12.2412.8642.0962,1.4883.1919,3.0723.2881,4.6084a37.3179,37.3179,0,0,1,13.0093,7.0567ZM51.9863,31.6826a21.68,21.68,0,0,0-3.5522-.2881c-2.6406,0-4.1768,1.0078-4.1768,2.3526,0,1.584,1.5845,2.3994,4.0327,2.3994s3.7442-.6719,3.7442-3.12C52.0342,32.69,52.0342,32.2588,51.9863,31.6826Z"/><path class="cls-1" d="M95.9062,1.6318c-.3364,2.2559-.6245,5.1368-.72,7.2012-.24,4.9922-.5761,15.2647-.5761,20.4971,0,4.56,2.64,6.001,5.8564,6.001,7.3926,0,12.3853-4.32,15.8413-9.6495l5.2324,6.4327a25.2119,25.2119,0,0,1-21.1215,11.0888c-8.3047,0-13.4893-3.7441-13.4893-12.0488,0-6,.4321-18.7217.4321-22.3213a34.8228,34.8228,0,0,0-.72-7.2969Zm16.3213,11.4248-5.1367,2.208a43.6564,43.6564,0,0,0-4.3681-7.872l4.9921-2.0645A80.48,80.48,0,0,1,112.2275,13.0566Zm6.7207-2.9755-4.9926,2.3994a47.2315,47.2315,0,0,0-4.6084-7.6319l4.9443-2.2568A66.1363,66.1363,0,0,1,118.9482,10.0811Z"/><path class="cls-1" d="M161.2354,8.4c7.3447,1.8721,12.2412,7.9687,12.2412,16.418,0,10.416-7.441,16.2246-17.1856,17.7607l-4.4165-6.6719C162.6274,34.9951,165.94,29.57,165.94,24.4336c0-4.752-2.4-8.3047-6.48-9.6484a58.3312,58.3312,0,0,1-6.0967,14.4013,31.1481,31.1481,0,0,0,2.4,2.5918l-5.8086,4.6084-1.2481-1.4394c-3.3125,3.456-5.8086,4.6084-9.3129,4.6084-4.1285,0-8.1128-3.5049-8.1128-9.9854a21.5064,21.5064,0,0,1,6.8164-15.2168c-.3838-1.1523-.7676-2.3525-1.1519-3.5527a37.72,37.72,0,0,0-2.1123-5.28L142.37,3.168c.2881,1.7285.6724,3.3125,1.0562,4.7529.24.8154.48,1.6318.72,2.4961a27.5027,27.5027,0,0,1,9.9849-2.5928c.0962-.5762.1919-1.1035.288-1.6318a28.3765,28.3765,0,0,0,.3838-5.04l7.9688.7676c-.4321,1.3926-.96,4.08-1.2959,5.4248ZM144.4819,29.33a55.2019,55.2019,0,0,1-3.84-8.0645,13.6633,13.6633,0,0,0-2.5923,7.6807c0,1.8721.7681,3.12,2.2085,3.12C141.6016,32.0664,142.9937,31.0586,144.4819,29.33ZM146.21,16.6094a49.5172,49.5172,0,0,0,2.6884,6.24,54.0226,54.0226,0,0,0,3.5044-8.4482A18.187,18.187,0,0,0,146.21,16.6094Z"/><path class="cls-1" d="M219.9414,11.7607c-2.208.6241-4.8,1.2959-7.5845,1.8721,1.7759,3.8408,3.8882,7.8731,6.0005,11.5215l-3.9844,4.32c-2.88-.5762-7.5849-1.3926-11.3769-1.8721l.624-5.9052c1.4878.1445,3.648.3359,4.9922.3847-1.0078-2.0644-2.3042-4.5605-3.5522-7.249a110.8306,110.8306,0,0,1-19.97-.0478L184.85,7.44a82.9248,82.9248,0,0,0,17.1855.5762l-.72-1.584a29.25,29.25,0,0,0-2.5444-4.8486L206.9321,0a69.8227,69.8227,0,0,0,2.5445,6.96,70.22,70.22,0,0,0,9.1206-2.3995Zm-25.49,12.5772a21.3927,21.3927,0,0,0-1.2959,5.52c0,3.0723,1.1518,5.28,7.6806,5.28a56.1267,56.1267,0,0,0,13.2007-1.3916l-.1435,7.584a67.3089,67.3089,0,0,1-13.0572,1.2c-9.937,0-15.2172-3.6484-15.2172-10.6562a37.4809,37.4809,0,0,1,1.3437-8.1133Z"/><path class="cls-1" d="M231.6016,17.2334c3.36-1.6318,4.9922-3.6963,5.04-6.9609a1.6392,1.6392,0,0,1-.48.0478,4.16,4.16,0,0,1-4.416-4.2236,4.26,4.26,0,0,1,4.416-4.6084c3.5044,0,5.3765,2.7363,5.3765,7.44,0,5.28-2.64,9.36-8.1128,12.001Zm13.4409,0c3.36-1.6318,4.9927-3.6963,5.0405-6.9609a1.6392,1.6392,0,0,1-.48.0478,4.16,4.16,0,0,1-4.4165-4.2236,4.2607,4.2607,0,0,1,4.4165-4.6084c3.5044,0,5.3765,2.7363,5.3765,7.44,0,5.28-2.64,9.36-8.1128,12.001Z"/></g></g></svg>