<svg xmlns="http://www.w3.org/2000/svg" viewBox="0 0 777.0936 298.4138"><defs><style>.cls-1,.cls-13,.cls-18,.cls-21,.cls-3,.cls-5,.cls-9{fill:#fff;}.cls-11,.cls-12,.cls-15,.cls-16,.cls-2,.cls-20,.cls-4{fill:none;}.cls-10,.cls-11,.cls-12,.cls-13,.cls-14,.cls-15,.cls-16,.cls-18,.cls-19,.cls-2,.cls-20,.cls-21,.cls-3,.cls-4,.cls-5,.cls-6,.cls-7,.cls-9{stroke:#191919;}.cls-10,.cls-11,.cls-12,.cls-15,.cls-16,.cls-18,.cls-19,.cls-2,.cls-20,.cls-21,.cls-3,.cls-4,.cls-5,.cls-6,.cls-7,.cls-9{stroke-linecap:round;}.cls-10,.cls-12,.cls-15,.cls-18,.cls-19,.cls-2,.cls-20,.cls-21,.cls-3,.cls-4,.cls-5,.cls-6,.cls-7,.cls-9{stroke-linejoin:round;}.cls-10,.cls-16,.cls-2,.cls-5,.cls-7{stroke-width:1.9335px;}.cls-3{stroke-width:1.949px;}.cls-4{stroke-width:1.8547px;}.cls-14,.cls-17,.cls-19,.cls-6,.cls-7{fill:#ea5a4e;}.cls-6{stroke-width:1.8558px;}.cls-10,.cls-8{fill:#191919;}.cls-11,.cls-12,.cls-13,.cls-14,.cls-18,.cls-19,.cls-9{stroke-width:1.4501px;}.cls-11,.cls-13,.cls-14,.cls-16{stroke-miterlimit:10;}.cls-15{stroke-width:1.8369px;}.cls-18{fill-rule:evenodd;}.cls-20{stroke-width:2.2543px;}.cls-21{stroke-width:1.813px;}</style></defs><g id="レイヤー_2" data-name="レイヤー 2"><g id="_02" data-name="02"><path class="cls-1" d="M439.8481,162.7172s-14.027.1946-18.47,22.53l-2.2169,32.6112-.3955,28.5042s12.3886,13.8129,25.84,1.8334c0,0,2.8132-44.0269,4.6225-66.3623Z"/><path class="cls-2" d="M435.9649,164.089s-18.4277,2.9179-16.2749,45.9922"/><path class="cls-1" d="M550.3281,163.07s13.1036-1.0769,18.0859,26.8557c4.736,26.5519-1.5139,61.9474-1.5139,61.9474s-7.8783,8.6551-21.33-3.3244c0,0-2.813-44.0271-4.6225-66.3624Z"/><path class="cls-2" d="M556.458,164.7128s19.2385,5.5382,11.7466,82.3065"/><polygon class="cls-1" points="544.687 298.113 448.303 298.113 444.975 189.683 440.026 162.717 496.366 141.568 551.627 162.912 547.352 188.501 544.687 298.113"/><path class="cls-3" d="M513.6407,142.7154c0,2.4989-7.6492,4.5245-17.323,4.5245s-17.5156-2.0256-17.5156-4.5245,7.466-4.206,17.14-4.206S513.6407,140.2166,513.6407,142.7154Z"/><polygon class="cls-1" points="509.935 157.35 495.737 157.35 481.718 157.35 481.718 127.383 509.935 127.383 509.935 157.35"/><polyline class="cls-2" points="481.718 154.764 481.718 127.383 509.935 127.383 509.935 154.764"/><path class="cls-1" d="M516.96,155.6471s-14.09,5.0282-21.87,5.0282-21.1612-5.5545-21.1612-5.5545l4.2922-11.9652s10.0513,5.7265,17.2237,5.9935c6.7129.25,18.245-5.9935,18.245-5.9935Z"/><path class="cls-2" d="M473.2312,150.6518l3.4989-1.4436,1.9282-6.0526s6.1468,5.9979,17.1208,5.9979a32.0624,32.0624,0,0,0,17.9107-5.9979l1.296,6.0492,3.8734,1.6614"/><line class="cls-2" x1="495.7367" y1="149.1535" x2="495.7367" y2="156.4983"/><path class="cls-2" d="M485.337,160.3556s8.346,7.0038,20.3928-.0364"/><path class="cls-4" d="M465.4641,165.0729s13.3945,8.2478,41.4607,1.08"/><path class="cls-2" d="M470.9733,151.5135s-21.2933,8.8086-31.7776,11.6232"/><path class="cls-2" d="M446.7509,198.5107s1.1343,68.5269.6613,98.3181"/><path class="cls-2" d="M521.31,151.3392s22.5167,9.8332,32.8369,12.0935"/><path class="cls-2" d="M545.8416,194.6215s-1.7557,72.4161-1.2829,102.2073"/><path class="cls-5" d="M476.73,174.4187a4.33,4.33,0,1,1-4.33-4.33A4.33,4.33,0,0,1,476.73,174.4187Z"/><path class="cls-5" d="M476.73,198.5107a4.33,4.33,0,1,1-4.33-4.33A4.33,4.33,0,0,1,476.73,198.5107Z"/><path class="cls-5" d="M476.73,226.0916a4.33,4.33,0,1,1-4.33-4.33A4.33,4.33,0,0,1,476.73,226.0916Z"/><path class="cls-5" d="M476.73,253.5389a4.33,4.33,0,1,1-4.33-4.33A4.33,4.33,0,0,1,476.73,253.5389Z"/><path class="cls-5" d="M477.0769,282.7991a4.33,4.33,0,1,1-4.33-4.33A4.33,4.33,0,0,1,477.0769,282.7991Z"/><path class="cls-5" d="M516.1215,174.4187a4.33,4.33,0,1,0,4.33-4.33A4.33,4.33,0,0,0,516.1215,174.4187Z"/><path class="cls-5" d="M516.1215,198.5107a4.33,4.33,0,1,0,4.33-4.33A4.33,4.33,0,0,0,516.1215,198.5107Z"/><path class="cls-5" d="M516.1215,226.0916a4.33,4.33,0,1,0,4.33-4.33A4.33,4.33,0,0,0,516.1215,226.0916Z"/><path class="cls-5" d="M516.1215,253.5389a4.33,4.33,0,1,0,4.33-4.33A4.33,4.33,0,0,0,516.1215,253.5389Z"/><path class="cls-5" d="M515.7745,282.7991a4.33,4.33,0,1,0,4.33-4.33A4.33,4.33,0,0,0,515.7745,282.7991Z"/><path class="cls-4" d="M463.1,167.0666V296.8288"/><polygon class="cls-6" points="500.201 180.497 506.36 214.902 497 222.871 488.36 217.079 491.013 180.497 500.201 180.497"/><polygon class="cls-6" points="491.379 176.745 487.97 211.626 496.669 215.81 503.629 211.649 500.343 176.745 495.805 174.752 491.379 176.745"/><path class="cls-7" d="M481.1015,135.6119s-4.17,4.0982-5.9833,8.1177a34.1679,34.1679,0,0,0-2.3314,9.0634s9.0725,17.0665,18.2038,13.8762l4.8709-3.2365S482.6558,151.2166,481.1015,135.6119Z"/><path class="cls-7" d="M511.1543,135.6119s3.9857,4.177,5.4752,7.7235a61.8171,61.8171,0,0,1,2.6962,9.7729s-9.9577,16.4637-18.9925,14.8677l-4.4717-4.5433S509.6,151.2166,511.1543,135.6119Z"/><path class="cls-6" d="M500.3434,176.7448a16.9711,16.9711,0,0,0-4.26-.7078,23.1449,23.1449,0,0,0-4.7036.7078l-1.0779-10.4a6.8227,6.8227,0,0,1,5.56-2.9123,6.5043,6.5043,0,0,1,5.4463,2.9123Z"/><path class="cls-2" d="M485.259,158.7039s2.1279,5.7336,6.2025,6.369"/><path class="cls-2" d="M506.73,158.7039s-2.1279,5.7336-6.2024,6.369"/><path class="cls-2" d="M496.7852,176.7448s1.27,14.5874-2.3644,8.8343"/><path class="cls-5" d="M473.99,105.7892c1.4594,4.382,4.523,11.9905.48,13.3371s-8.4036-.3358-12.3029-8.8258c-1.9276-4.1973-.2831-9.7737,3.76-11.12S472.53,101.407,473.99,105.7892Z"/><path class="cls-5" d="M518.3856,105.7892c-1.4595,4.382-4.523,11.9905-.48,13.3371s8.4036-.3358,12.3028-8.8258c1.9276-4.1973.2831-9.7737-3.76-11.12S519.845,101.407,518.3856,105.7892Z"/><path class="cls-1" d="M523.201,91.5666c-.3968,24.0814-5.5637,49.8954-27.2218,49.8954-23.049,0-27.2218-29.1439-27.2218-49.8954s12.923-35.3718,27.9571-35.3718S523.5427,70.8187,523.201,91.5666Z"/><path class="cls-2" d="M469.3155,104.0924s1.0514,33.8794,24.695,37.2951"/><path class="cls-2" d="M521.7191,104.0924s-.4735,33.954-24.1172,37.37"/><ellipse class="cls-8" cx="507.9271" cy="105.0466" rx="2.4529" ry="2.6748"/><ellipse class="cls-8" cx="484.0384" cy="105.0466" rx="2.4529" ry="2.6748"/><path class="cls-2" d="M488.1744,97.0051s-4.7468-3.5948-10.4288,1.134"/><path class="cls-2" d="M503.5907,97.0051s4.7468-3.5948,10.4288,1.134"/><line class="cls-2" x1="496.0258" y1="117.6556" x2="496.0258" y2="119.132"/><path class="cls-9" d="M502.48,124.5113c-1.36,2.6585-3.4641,5.6127-6.3409,5.7391-3.7607.1652-6.506-5.6769-6.506-5.6769s1.2382.0811,6.4234.0512S502.48,124.5113,502.48,124.5113Z"/><path class="cls-10" d="M464.7427,80.6444c0-6.6286,2.2353-10.2479,5.1345-13.8637,4.9058-6.1186,8.7718-5.42,13.0829-5.42,5.2143-7.6206,15.9141-9.3314,25.8449-6.505,6.9039,1.9649,8.1709,6.2042,11.4013,10.6619,4.8058,6.6325,6.5247,9.3592,6.5247,14.0086,0,9.6727-.7726,17.1074-3.8832,20.501-.3574.39-1.6379-5.0582-4.6873-13.9052-5.6612-13.1038-17.94-13.3939-26.4809-12.9251-6.424.3525-12.533,5.3994-15.7342,8.7481-4.1283,4.7707-6.3674,19.0738-6.661,18.7534C466.1734,97.3045,464.7427,90.3169,464.7427,80.6444Z"/><path class="cls-2" d="M482.901,61.291a17.8958,17.8958,0,0,1,2.64,9.238"/><path class="cls-2" d="M484.7962,65.6012s-5.2755-.7843-8.8508,2.4429"/><path class="cls-2" d="M498.221,65.2355s-6.0983-3.2583-12.1963,2.201"/><path class="cls-2" d="M493.7109,59.14a10.11,10.11,0,0,0-9.169,4.2945"/><path class="cls-5" d="M526.3594,92.5863S514.332,89.05,496.1083,88.7349s-30.6711,3.8514-30.6711,3.8514-1.9028-11.2755-1.2052-17.7882,3.9359-67.7348,3.9359-67.7348,6.8868-6.0965,28.9-6.0965,27.121,6.0965,27.121,6.0965,2.73,64.9455,3.1321,67.7348S526.3594,92.5863,526.3594,92.5863Z"/><line class="cls-2" x1="477.8844" y1="7.9022" x2="475.3026" y2="61.8466"/><line class="cls-2" x1="515.8541" y1="7.9022" x2="517.4017" y2="61.8466"/><path class="cls-2" d="M470.8552,70.7712s21.3022-5.4823,50.5061,0"/><line class="cls-2" x1="496.1083" y1="7.0536" x2="496.1083" y2="60.9473"/><path class="cls-5" d="M447.9743,233.8656c.607,17.3083-2.5162,28.1019-12.8,26.9984-8.5653-.9189-20.7961-3.2736-17.8326-35.6555.4491-4.9077,6.6715,2.1305,15.286,2.1305S447.1665,210.8256,447.9743,233.8656Z"/><path class="cls-5" d="M447.45,217.0444c0-.0625-.06-.1336-.0672-.1973a30.9618,30.9618,0,0,0-4.4114-4.8675c-3.0271-2.1442-6.552-2.9962-12.3665-2.9962-6.0712,0-10.7782,1.1641-13.7433,3.4692-1.5784,1.2274-3.102,3.0451-3.102,4.5918,0,.2962.5581,4.4781,1.0368,9.7769s.5145,7.1533.5145,7.1533c6.2664,3.7214,12.1252,7.8842,17.106,7.3441,9.3627-1.0159,15.6172-10.133,15.6172-10.133S447.45,217.1208,447.45,217.0444Z"/><path class="cls-5" d="M444.2387,221.3118s-4.02,4.2859-11.8219,4.78-11.8218-3.2822-11.8218-3.2822l2.35-21.2563,16.8-.3983Z"/><path class="cls-5" d="M432.601,162.3857c.1755,3.1876-1.0983,4.9092-3.2156,5.0258s-3.9587-1.6767-4.1343-4.8643,1.3267-7.1722,3.4441-7.2888S432.4254,159.1981,432.601,162.3857Z"/><path class="cls-11" d="M405.5189,97.5719c-2.4527-1.02-5.2727.1626-7.09,2.0731-2.1682,2.2792-2.5019,5.9676-2.3577,8.9223.6913,14.1716,18.554,28.8382,21.5161,34.05l5.55,15.9746"/><path class="cls-11" d="M403.6072,97.1777c-14.6423,3.5939,11.8465,39.6629,13.7841,44.1164l6.55,17.5673"/><path class="cls-11" d="M404.9159,97.37c11.0254,14.9124,11.8988,39.2212,12.8245,43.6841,0,0,6.29,14.4658,6.6357,17.0248"/><path class="cls-11" d="M405.1905,97.2535c3.5391-1.98,8.5359.9811,10.6941,3.9769,4.9636,6.89,4.2234,16.5529,4.15,24.6836-.0457,5.0436-.1592,10.8061-1.4847,15.7623l5.5984,16.876"/><path class="cls-12" d="M398.1134,100.0415c-5.5859.64-5.4576,7.3158-4.8179,11.6266.9936,6.6975,7.03,15.258,11.9251,19.861,4.7963,4.51,6.8579,6.1882,11.6907,11.1764l6.6367,16.6088"/><path class="cls-13" d="M420.605,146.8573h2.79a.9484.9484,0,0,1,.9484.9484v12.8312a.9485.9485,0,0,1-.9485.9485h-2.7893a.9484.9484,0,0,1-.9484-.9484V147.8056a.9483.9483,0,0,1,.9483-.9483Z" transform="translate(871.2572 160.2012) rotate(160.6876)"/><path class="cls-14" d="M427.7189,157.6361l3.0842,8.8019a1.5061,1.5061,0,0,1-.9235,1.9195l-5.0722,1.7775a1.5066,1.5066,0,0,1-1.92-.9236l-3.0841-8.8016c-.831-2.5783.8565-3.5533,2.7781-4.2433C424.6437,155.4259,427.0053,155.147,427.7189,157.6361Z"/><path class="cls-11" d="M417.925,142.3682s5.8442-35.5064-12.12-44.9358"/><line class="cls-11" x1="418.22" y1="142.4224" x2="402.1227" y2="98.1709"/><path class="cls-5" d="M443.2476,179.9005c.2634,4.1289-1.6707,14.1417-5.0082,13.8986s-9.4517-10.1684-8.9846-16.5828,3.19-10.0309,6.527-9.7881S442.8383,173.4818,443.2476,179.9005Z"/><path class="cls-1" d="M440.85,195.9676c1.0474-3.8513-.2748-5.4391-.2748-5.4391a3.8679,3.8679,0,0,0-.2279-4.1482s-.535-3.8542-2.27-3.8849c2.1636.9122,2.7662-1.799,2.4535-3.022,0,0-.6682-3.3773-3.4038-3.3451l.3877-.1986c4.152.2466,1.01-6.6272-1.1362-6.5292,3.9012-.9672,1.6014-4.3608-.9782-5.4173l-3.7916-1.5313c-.9564-.2867-9.2942,3.6276-10.2105,4.3774-2.0826,1.7048-2.7907,1.7222-3.6782,4.2227a10.1717,10.1717,0,0,0-.5,4.7123c.1566,1.5588-.2628,4.8615-.0612,6.57.1592,1.3416,1.6887,3.5137,1.9252,4.8429.18,1.0176.7623,2.7248.9751,3.7132a112.6915,112.6915,0,0,0,3.2824,11.8563l8.7523,2.8613,7.919-3.5751A26.7859,26.7859,0,0,1,440.85,195.9676Z"/><path class="cls-2" d="M440.0126,202.0333a26.2315,26.2315,0,0,1,.8376-5.9937c1.0474-3.8513-.2748-5.4391-.2748-5.4391a7.7446,7.7446,0,0,0,1.0449-4.7877s-1.8078-3.2149-3.5431-3.2454c2.1636.9119,2.7662-1.7991,2.4535-3.022,0,0-.6682-3.3773-3.4038-3.3452l.3877-.1986c4.152.2467,1.01-6.6271-1.1362-6.5291,3.9012-.9674,1.6014-4.3608-.9782-5.4173l-3.7916-1.5315c-.9564-.2865-9.2942,3.6278-10.2105,4.3775-2.0826,1.7049-2.7907,1.7223-3.6782,4.2228a10.1712,10.1712,0,0,0-.5,4.7123c.1566,1.5587-.2628,4.8613-.0612,6.57.1592,1.3415,1.6887,3.5137,1.9252,4.8429.18,1.0176.7623,2.7248.9751,3.7132,1.3684,6.3589,2.8317,11.7843,2.8317,11.7843"/><path class="cls-2" d="M427.14,184.444h2.9909s4.5651-2.1694,7.8123-1.9547"/><path class="cls-2" d="M425.3712,178.2847l1.8929-.1954s6.3489-2.8742,9.8438-2.0279"/><path class="cls-2" d="M423.9409,171.5284a4.6682,4.6682,0,0,0,2.1032-.1059c2.3595-.8977,7.0618-2.49,9.603-2.0023"/><path class="cls-2" d="M437.5565,187.91l-.7751.6013s-3.7458,2.3136-6.1625,1.7c0,0,3.671-1.21,5.1951,4.6936"/><path class="cls-2" d="M435.1747,190.6613s.7909,2.2329,3.4587.7969"/><path class="cls-14" d="M440.6122,195.3085l-3.1781-6.83c-.2075-.5969-1.2252.22-3.2369.9308-1.94.6862-3.8283.6961-3.6282,1.2723l2.1211,7.38C434.193,201.9651,441.8131,198.3841,440.6122,195.3085Zm-4.57,1.5184a1.5041,1.5041,0,1,1,1.6-1.4011A1.504,1.504,0,0,1,436.0418,196.8269Z"/><path class="cls-2" d="M417.8478,218.6006s.3144,3.3579,4.9888,5.6786"/><path class="cls-2" d="M444.2387,221.3118a6.8167,6.8167,0,0,0,2.7138-5.0275"/><path class="cls-2" d="M554.9737,196.74s-2.2987,18.3755-7.8,31.5763"/><path class="cls-5" d="M532.3274,239.5531c-3.892,3.26-7.76,10.2526-9.55,8.1167s.4351-14.8265,3.5433-18.8409c3.5391-4.5711,10.2616-8.0242,12.0509-5.8884S536.2192,236.2926,532.3274,239.5531Z"/><path class="cls-5" d="M519.2281,214.8238c.3076,2.6513-4.7477,5.4162-11.2914,6.1757s-12.0979-.7743-12.4055-3.4256,4.7474-5.4163,11.2911-6.1757S518.92,212.1723,519.2281,214.8238Z"/><path class="cls-5" d="M458.2771,184.101c0,18.5758,18.0573,33.6345,40.3318,33.6345s40.3321-15.0587,40.3321-33.6345Z"/><path class="cls-5" d="M538.941,184.4675c0,2.7588-18.0572,4.9951-40.3319,4.9951s-40.332-2.2363-40.332-4.9949,18.0573-4.9952,40.332-4.9952S538.941,181.7088,538.941,184.4675Z"/><path class="cls-5" d="M542.5009,227.9731c-6.6585-4.5821-13.6274-6.5211-17.8866-11.81l1.4491-1.3437,2.4425-2.2543.0034-2.77.5352-3.1379s-5.3536-4.7879-5.607,2.63l-6.4629,2.5273-1.8662,1.8225c-.0527-.0029-1.0345-.5-1.0876-.502l-6.1358-4.4525a4.8579,4.8579,0,0,0-4.4518-1.7069c-2.9818.3459-1.6232,2.8329-1.6232,2.8329l2.6276,4.4368.1724,2.2744-10.6988-4.9s-10.4616-4.7192-7.7379,1.3873c0,0-5.9814-3.1374-4.4788,2.4178,0,0-2.8829-.7733-2.7467,1.3817.106,1.6769,2.2166,1.5645,2.2166,1.5645s6.0961.1973,15.16,6.2393l4.4529,1.4812s5.7559,1.7123,9.8908.5152c5.4485,1.8272,14.7938,12.5563,19.9291,17.2245,10.9628,9.9649,13.973,10.18,19.5246,7.9623C561.3168,247.3213,553.4889,235.5355,542.5009,227.9731Z"/><path class="cls-2" d="M510.7091,226.67s4.4923-.5785,6.2655-3.3214"/><path class="cls-2" d="M504.2886,213.8737s2.9159,3.3858,3.9669,4.3026"/><path class="cls-2" d="M486.1733,213.0071s9.313,3.87,14.3155,8.4449"/><path class="cls-2" d="M481.1644,215.29s8.0665,2.4453,10.51,6.3187"/><path class="cls-2" d="M523.4574,208.9023a7.8679,7.8679,0,0,0,.0819,2.9126"/><path class="cls-2" d="M547.1736,232.4673s7.2314-3.064,18.4265,1.1277"/><path class="cls-1" d="M565.1048,256.5449c-2.6242,5.4836-10.8931,12.4555-25.9548.2992-6.6341-5.3547-8.733-4.6471-3.1833-11.1191,9.8122-11.4423,4.098-18.2059,12.123-15.3278S573.0255,239.9943,565.1048,256.5449Z"/><path class="cls-2" d="M552.6606,232.1764s2.3131-.79,8.5262,5.6744"/><path class="cls-2" d="M535.0209,252.9368s24.2743,25.5322,32.5661-2.476"/><path class="cls-5" d="M522.154,245.12c-.42-.1929,12.7307,1.9,14.9151-18.9688,0,0-1.5507-4.8037,1.4658-3.8579,1.1476.36,5.8629,3.8836,6.8948,4.324a17.39,17.39,0,0,1,5.6439,3.5261s-1.2267,11.6145-3.9,15.3613c-1.844,2.5846-10.27,11.782-14.54,9.9217a30.7014,30.7014,0,0,1-7.385-4.9653C521.5859,247.08,522.154,245.12,522.154,245.12Z"/><path class="cls-1" d="M118.9806,168.7145s10.9884,1.5346,15.1483,13.8718c1.9346,5.7372,1.722,12.5577,2.8374,23.5711.4857,4.798,3.1654,35.7425,3.1654,35.7425s1.097,7.2147-3.67,10.9238a16.8606,16.8606,0,0,1-8.6714,3.0386c-1.92.1511-5.4944-1.2929-7.7629-2.3981-2.33-1.1353-4.46-3.4857-5.6028-8.1847,0,0-7.1231-50.8892-5.9621-62.0462Z"/><path class="cls-15" d="M127.0641,199.57s-2.1162,14.7638-9.3128,22.2582"/><path class="cls-2" d="M121.1433,169.6245s9.4684,1.3883,13.6282,13.7253c1.9346,5.7374,1.7222,12.5579,2.8374,23.5713.4857,4.7978,3.1654,35.7425,3.1654,35.7425s1.0972,7.2147-3.67,10.9236a16.8632,16.8632,0,0,1-8.6715,3.0388c-1.92.1509-5.4944-1.2928-7.7627-2.3981"/><path class="cls-1" d="M38.9356,251.1023s-4.458,38.3434-3.0686,46.3447h85.9142c-.1645-6.5835-.9625-33.4924-3.1967-42.5752a148.634,148.634,0,0,1-2.5238-15.8913l.1575-18.2821,2.8692-29.4833.1122-22.8546-24.2659-8.5946H62.6207l-26.4279,8.6672L36.0806,190.55l4.3983,30.2264v20.3622Z"/><polyline class="cls-2" points="118.981 168.715 94.822 159.766 62.509 159.766 36.081 168.57"/><path class="cls-2" d="M118.2927,255.5462c-.9434-6.2861-2.2322-15.3145-2.2322-15.3145l-.2776-19.3124"/><polyline class="cls-2" points="40.252 219.863 40.479 242.423 39.473 252.545"/><polyline class="cls-16" points="81.843 292.216 81.274 190.678 89.232 175.714"/><path class="cls-5" d="M90.3352,164.0255,78.9675,180.6932,67.9251,164.3689a86.6169,86.6169,0,0,1-.7283-8.718c0-2.2962.7283-12.3926.7283-12.3926H90.2816S91,154.0278,91,155.1161C91,157.2927,90.3352,164.0255,90.3352,164.0255Z"/><path class="cls-5" d="M90.8387,151.411s2.4507-2.6532,6.6629,2.9814c2.12,2.8355,3.9117,4.42,6.0691,14.8271a14.9128,14.9128,0,0,0,3.5465,6.375s-6.3858,1.39-9.3441-1.6265a35.1923,35.1923,0,0,1-5.2328-7.5256l-8.2778,6.8459s6.7906-10.53,6.9037-14.8142A44.6519,44.6519,0,0,0,90.8387,151.411Z"/><path class="cls-5" d="M67.5622,151.411s-1.9779-1.9134-6.19,3.7212c-2.12,2.8355-4.3845,3.68-6.5417,14.0873a14.9157,14.9157,0,0,1-3.5464,6.375s6.3858,1.39,9.3438-1.6265a35.1839,35.1839,0,0,0,5.2328-7.5256l8.358,7.23s-6.8708-10.9145-6.9837-15.1985A44.6689,44.6689,0,0,1,67.5622,151.411Z"/><ellipse class="cls-8" cx="77.3453" cy="208.5546" rx="1.6462" ry="1.7235"/><path class="cls-8" d="M80.0865,187.5539A1.6479,1.6479,0,1,1,78.44,185.83,1.6861,1.6861,0,0,1,80.0865,187.5539Z"/><ellipse class="cls-8" cx="77.3453" cy="232.6841" rx="1.6462" ry="1.7235"/><path class="cls-8" d="M79.204,254.2684a1.6479,1.6479,0,1,1-1.6462-1.7235A1.686,1.686,0,0,1,79.204,254.2684Z"/><path class="cls-8" d="M79.204,271.6834a1.6479,1.6479,0,1,1-1.6462-1.7232A1.6861,1.6861,0,0,1,79.204,271.6834Z"/><polyline class="cls-2" points="73.417 292.607 73.335 190.231 78.552 181.282"/><path class="cls-7" d="M67.1968,148.2414S49.5922,165.4968,49.8287,185.83H55.03s2.0276-19.0346,10.8836-32.5373Z"/><path class="cls-7" d="M90.8274,148.2414s16.6626,17.2762,16.4261,37.61l-4.3968-.5711s-2.8387-18.7329-11.3382-31.987Z"/><path class="cls-16" d="M117.2324,190.6776s1.8552,16.1535-1.45,30.2417"/><path class="cls-17" d="M123.1541,289.3263c-.3981-3.6525-.7377-10.8431-.7377-10.8431a80.6418,80.6418,0,0,1-2.6145-10.7047c-1.7173-14.8335-3.5528-29.5615-4.7573-36.0622C112.1959,216.345,114,186.9087,114,186.9087a243.03,243.03,0,0,0-35.3936-.6822,304.0466,304.0466,0,0,1-34.8576,0,316.3042,316.3042,0,0,1-1.5078,47.0983c-1.3944,11.7261-3.0216,18.7477-4.3989,32.3537-.3,2.96-2.8512,13.5538-2.8512,13.5538s-.7351,15.7585-.16,18.7858l88.7613.0087S124.2731,299.5974,123.1541,289.3263Z"/><path class="cls-2" d="M34.7027,297.447c-.5753-3.0275.16-18.7858.16-18.7858s2.5511-10.5939,2.8507-13.5539c1.3773-13.6061,3.0045-20.6275,4.3991-32.3535A316.3227,316.3227,0,0,0,43.62,185.6553a304.0506,304.0506,0,0,0,34.8578,0,243.015,243.015,0,0,1,35.3936.6822s-1.8037,29.4365,1.0447,44.8077c1.2047,6.5008,3.2422,19.9256,4.9593,34.759.4358,3.764,2.4127,12.0081,2.4127,12.0081l1.1,19.5347"/><path class="cls-7" d="M55.3507,189.93a2.5615,2.5615,0,1,1-2.5613-2.5613A2.5616,2.5616,0,0,1,55.3507,189.93Z"/><path class="cls-7" d="M107.2535,189.93a2.5614,2.5614,0,1,1-2.5613-2.5613A2.5615,2.5615,0,0,1,107.2535,189.93Z"/><path class="cls-7" d="M104.2268,153.7187c-1.2486,3.8-5.4679,13.9363-10.7288,14.8442,1.1-2.8554,2.6744-3.5353,1.2471-5.9581-10.8754-18.4614,2.6576-34.398,4.642-32.6508A24.8311,24.8311,0,0,1,104.2268,153.7187Z"/><path class="cls-2" d="M56.1929,132.16s-2.6824,5.07.5139,9.4591"/><path class="cls-2" d="M101.0163,133.1243s3.1857,5.5738-.0887,9.9054"/><path class="cls-5" d="M99.4042,118.5841c-1.5234,4.44-4.7059,12.1448-.6091,13.55s8.5435-.2649,12.5836-8.8577c1.9972-4.248.3768-9.93-3.72-11.3357S100.9274,114.1441,99.4042,118.5841Z"/><path class="cls-5" d="M57.6962,118.21c1.4434,4.4666,4.4874,12.2272.3661,13.559s-8.5374-.418-12.4229-9.0818c-1.9208-4.2833-.1988-9.9354,3.9225-11.2672S56.2529,113.7437,57.6962,118.21Z"/><path class="cls-1" d="M106.3441,101.1766c-.73-20.3956-12.3778-29.9643-26.5838-30.3582-14.3774-.3982-27.004,8.1309-28.0425,29.2358-.8353,16.9811,3.5046,37.4434,13.7625,46.8637,9.4049,8.6369,20.7481,4.0483,23.8815,1.8759C101.1059,140.6521,107.0051,119.6478,106.3441,101.1766Z"/><path class="cls-2" d="M60.8578,111.2518a8.5656,8.5656,0,0,1,9.7076-.5954"/><path class="cls-2" d="M96.8906,111.529a8.5659,8.5659,0,0,0-9.6956-.7694"/><path class="cls-8" d="M93.1853,118.966a2.5875,2.5875,0,1,1-2.5192-3.0686A2.83,2.83,0,0,1,93.1853,118.966Z"/><path class="cls-8" d="M69.02,118.7494a2.5875,2.5875,0,1,1-2.5192-3.0686A2.83,2.83,0,0,1,69.02,118.7494Z"/><path class="cls-2" d="M52.5541,117.1125s2.3515,30.968,24.4064,34.8164"/><path class="cls-2" d="M104.5825,115.6122s-.29,32.4154-23.7018,36.3519"/><line class="cls-2" x1="78.7891" y1="128.258" x2="78.7755" y2="129.7584"/><path class="cls-9" d="M84.3663,136.1173c-1.2162,2.3265-3.09,4.9071-5.62,4.9956-3.3079.1156-5.6752-5.0422-5.6752-5.0422s1.0876.0811,5.6468.0957S84.3663,136.1173,84.3663,136.1173Z"/><path class="cls-17" d="M65.3062,73.2887c-21.4057,11.3064-12.9873,40.1935-12.9873,40.1935,6.7786-7.9956,9.0221-11.3894,15.9882-27.1176,2.4362,10.1705,15.4919,20.6209,37.3851,26.4441,0,0,7.93-26.705-12.6344-39.2284C84.6451,68.457,74.0158,68.6882,65.3062,73.2887Z"/><path class="cls-2" d="M82.7181,69.9925c-4.8905-1.0547-12.0769.8723-15.83,2.5367-24.2775,10.7653-14.5688,40.953-14.5688,40.953,6.4542-8.57,9.765-10.9668,16.4233-27.1138,2.4362,10.1707,15.4919,20.6181,37.3851,26.4413,0,0,6.3972-26.1191-12.3981-38.5983a25.9515,25.9515,0,0,0-6.8209-3.0542"/><path class="cls-2" d="M96.494,88.9286s9.7616,9.96,9.6473,22.7141"/><path class="cls-2" d="M55.5677,91.0034s-2.0837,2.5524-2.6018,9.7739"/><path class="cls-2" d="M89.9746,95.7728a15.6691,15.6691,0,0,0,5.5547,6.6264"/><polygon class="cls-9" points="86.756 195.068 111.545 195.068 111.173 207.94 87.129 207.94 86.756 195.068"/><path class="cls-18" d="M99.1506,193.9958c6.8454,0,12.3947.4343,12.3947,1.3483s-5.5493,1.1035-12.3947,1.1035-12.3943-.1895-12.3943-1.1035S92.3055,193.9958,99.1506,193.9958Z"/><polygon class="cls-9" points="100.962 207.815 105.729 212.581 110.495 207.815 109.224 204.838 105.729 203.049 102.913 204.731 100.962 207.815"/><polygon class="cls-9" points="94.657 211.875 101.397 211.875 100.987 203.608 94.657 205.134 94.657 211.875"/><polygon class="cls-9" points="93.789 212.555 98.027 207.313 95.746 204.445 92.785 203.075 89.916 205.48 88.547 208.317 93.789 212.555"/><path class="cls-9" d="M111.1731,207.94l-.7544,26.1024H87.8833L87.1289,207.94s6.71.4455,12.0221.3915C107.9387,208.2423,111.1731,207.94,111.1731,207.94Z"/><path class="cls-13" d="M151.5232,226.2625a6.3475,6.3475,0,0,1-4.01-1.3,1.0629,1.0629,0,1,1,1.3206-1.6659c1.7932,1.42,4.7121.842,6.6617-.2967a4.157,4.157,0,0,0,2.1258-4.22c-.5039-3.2246-4.43-3.7732-7.3291-3.415-.1764.0238-.3546.0528-.5346.0911a1.0748,1.0748,0,0,1-1.26-.82,1.064,1.064,0,0,1,.82-1.26c.231-.0491.4675-.0891.7021-.12,4.4595-.5565,9.59.84,10.2846,5.26.3676,2.3406-1.0637,4.7614-3.7355,6.3218A10.2956,10.2956,0,0,1,151.5232,226.2625Z"/><path class="cls-13" d="M129.1206,232.6136c0,1.1035,2.3162,1.1021,5.0757,1.1021s4.9174.0014,4.9174-1.1021-2.2369-1.9977-4.9966-1.9977S129.1206,231.51,129.1206,232.6136Z"/><path class="cls-9" d="M151.3346,213.2161c.0006.07.0195.1353.0195.2058,0,10.2334-7.7426,18.529-17.2936,18.529s-17.2933-8.2956-17.2933-18.529c0-.07.0189-.1355.0195-.2058Z"/><path class="cls-13" d="M116.8722,213.2161c0,.7548,7.87,1.0057,17.1883,1.0057s16.8843-.2509,16.8843-1.0057-7.5543-.6572-16.8728-.6572S116.8722,212.4613,116.8722,213.2161Z"/><path class="cls-9" d="M76.8157,237.8114s11.9059,1.01,42.6485,1.01,39.9395-1.01,39.9395-1.01c5.09,0,9.5983-2.8275,11.1616-7H65.6539C67.2173,234.9839,71.7261,237.8114,76.8157,237.8114Z"/><path class="cls-12" d="M162.6963,235.7686s-49.6367.087-87.9735.53"/><path class="cls-12" d="M172.3156,230.8118s-16.6033-.4089-54.0229-.4089-54.0231.4089-54.0231.4089"/><path class="cls-5" d="M131.4757,240.7853c0,2.5956-5.1933,4.7-11.6,4.7s-11.6-2.1042-11.6-4.7,5.1933-4.7,11.6-4.7S131.4757,238.19,131.4757,240.7853Z"/><path class="cls-5" d="M107.9135,248.4034c-7.9071-7.4205-13.9126-8.1844-13.9126-8.1844a2.0973,2.0973,0,0,1-1.6583-2.0341c.11-2.097,2.808-1.0267,2.808-1.0267-.8281-5.5351,4.5979-1.8336,4.5979-1.8336-1.9462-6.2041,7.3136-1.4641,7.3136-1.4641l9.3763,7.2122.7908-1.9215-2.0167-5.1631s-1.0341-2.5547,1.8854-2.5547a4.7245,4.7245,0,0,1,4.1091,2.1482l5.5158,5.07,2.8274-2.2058,6.6126-.5363c1.076-7.1375,5.711-1.9122,5.711-1.9122l-.8687,2.9715-.3142,2.6754-2.5442,2.2725-3.452,1.6356c-5.8389,11.5565-14.6355,8.4026-14.6355,8.4026l-5.905-.999Z"/><path class="cls-2" d="M117.0829,238.7769s2.505,3.0133,3.4173,4.0169"/><path class="cls-2" d="M99.7485,235.3246s9.8415,6.5111,12.0919,10.16"/><path class="cls-2" d="M94.6538,236.9685s4.2577,2.9985,5.1093,4.6926"/><path class="cls-2" d="M136.2251,235.54a4.7824,4.7824,0,0,0-.2836,3.2374"/><path class="cls-5" d="M87.9919,236.91s-3.4029-.4154-7.0929-.4632c-4.8834-.0631-11.0007-.72-13.5819-.513-1.8677.15-2.4445-2.4616-2.4445-2.4616a36.4867,36.4867,0,0,1,5.3608-2.1451c3.0731-.7059,5.4019-1.0787,5.4019-1.0787,3.3214-2.7138,1.0172-4.4638,1.0172-4.4638l-5.84,1.0089c-5.123.8821-15.1593.9048-15.1593.9048L45.54,231.6168,43.53,243.06l16.5031,3.19a74.8236,74.8236,0,0,0,10.4822-.1162s7.549-.9037,10.9153-2.0282,6.5611-1.5713,6.7384-3.2971C88.632,236.2969,87.9919,236.91,87.9919,236.91Z"/><path class="cls-2" d="M68.23,241.2332s14.3243.3089,19.7621-2.1838"/><path class="cls-1" d="M46.9894,236.5954c-.174-4.935.6308-6.9448.6308-6.9448a98.9705,98.9705,0,0,1-10.1333-.0692c-5.0049-.35-9.9278-1.8457-11.1351-1.5255a59.512,59.512,0,0,0,11.429-24.7387L36.823,185.83l-.5872-16.2059s-10.6439-.0048-17.2639,19.7429c0,0-10.5842,20.118-15.9882,35.2682-3.755,10.5283-1.4614,15.7415.6221,19.1443,1.3515,2.2068,17.6363,6.0811,32.9652,3.2094,3.791-.71,7.6831.0675,11.01-1.5042C47.5808,245.4851,47.1641,241.53,46.9894,236.5954Z"/><path class="cls-15" d="M29.3366,189.2772s.8228,17.0081,4.256,24.1112"/><path class="cls-15" d="M33.7493,169.6245s-8.1572.5575-14.7774,20.3054c0,0-10.7921,20.13-16.1961,35.2807-3.7553,10.5283-1.0246,15.8934,1.2611,19.2567,1.4546,2.14,17.205,5.3937,32.5341,2.522,3.791-.71,8.2228.0677,11.55-1.5042a38.8232,38.8232,0,0,1-1.1309-8.3269,24.7448,24.7448,0,0,1,.6306-7.5076,73.2154,73.2154,0,0,1-9.3,0c-5.0051-.35-10.7614-1.9149-11.9685-1.5947a63.426,63.426,0,0,0,11.4748-24.1788"/><path class="cls-15" d="M16.4508,225.2106s7.2116,1.1593,9.496,2.47c0,0-4.4125-6.8715-10.3245-8.1966"/><path class="cls-15" d="M35.011,232.1726s-1.7337,6.8768.5877,12.0582"/><path class="cls-16" d="M38.38,192.4912c.0483.2505-1.2153,14.8839,2.0985,28.4281"/><path class="cls-7" d="M238.8361,220.4732c0,3.712-6.0389,7.5251-17.8584,7.5251s-24.0346-5.7532-24.0346-9.4652S206.41,213.26,218.23,213.26,238.8361,216.7609,238.8361,220.4732Z"/><path class="cls-17" d="M227.3006,157.37s-15.2723,4.111-19.57,31.8585c0,0-8.5074,24.6735-10.7873,28.4243,0,0,25.7789-4.392,41.62,7.43l-6.2335-36.937Z"/><path class="cls-2" d="M223.9684,158.7617s-12.2865,5.6856-16.238,30.4663c0,0-8.5074,24.6735-10.7873,28.4243,0,0,22.1655-6.5713,39.8075,7.43"/><path class="cls-5" d="M263.12,109.5548a35.1858,35.1858,0,0,1,2.3915-11.7936l.18-3.8645c-3.631.9947-9.15,3.0673-10.9078,6.3115-1.636,3.0182-8.58,16.5793-9.4957,31.5112-.2142,3.4968,1.8135,6.7,1.996,10.2215a25.3814,25.3814,0,0,0,7.55-1.1475c1.9118-.7252,3.9535-1.291,5.9408-.4364a22.4567,22.4567,0,0,1,2.6191,1.7819c.7279,1.4106,2.7832-.2484,2.92-.5911l.0029-.0062c1.0326-2.6123.7618-5.588.3149-8.4146C266.2447,130.6654,262.9694,115.0454,263.12,109.5548Z"/><path class="cls-2" d="M257.6933,101.9471s-8.4506,8.7358-.5636,33.2218"/><path class="cls-5" d="M297.1392,106.7089a35.1932,35.1932,0,0,0-2.3913-11.7934l-.1806-3.8647c3.631.9949,8.5385,2.07,10.2962,5.3136,1.6361,3.0182,8.483,17.1843,9.3988,32.116.2143,3.4967.5452,13.5346.3627,17.0559a57.4809,57.4809,0,0,1-7.7176-2.2318c-1.9115-.7252-5.4362-6.6477-7.4235-5.7932a30.3127,30.3127,0,0,0-2.9793,1.9223c-1.8145,1.21-2.423-.3889-2.56-.7315l-.0032-.0064c-1.0324-2.6123-.7618-5.5877-.3146-8.4144C294.0147,127.82,297.29,112.2,297.1392,106.7089Z"/><path class="cls-2" d="M300.2669,108.8237s-.1211,29.6364,4.96,24.3139"/><path class="cls-2" d="M295.4282,93.2194s13.4072-.8254,12.137,36.5527"/><path class="cls-7" d="M334.8455,224.6989c.8465,3.6142,4.766,2.3,16.2742-.3957s22.0893-11.0825,21.2428-14.6967-10.42-2.9748-21.9281-.28S333.999,221.0846,334.8455,224.6989Z"/><path class="cls-17" d="M328.93,156.4043s15.7344,1.0931,26.2466,27.1292c0,0,13.91,22.0834,16.985,25.2155,0,0-24.8995,1.1891-37.6273,16.3119l-9.743-36.2847Z"/><path class="cls-2" d="M327.257,194.1305s3.7943,25.7077,7.5885,30.5684"/><path class="cls-2" d="M333.8531,157.2772s11.8249,3.03,21.3234,26.2563c0,0,13.91,22.0834,16.985,25.2155,0,0-23.08-1.3437-37.0641,16.3119"/><path class="cls-17" d="M325.87,250.87l3.9189,47.2428H230.0919l4.94-47.2943.8907-23.52-9.1561-70.51s26.8452-9.26,27.5193-10.1106c2.6282-3.3168,11.139-5.3471,11.1422-5.0936.0362,2.791,30.5226,5.3447,29.9442,1.0275-.0337-.2513,2.5115-.0688,11.5838,4.2046.9466.4459,26.629,9.9721,26.629,9.9721l-8.7943,71.1189Z"/><line class="cls-2" x1="264.8646" y1="141.7356" x2="227.2403" y2="156.7886"/><line class="cls-2" x1="295.8663" y1="142.5431" x2="333.8531" y2="157.2772"/><polyline class="cls-2" points="329.021 194.998 324.791 227.907 325.87 250.87 329.723 297.311"/><polyline class="cls-2" points="230.209 296.995 235.032 250.819 235.923 227.299 231.754 196.589"/><path class="cls-5" d="M256.2542,148.8343a2.9035,2.9035,0,0,0,.0849,3.6589c3.4635,5.1084,9.8505,9.368,24.1953,9.368,14.0812,0,20.1047-3.11,24.0293-8.1643,1.5315-1.9721.6225-4.8626.6225-4.8626s-9.14-5.27-9.8893-9.1119c-1.7675-9.068.6193-22.0894.6193-22.0894l-29.1606-.3962s1.105,15.6912-1.34,22.1462C264.4916,141.8232,256.2542,148.8343,256.2542,148.8343Z"/><path class="cls-5" d="M257.746,102.5325c1.4282,4.2876,4.4254,11.7323.4694,13.05s-8.2223-.3289-12.0375-8.6357c-1.8861-4.1067-.2771-9.563,3.6788-10.8806S256.3179,98.245,257.746,102.5325Z"/><path class="cls-5" d="M302.6057,102.5325c-1.4282,4.2876-4.4254,11.7323-.47,13.05s8.2224-.3289,12.0376-8.6357c1.8861-4.1067.2771-9.563-3.6788-10.8806S304.0338,98.245,302.6057,102.5325Z"/><path class="cls-1" d="M306.6067,88.6168c-.3881,23.562-5.4436,48.82-26.6349,48.82-22.5523,0-26.6351-28.5155-26.6351-48.82s12.6444-34.6094,27.3546-34.6094S306.9411,68.316,306.6067,88.6168Z"/><line class="cls-2" x1="280.2456" y1="132.0544" x2="280.2456" y2="135.1425"/><line class="cls-2" x1="274.9062" y1="131.6172" x2="274.9062" y2="135.1425"/><line class="cls-2" x1="270.2331" y1="130.7289" x2="270.2331" y2="133.3798"/><line class="cls-2" x1="285.6767" y1="131.6172" x2="285.6767" y2="135.1425"/><line class="cls-2" x1="290.3498" y1="130.3349" x2="290.3498" y2="133.3798"/><path class="cls-2" d="M279.19,137.0235c-22.619-1.5543-24.7636-30.26-24.7636-30.26"/><path class="cls-2" d="M306.0069,106.4642s-1.787,29.005-24.406,30.5593"/><path class="cls-8" d="M294.0623,101.3325a2.4091,2.4091,0,1,1-2.4-2.6172A2.5158,2.5158,0,0,1,294.0623,101.3325Z"/><ellipse class="cls-8" cx="268.2883" cy="101.3325" rx="2.4" ry="2.6172"/><line class="cls-2" x1="279.9752" y1="113.3289" x2="279.9752" y2="114.7733"/><path class="cls-12" d="M290.0252,118.2021a2.3475,2.3475,0,0,1,1.6372,2.8723"/><path class="cls-2" d="M263.4878,94.7294s3.5134-2.1474,8.3441.74"/><path class="cls-2" d="M296.4627,94.7294s-3.5132-2.1474-8.3439.74"/><path class="cls-9" d="M286.3987,121.0744c-1.36,2.6585-3.4641,5.6128-6.3409,5.7392-3.7607.1652-6.5058-5.6769-6.5058-5.6769s1.2379.0811,6.4232.0512S286.3987,121.0744,286.3987,121.0744Z"/><path class="cls-10" d="M307.2544,89.1556c0,2.8721-.6407,14.59-.6407,14.59s5.2946-6.921,5.9516-12.4067c.3415-2.8519-.6473-7.161-2.043-7.161S307.2544,86.2833,307.2544,89.1556Z"/><path class="cls-10" d="M252.7865,88.86c0,2.8722.9782,15.09.9782,15.09s-5.157-7.33-5.814-12.8153c-.3415-2.8518.6473-7.1611,2.043-7.1611S252.7865,85.9879,252.7865,88.86Z"/><path class="cls-5" d="M313.3349,90.8958c-.2371-24.6039-9.8768-42.4075-34.0836-42.4075-23.7009,0-32.3984,17.8036-32.6355,42.4075,0,0,20.94-3.874,33.081-4.0447S313.3349,90.8958,313.3349,90.8958Z"/><path class="cls-2" d="M247.4585,82.3648s1.9879-3.89,12.18-4.1658"/><path class="cls-2" d="M249.7809,69.7761s1.043-3.1715,8.3985-3.8029"/><path class="cls-2" d="M301.1456,69.8915s5.9168-.5948,10.6058,5.84"/><path class="cls-5" d="M325.5791,238.6227l-6.7163,6.4635-10.3746,3.1074-12.0327-1.2081s-4.5577-3.8489,2.1093-3.8065l8.4554-.2723,13.37-5.2332Z"/><path class="cls-5" d="M324.4052,242.9882l-6.7163,6.4633-10.3748,3.1073-12.0326-1.2079s-4.5575-3.8488,2.1092-3.8065L305,246.91l14.216-4.8713Z"/><path class="cls-19" d="M317.4931,226.9475c-3.8567,7.1448-17.8676,10.1914-32.289,11.0089-14.1616.8025-28.731-.4993-33.2144-7.0923,0,0,4.8359,15.9522,22.1155,20.9846l-.0008.0042c.1425,2.7894,5.39,4.7881,11.7212,4.4644,6.1679-.3153,11.05-2.7218,11.1666-5.4248C314.2525,244.3445,317.4931,226.9475,317.4931,226.9475Z"/><path class="cls-12" d="M295.0757,250.9378s-11.3562,4.2963-18.6448.9532"/><path class="cls-9" d="M317.4931,226.9475c.2634,5.155-14.1928,10.0836-32.289,11.0089s-32.98-2.5037-33.2432-7.6585,14.1928-10.0837,32.289-11.0087S317.23,221.7927,317.4931,226.9475Z"/><path class="cls-5" d="M296.9313,252.4915c.87-.6532,7.1738-1.1372,7.1738-1.1372l4.79-3.0688,4.4461-11.6768a47.2252,47.2252,0,0,1-.4588-10.9627c-1.5513-3.0591-2.1425-4.85-3.6208-5.5338-.8535-.3945-2.3782.1251-3.5863-.4212-2.0908.5632-5.7982,1.8273-6.7466.4823-1.982-2.8105,2.5283-2.9019,4.7233-6.1232.4027-.5909,2.5478-2.9331,7.0142-.3906.4785.2724,11.6063,3.9536,11.6063,3.9536s6.6633,4.7155,6.77,4.7716c6.4876-1.3316,13.4205-3.6439,20.0494-4.39.2223-.0252-4.0839-.0472-4.0839-.0472a19.6768,19.6768,0,0,1,3.6981-3.4042c3.4239-1.9845,13.9266-5.6583,17.1182-5.4425.7472.05,4.5053,5.5746,6.7642,10.8023,1.6375,3.7893,3.1611,7.5827,2.6331,11.06-1.5785,10.3958-27.6705,10.7316-46.939,8.7917-.0642.0612-3.436,2.8089-5.486,4.855-3.2388,3.2323-6.451,6.7566-6.451,6.7566s-7.0388,4.9342-9.9219,5.2587-1.9528-.1293-6.8334-.6362c-4.7582-.4942-5.8408-1.3576-5.8408-1.3576A34.7952,34.7952,0,0,0,296.9313,252.4915Z"/><path class="cls-2" d="M359.1884,217.2872s-.9458.248-9.6776.66"/><path class="cls-2" d="M306.9372,218.399a2.3582,2.3582,0,0,1-1.2621,1.2922"/><path class="cls-2" d="M321.2519,241.81s-2.5435,7.5785-5.416,10.0653"/><path class="cls-1" d="M226.2468,176.6279l-.6387-5.3235-16.0528,4.0314-.0015,5.6911s-5.0047,44.3936-.23,56.4724c2.8512,7.2109,6.0176,10.27,16.214,8.4734C243.8,242.7561,226.2468,176.6279,226.2468,176.6279Z"/><path class="cls-2" d="M209.3418,177.7776l-.2782,9.7056s-4.5145,37.9373.26,50.0161c2.8512,7.2109,8.7689,10.7347,17.9629,8.2033,15.1739-4.1779.1738-60.5076.1738-60.5076l-1.6958-8.4807"/><path class="cls-5" d="M220.4666,149.03c-.5863,3.1383-2.2321,4.5084-4.3166,4.119s-3.4478-2.5685-2.8615-5.7068,2.9911-6.6521,5.0756-6.2627S221.0527,145.892,220.4666,149.03Z"/><path class="cls-2" d="M210.5019,139.2818c-1.2977-4.4753-6.4171-2.494-8.502-2.1025-2.2821.4288-2.3282.1681-2.3282.1681s-3.4383-3.8342,1.9911-4.88c0,0,10.3564-3.3013,12.74,5.0737"/><path class="cls-7" d="M223.3254,170.1352l-6.6346,1.5734-8.0178-33.81s.6845-1.37,3.7406-1.9613a4.2419,4.2419,0,0,1,2.894.3879Z"/><path class="cls-5" d="M230.0318,165.93c.2631,4.129-1.6708,14.1417-5.0083,13.8987s-9.4517-10.1684-8.9846-16.5828,3.1893-10.031,6.5268-9.7881S229.6225,159.511,230.0318,165.93Z"/><path class="cls-1" d="M227.6341,181.9968c1.0477-3.8514-.2746-5.4391-.2746-5.4391a3.8692,3.8692,0,0,0-.2278-4.1483s-.5351-3.8543-2.2706-3.8848c2.1636.9121,2.7662-1.7991,2.4535-3.022,0,0-.668-3.3774-3.4036-3.3452l.3877-.1986c4.1521.2467,1.0093-6.6272-1.1361-6.5291,3.9009-.9672,1.6011-4.3608-.9782-5.4174l-3.7919-1.5312c-.9564-.2867-9.2942,3.6276-10.2105,4.3773-2.0826,1.7049-2.79,1.7222-3.6782,4.2228a10.1713,10.1713,0,0,0-.5,4.7122c.1567,1.5588-.263,4.8616-.0612,6.5705.1592,1.3415,1.6886,3.5137,1.9253,4.8429.18,1.0176.7622,2.7248.975,3.7131a112.677,112.677,0,0,0,3.2825,11.8563l8.7521,2.8613,7.9191-3.575A26.8,26.8,0,0,1,227.6341,181.9968Z"/><path class="cls-2" d="M226.7967,188.0625a26.2452,26.2452,0,0,1,.8374-5.9937c1.0477-3.8514-.2746-5.4392-.2746-5.4392a3.869,3.869,0,0,0-.2278-4.1482s-.5351-3.8543-2.2706-3.8848c2.1636.9119,2.7662-1.7991,2.4535-3.0221,0,0-.668-3.3773-3.4036-3.3451l.3877-.1986c4.1521.2467,1.0093-6.6272-1.1361-6.5291,3.9009-.9674,1.6011-4.3609-.9782-5.4174l-3.7919-1.5314c-.9564-.2865-9.2942,3.6275-10.2105,4.3773-2.0826,1.7051-2.79,1.7224-3.6782,4.223a10.171,10.171,0,0,0-.5,4.7122c.1567,1.5588-.263,4.8614-.0612,6.5705.1592,1.3415,1.6886,3.5136,1.9253,4.8429.18,1.0176.7622,2.7245.975,3.7131,1.3684,6.3589,2.8315,11.7843,2.8315,11.7843"/><path class="cls-2" d="M213.9245,170.4731h2.9907s4.5652-2.1694,7.8125-1.9547"/><path class="cls-2" d="M212.1553,164.3139l1.8929-.1954s6.3487-2.8743,9.8436-2.028"/><path class="cls-2" d="M211.3994,158.0223a2.3318,2.3318,0,0,0,1.4366,0c2.2224-.863,6.9289-3.0845,9.5952-2.5729"/><path class="cls-2" d="M224.34,173.9388l-.7751.6013s-3.7458,2.3136-6.1622,1.7c0,0,3.6707-1.21,5.195,4.6935"/><path class="cls-2" d="M221.9589,176.69s.7908,2.2329,3.4584.797"/><path class="cls-5" d="M218.5348,214.2968l25.6905-4.768a4.2554,4.2554,0,0,1,5.01,3.755l2.7441,27.0815c1.8257,9.8372-27.6792,15.9437-29.618,5.4969L215.2055,219.6A4.2555,4.2555,0,0,1,218.5348,214.2968Z"/><line class="cls-12" x1="221.5731" y1="233.8742" x2="246.3581" y2="246.8226"/><line class="cls-12" x1="220.7317" y1="226.3538" x2="249.0587" y2="241.1525"/><line class="cls-12" x1="226.2674" y1="221.7467" x2="249.0435" y2="233.3151"/><line class="cls-12" x1="248.327" y1="226.7243" x2="234.5126" y2="249.6734"/><line class="cls-12" x1="242.7106" y1="221.441" x2="226.2407" y2="247.5747"/><line class="cls-12" x1="235.6627" y1="219.7018" x2="222.5128" y2="240.635"/><path class="cls-5" d="M248.8965,211.3745c.4529,2.44-6.9716,5.8647-16.5831,7.6485s-17.77,1.2516-18.2231-1.1889,6.9715-5.8647,16.583-7.6485S248.4434,208.934,248.8965,211.3745Z"/><path class="cls-7" d="M232.5513,209.3281s-.4061.78-2.4958,1.2759a22.3149,22.3149,0,0,1-4.1032.5409L224.49,205.07l6.6348-1.5734Z"/><path class="cls-7" d="M231.3657,204.5114l-6.6346,1.5734-7.1121-29.204s1.68-.4375,3.4061-.8468a8.614,8.614,0,0,0,2.8942-1.2818Z"/><path class="cls-5" d="M643.9619,240.1087c-1.8658,5.4535-12.3128,3.31-22.1011-.0394s-22.099-9.7077-20.9957-12.23c2.31-5.2808,17.738-9.8146,27.5263-6.4658S645.8276,234.6551,643.9619,240.1087Z"/><path class="cls-5" d="M636.9576,233.9676c0,11.219-5.9035,19.4922-13.1858,19.4922s-13.1857-8.2732-13.1857-19.4922,5.9035-20.3134,13.1857-20.3134S636.9576,222.7488,636.9576,233.9676Z"/><path class="cls-1" d="M600.8651,227.84c.8956-2.9841,3.0657-9.1929,6.7917-18.1889,2.5579-6.1754,6.7161-13.2339,9.1046-22.9493,6.5654-26.7052,17.7636-26.7052,17.7636-26.7052l9.4369,56.9022-.4413,19.0331a42.8787,42.8787,0,0,0-17.7416-10.1667C614.7415,222.6135,600.8651,227.84,600.8651,227.84Z"/><path class="cls-20" d="M632.597,159.9963s-10.7629,4.3451-15.1788,23.3471c-4.613,19.85-10.4923,22.3046-16.5531,44.4963,0,0,20.0257-11.8527,41.6445,7.6979"/><path class="cls-5" d="M731.8253,240.2209c1.8657,5.4535,12.5943,4.5611,22.3829,1.2121s15.4472-11.4671,14.3439-13.9892c-2.31-5.2806-11.0862-8.0549-20.8748-4.7062S729.96,234.7673,731.8253,240.2209Z"/><path class="cls-1" d="M768.4725,226.6479c-1.51-5.0325-4.03-15.2351-9.1652-38.5827-4.903-22.2944-19.7037-28.5841-19.7037-28.5841l-7.4965,58.7812-.6939,18.1137a61.416,61.416,0,0,1,18.8767-9.2475C761.3274,223.9773,768.4725,226.6479,768.4725,226.6479Z"/><path class="cls-20" d="M743.4719,161.36s11.5637,4.1766,15.1786,23.3472c3.9244,20.8118,3.8408,20.5448,9.9016,42.7366,0,0-14.4267-10.6183-36.0455,8.9322"/><path class="cls-5" d="M712.692,155.082l-25.89,27.5964L659.73,153.69s11.56-6.1834,12.3092-10.0251c1.7675-9.0682-.6191-22.09-.6191-22.09l29.1606-.3962s-1.105,15.6912,1.34,22.1462C702.845,145.7656,712.692,155.082,712.692,155.082Z"/><path class="cls-21" d="M673.9021,162.703s16.8415,2.3509,26.7011-1.3288l-13.4125,20.5813Z"/><path class="cls-1" d="M641.4662,250.87l-3.9192,47.2428h99.6975l-4.94-47.2943-.8907-23.52,9.1563-67.4415s-29.0391-11.7151-29.7133-12.5658c-2.6282-3.3168-8.9452-5.9607-8.9484-5.7072-.0362,2.791,3.9391,6.3792,4.7079,7.6843.1412.9776,4.2706-2.9625-19.4255,32.6868-22.17-33.3537-21.1731-28.02-20.743-31.5866.7855-1.3555,4.9379-3.44,5.5166-7.757.0337-.2513-1.1368-3.2348-9.4984,4.9162-.7494.7305-28.7146,11.9545-28.7146,11.9545l8.7943,68.4249Z"/><path class="cls-2" d="M687.1907,182.6784S645.1223,242.161,641.69,246.7919"/><path class="cls-2" d="M719.32,153.36s-24.362,51.1557-63.883,100.1"/><path class="cls-2" d="M656.028,152.9329A89.0961,89.0961,0,0,0,680,191.9782"/><path class="cls-2" d="M640.513,262.36s55.9716,4.4658,92.16-2.6272"/><path class="cls-2" d="M642.5452,252.8555s52.68,5.044,88.868-2.0492"/><line class="cls-2" x1="662.7119" y1="256.4519" x2="660.2884" y2="297.3111"/><path class="cls-5" d="M679.79,259.1394s-1.6981,4.0625-5.99,12.8335a118.3357,118.3357,0,0,0-6.127,14.5548s.3557.9284,3.0533,1.5206,3.8739,0,3.8739,0a116.76,116.76,0,0,1,3.2981-13.0017c1.8694-5.4976,5.83-13.8434,5.83-13.8434Z"/><path class="cls-5" d="M691.9458,259.1394s1.6981,4.0625,5.99,12.8335a118.3485,118.3485,0,0,1,6.1271,14.5548s-.3557.9284-3.0534,1.5206-3.8738,0-3.8738,0a116.7848,116.7848,0,0,0-3.2981-13.0017c-1.8694-5.4976-5.8305-13.8434-5.8305-13.8434Z"/><path class="cls-5" d="M683.7287,256.61c-.7406-.0919-22.9647-2.0153-22.9647-2.0153s-1.07,5.4144,0,7.9869l22.9647-1.3781Z"/><path class="cls-5" d="M686.9972,256.61c.7478-.0919,23.183-2.0153,23.183-2.0153s1.08,5.4144,0,7.9867l-23.183-1.3779Z"/><rect class="cls-5" x="682.9021" y="256.2455" width="5.466" height="5.7879"/><polyline class="cls-2" points="638.316 194.998 642.545 227.907 641.466 250.87 637.614 297.311"/><path class="cls-2" d="M740.57,159.8574s-29.0437-11.7115-29.7128-12.5658c-2.4724-3.1576-9.249-6.3009-9.2209-6.049.2954,2.66,4.2118,6.721,4.9806,8.0261.1412.9776,4.27-2.24-19.4257,33.41-22.17-33.3538-20.8459-30.75-20.666-32.8649a14.6683,14.6683,0,0,0,5.5148-8.2058c.06-.2465-3.82.3246-9.5736,5.92-.75.73-28.7143,11.9545-28.7143,11.9545"/><polyline class="cls-2" points="737.128 296.995 732.305 250.819 731.413 227.299 735.583 196.589"/><path class="cls-5" d="M707.7246,103.3534c-1.4417,4.3881-4.4739,12.0092-.4252,13.3393s8.4021-.37,12.2664-8.8762c1.9105-4.2052.2433-9.7746-3.8054-11.1046S709.166,98.9655,707.7246,103.3534Z"/><path class="cls-5" d="M664.6916,103.5321c1.4774,4.3761,4.5719,11.9719.5344,13.3353s-8.4049-.3018-12.3388-8.7757c-1.9448-4.1893-.3232-9.7722,3.7144-11.1355S663.2141,99.1561,664.6916,103.5321Z"/><path class="cls-1" d="M658.703,89.3316c.4952,24.08,5.1126,48.9485,27.4257,49.7836,23.0329.8619,27.1024-29.2551,27.0175-50.0064s-12.7888-33.3234-27.823-33.262S658.2764,68.5851,658.703,89.3316Z"/><path class="cls-2" d="M712.128,101.8906s-.74,36.9337-24.0675,36.7545"/><path class="cls-2" d="M659.5628,101.7278s2.5848,37.5326,25.01,36.9315"/><path class="cls-8" d="M671.95,102.3172a2.4455,2.4455,0,1,0,2.4254-2.6665A2.5537,2.5537,0,0,0,671.95,102.3172Z"/><path class="cls-8" d="M695.1526,102.3172a2.4455,2.4455,0,1,0,2.4254-2.6665A2.5535,2.5535,0,0,0,695.1526,102.3172Z"/><path class="cls-2" d="M677.7338,95.2865s-4.67-3.15-8.4483.889"/><path class="cls-2" d="M694.1,95.2865s4.6695-3.15,8.4483.889"/><line class="cls-2" x1="685.9817" y1="114.5709" x2="685.9879" y2="116.0473"/><path class="cls-9" d="M692.2191,122.2006c-6.3557,11.5821-12.219.2183-12.219.2183Z"/><path class="cls-12" d="M694.8283,119.4551a2.1075,2.1075,0,0,1,1.6,2.7506"/><path class="cls-8" d="M657.25,77.7783c.1251-6.6274,2.0177-10.3033,4.9847-13.8635,5.0206-6.0248,7.3717-6.6744,11.6819-6.5929,1.6309-2.2893,2.7882-4.6282,5.238-5.4563,29.6586-10.027,37.1348,21.2542,37.0469,25.9027-.1827,9.6708.3638,17.09-2.81,20.4238-.3646.383-1.9407-8.2777-3.6166-17.9656C704.3617,67.0179,689.13,66.5,680.2328,68.0621c-6.3367,1.1123-12.3788,4.0418-15.5224,10.3693-2.7233,9.3846-4.4427,19.9519-4.73,19.626C656.934,94.6058,657.0667,87.4491,657.25,77.7783Z"/><path class="cls-2" d="M666.0221,75.3482c-5.137,8.7189-5.7536,22.9029-6.0411,22.5773-3.0462-3.4519-2.9143-10.6719-2.7313-20.3427.1251-6.6274,2.0177-10.1078,4.9847-13.668,3.9863-4.7837,5.8557-6.2973,9.0985-6.6376"/><path class="cls-2" d="M674.33,56.7271c1.0838-1.5818,3.06-4.3968,4.8255-4.9936,29.6584-10.027,36.8187,21.2541,36.7309,25.9027-.1828,9.671.68,17.09-2.4947,20.424-.3646.383.5719-16.4871-9.2757-25.5344"/><path class="cls-8" d="M678.5036,60.4614s-1.458,9.8275-9.3293,13.0342c0,0,9.3486,9.6238,26.3931,3.2958,0,0,13.436-4.0932,9.1269-15.0378l-15.9266-4.0845Z"/><path class="cls-2" d="M705.2086,65.717c.0349,2.66-.7256,7.7957-9.2738,12.0613"/><path class="cls-2" d="M690.2871,65.2224s.1814,8.4891-10.66,13.3528"/><path class="cls-2" d="M677.5824,63.9148s.2483,5.13-8.4081,9.5808"/><path class="cls-5" d="M716.8671,84.8289s-26.7126,1.6763-30.8375,1.8223-29.7717-1.8223-29.7717-1.8223.8308-10.4724,1.4645-16.5212,3.5745-16.7356,3.5745-16.7356l25.0291-3.0648,25.8485,3.0648s2.479,14.1449,2.8446,16.7356S716.8671,84.8289,716.8671,84.8289Z"/><line class="cls-2" x1="686.1261" y1="53.5012" x2="686.1261" y2="79.1342"/><path class="cls-1" d="M743.3032,179.57l.6388-5.3236,16.0528,4.0314.0015,5.6911s5.0048,44.3936.23,56.4724c-2.8512,7.2109-6.0176,10.27-16.2139,8.4735C725.75,245.6983,743.3032,179.57,743.3032,179.57Z"/><path class="cls-2" d="M760.2082,180.72l.2782,9.7055s4.5147,37.9373-.26,50.0161c-2.8512,7.2109-8.7686,10.7348-17.9626,8.2033-15.1739-4.1779-.1738-60.5078-.1738-60.5078l1.6957-8.4807"/><path class="cls-5" d="M749.0836,151.9725c.5861,3.1383,2.2321,4.5082,4.3166,4.119s3.4476-2.5685,2.8615-5.7067-2.9913-6.6522-5.0758-6.2628S748.4974,148.8345,749.0836,151.9725Z"/><path class="cls-19" d="M748.4586,160.4138a13.0824,13.0824,0,0,0-4.6322-5.7434c-3.4987-2.4715-6.2526-7.3966-6.2526-7.3966,7.2909-1.2141,14.2158,3.7821,14.2158,3.7821,3.8391-7.8122,12.7481-8.1977,12.7481-8.1977-1.86,3.7215-5.8118,16.584-5.8118,16.584C759.1451,162.5576,748.9026,162.0583,748.4586,160.4138Z"/><path class="cls-12" d="M760.2747,146.2454s-2.3028,4.3-2.6043,7.5482"/><path class="cls-12" d="M756.3126,148.0384s-.9236,5.149-1.2251,8.3974"/><path class="cls-12" d="M748.5759,150.2107a8.6425,8.6425,0,0,1,2.9808,7.14"/><path class="cls-12" d="M742.4209,149.2723s5.3646,3.5793,4.7326,7.4072"/><path class="cls-5" d="M739.5185,168.8718c-.2634,4.1292,1.6708,14.1417,5.0083,13.8989s9.4516-10.1684,8.9846-16.583-3.1895-10.0307-6.5271-9.7879S739.9278,162.4534,739.5185,168.8718Z"/><path class="cls-1" d="M741.9159,184.9392c-1.0474-3.8514.2749-5.4391.2749-5.4391a3.8679,3.8679,0,0,1,.2278-4.1483s.535-3.8543,2.27-3.8848c-2.1637.9119-2.7663-1.7991-2.4536-3.022,0,0,.6683-3.3773,3.4038-3.3452l-.3877-.1986c-4.152.2467-1.01-6.6271,1.1362-6.5291-3.9012-.9674-1.6013-4.3608.9782-5.4174l3.7917-1.5314c.9563-.2865,9.2941,3.6276,10.2105,4.3773,2.0825,1.7051,2.7906,1.7225,3.6781,4.223a10.1723,10.1723,0,0,1,.5,4.7123c-.1567,1.5587.2627,4.8613.0611,6.57-.1592,1.3415-1.6887,3.5137-1.9252,4.8429-.18,1.0176-.7622,2.7246-.9753,3.7131a112.6425,112.6425,0,0,1-3.2822,11.8561l-8.7523,2.8616-7.919-3.5753A26.7844,26.7844,0,0,0,741.9159,184.9392Z"/><path class="cls-2" d="M742.7535,191.0047a26.23,26.23,0,0,0-.8376-5.9935c-1.0474-3.8514.2749-5.4391.2749-5.4391a3.8683,3.8683,0,0,1,.2278-4.1485s.535-3.8541,2.27-3.8846c-2.1637.9119-2.7663-1.7993-2.4536-3.0223,0,0,.6683-3.3771,3.4038-3.3449l-.3877-.1986c-4.152.2467-1.01-6.6272,1.1362-6.5291-3.9012-.9674-1.6013-4.3608.9782-5.4174l3.7917-1.5314c.9563-.2865,9.2941,3.6276,10.2105,4.3773,2.0825,1.7049,2.7906,1.7224,3.6781,4.223a10.1723,10.1723,0,0,1,.5,4.7123c-.1567,1.5587.2627,4.8613.0611,6.57-.1592,1.3417-1.6887,3.5137-1.9252,4.8431-.18,1.0176-.7622,2.7246-.9753,3.7131-1.3682,6.3587-2.8314,11.7841-2.8314,11.7841"/><path class="cls-2" d="M755.6257,173.4154h-2.9909s-4.5651-2.1692-7.8124-1.9545"/><path class="cls-2" d="M757.3949,167.2563l-1.8928-.1954s-6.349-2.8743-9.8438-2.028"/><path class="cls-2" d="M758.1506,160.9647a2.3315,2.3315,0,0,1-1.4366,0c-2.2221-.863-6.9287-3.0845-9.595-2.5729"/><path class="cls-2" d="M745.21,176.8812l.7752.6013s3.7457,2.3134,6.1624,1.7c0,0-3.671-1.21-5.195,4.6934"/><path class="cls-2" d="M747.5914,179.6328s-.7908,2.2329-3.4587.797"/><path class="cls-19" d="M736.9574,181.1086l4.1609,6.454L733.5837,201.23l-2.5169-1.57C732.4566,193.5474,736.9574,181.1086,736.9574,181.1086Z"/><path class="cls-19" d="M759.8667,181.9941c.051-1.1726.6972-1.65.6741-2.8527,2.1074,1.7095,3.1563,4.1677,5.0869,6.2027q.4059-.5517.8033-1.1137,1.263,2.3685,2.3419,4.84c.3928-.3176,1.2529-.9665,1.6416-1.2909.2784,2.1834.4406,4.2947.5073,6.4508.1,6.689,2.0773,2.5772,2.1382,2.5723a5.4681,5.4681,0,0,0,.7373,4.8381c-1.64,4.6318.6354,4.0137.6688,4.0351-2.4395,5.1665.8724,4.1811.9128,4.2075q-.9747,1.9266-2.0493,3.7508c.2325.8656,3.0239.8707,3.0254.8669-4.2338,3.7063-2.9954,3.8389-2.9771,3.8975.9686-.0544,2.0213.8726,2.9906.8025-.9885.9735-2.6129,2.0662-3.6377,2.96.4578,1.4516,2.8622,2.0468,2.8662,2.0415a54.4682,54.4682,0,0,1-5.0364,2.6134c.5111.5132,2.75,2.0663,2.7478,2.0724a61.3354,61.3354,0,0,1-6.1878,1.8628q1.2777.7267,2.5452,1.4749-4.413-.3329-8.7674-.9316A61.6646,61.6646,0,0,0,756.82,180.68C757.74,181.516,758.9891,181.0912,759.8667,181.9941Z"/><path class="cls-12" d="M764.8421,230.7015s.36.4262,2.6473-.0121"/><path class="cls-12" d="M766.9431,226.3656a5.607,5.607,0,0,0,3.6441.343"/><path class="cls-12" d="M767.5724,222.71a11.6652,11.6652,0,0,0,5.2852-.51"/><path class="cls-12" d="M768.568,218.0567a14.2425,14.2425,0,0,0,4.64,0"/><path class="cls-12" d="M768.265,213.7441a18.9334,18.9334,0,0,0,5.2623-.001"/><path class="cls-12" d="M768.568,210.1528a9.6445,9.6445,0,0,0,4.64-.6111"/><path class="cls-12" d="M768.2593,206.4919a18.9357,18.9357,0,0,0,5.1186-1.2221"/><path class="cls-12" d="M767.7856,200.9266a18.94,18.94,0,0,0,4.2372-3.1207"/><path class="cls-12" d="M767.5358,196.9617a18.85,18.85,0,0,0,3.2477-2.7772"/><path class="cls-12" d="M764.8421,192.7064s3.3422-2.612,3.14-5.3174"/><path class="cls-12" d="M762.0405,189.0864s2.2088-3.6695,1.67-5.9352"/><path class="cls-19" d="M729.48,218.0567a24.3492,24.3492,0,0,1-7.56-10.4564l1.16.4661a13.0322,13.0322,0,0,1,.1006-1.9755c.0938.1285,1.6553,1.0557,1.6553,1.0557l1.0836-2.5611s3.0392,9.2935,5.9107,10.9378Z"/><path class="cls-19" d="M745.4787,177.2718,756.82,180.68c20.0348,17.322,10.2471,44.9558,10.2471,44.9558-.7112,10.356-18.6626,16.8565-18.6626,16.8565a6.9361,6.9361,0,0,1-4.2526,1.7239,10.9085,10.9085,0,0,0-3.5467,1.48c-.0074.0428-.014.079-.0193.1044a7.868,7.868,0,0,1-2.9527,1.6617c-.6918.463-1.8326-1.32-1.9584-2.3655a5.0967,5.0967,0,0,1,.9715-2.72c-.7017-.034-3.0684,1.3437-3.6367.8813A4.7446,4.7446,0,0,1,731.2,239.927c-2.3159-5.9607-2.61-15.612-2.61-15.612-4.7233-21.6744,12.508-39.6841,12.508-39.6841S746.4211,184.2066,745.4787,177.2718Z"/><path class="cls-13" d="M745.3284,178.9019c.8143,2.96-.1182,5.2615-.9973,8.4871-.9932,3.6464-3.4192,7.1245-5.47,10.2268a41.2783,41.2783,0,0,0-4.8273,9.7121c-2.6549,7.7135-2.6809,15.1605-2.8306,23.1345a39.2222,39.2222,0,0,1-.844,6.833,39.7892,39.7892,0,0,1-1.3713-11.4415c-4.7231-21.6745,11.0267-40.0032,11.0267-40.0032S746.0267,183.1857,745.3284,178.9019Z"/><path class="cls-13" d="M750.1139,234.4129a3.6543,3.6543,0,1,0-.7993,5.1059A3.6546,3.6546,0,0,0,750.1139,234.4129Z"/><path class="cls-8" d="M748.7656,235.206a1.9857,1.9857,0,1,0-.4342,2.7743A1.9855,1.9855,0,0,0,748.7656,235.206Z"/><path class="cls-19" d="M734.45,245.7335a.5713.5713,0,0,1-.5046.0656.713.713,0,0,1-.2026-.1717,2.5572,2.5572,0,0,1-.6183-.9991,3.0068,3.0068,0,0,1,.56-2.2217,15.1768,15.1768,0,0,1,3.233-3.3907c.217-.1842,1.0882-.1076,1.1617.06a1.7936,1.7936,0,0,1-.06,1.1383c-.15.6335-.3214,1.2755-.523,1.8876A6.1827,6.1827,0,0,1,734.45,245.7335Z"/><path class="cls-19" d="M737.413,247.305a.6617.6617,0,0,1-.4672.3012.648.648,0,0,1-.2573-.0734,2.2994,2.2994,0,0,1-.9511-.6913,2.6749,2.6749,0,0,1-.1348-2.1929,25.951,25.951,0,0,1,2.156-5.7523,2.217,2.217,0,0,1,1.4569-.573c.29.29-.3114,1.5-.2695,1.8817.076.693.1346,1.4044.1535,2.1006A7.5653,7.5653,0,0,1,737.413,247.305Z"/><path class="cls-17" d="M746.0847,223.0042s11.9645-16.8512,13.1389-21.8824l-6.2128,7.4443s-4.9879,3.2678-6.2907.1069l-4.1129,8.9488s2.9956-1.9943,4.0409.2414Z"/><path class="cls-8" d="M746.2678,222.5223a.3373.3373,0,0,0-.4435-.0443c-.0657.0678.0444-.0772.058-.1054l.2179-.3341.4338-.67.8662-1.3419,1.7635-2.6612,3.4514-5.3664c1.1512-1.7849,2.2914-3.5782,3.3526-5.4088a34.2453,34.2453,0,0,0,2.7537-5.5851l.898.4476,0,0-6.2124,7.4439-.0081.01a.4553.4553,0,0,1-.1054.0915,10.8092,10.8092,0,0,1-3.4705,1.466,3.7828,3.7828,0,0,1-2.0424-.086,2.7069,2.7069,0,0,1-1.5367-1.5079l.945.0188-4.1129,8.9484-.7542-.6445a5.5784,5.5784,0,0,1,2.3955-.8876,2.5614,2.5614,0,0,1,1.4165.253,2.5169,2.5169,0,0,1,.9816,1.0866.4471.4471,0,0,1,.0483.241l-.0028.0341A36.262,36.262,0,0,1,746.2678,222.5223Zm-.3663.9638a47.38,47.38,0,0,1,.2342-5.6791l.0453.2742a1.2424,1.2424,0,0,0-1.376-.7491,4.6187,4.6187,0,0,0-1.9121.7186l-.0136.0085a.5154.5154,0,0,1-.71-.1656.5214.5214,0,0,1-.0307-.4874l4.113-8.9483a.5152.5152,0,0,1,.9351-.0028l.01.0216a1.6594,1.6594,0,0,0,.9361.9318,2.78,2.78,0,0,0,1.4946.0426,9.8474,9.8474,0,0,0,3.1006-1.3161l-.1131.1005,6.2122-7.4436,0,0a.5122.5122,0,0,1,.898.4476,26.2408,26.2408,0,0,1-2.6278,5.9911c-1.04,1.8819-2.1525,3.7123-3.2761,5.5353-1.1322,1.8171-2.3581,3.5707-3.5618,5.3369l-1.8344,2.6293-.9543,1.2888-.4815.6415-.2417.32-.1722.2219A.8885.8885,0,0,1,745.9015,223.4861Z"/><path class="cls-8" d="M743.12,216.8111a11.7639,11.7639,0,0,1,2.0587-3.8233,11.6209,11.6209,0,0,1,3.2022-2.9326,11.6214,11.6214,0,0,1-2.0586,3.823A11.755,11.755,0,0,1,743.12,216.8111Z"/><path class="cls-8" d="M745.6725,217.6256a14.0877,14.0877,0,0,1,2.4615-3.31,20.9774,20.9774,0,0,1,3.1028-2.672,7.2959,7.2959,0,0,1-2.0587,3.6771A8.8226,8.8226,0,0,1,745.6725,217.6256Z"/><path class="cls-12" d="M753.3068,228.7857s-7.7817-7.1885-17.3113-1.8541"/><path class="cls-1" d="M664.1652,207.9169l-12.9782-9.5078a75.76,75.76,0,0,1-7.4576,6.9774c-8.8658,7.2363-24.0778,18.13-27.762,26.01-3.2837,7.0246-4.2352,13.9088,4.0725,20.0874C634.92,262.55,664.1652,207.9169,664.1652,207.9169Z"/><path class="cls-2" d="M620.04,252.7c16.3911,8.2787,43.2528-43.0495,43.2528-43.0495"/><path class="cls-2" d="M652.1463,197.6374a64.0837,64.0837,0,0,1-7.422,6.9481c-8.2073,6.6314-21.2315,16.496-27.8208,24.2"/><path class="cls-5" d="M682.1426,184.3121c-2.6828,1.7305-4.8092,1.476-5.9585-.306s-.5029-4.27,2.18-6,6.8884-2.3974,8.0379-.6155S684.8255,182.5818,682.1426,184.3121Z"/><path class="cls-13" d="M734.0338,140.4866c-13.017-6.9757-51.9193,39.1267-51.9193,39.1267l-6.4972,7.4695,5.465,4.7536,9.26-10.6452,6.3877,5.4232c1.7728-2.0381,9.99-11.6987,18.5087-21.4754C733.8661,143.755,734.0338,140.4866,734.0338,140.4866Z"/><path class="cls-11" d="M694.4463,181.47s18.9791-18.9131,27.424-32.0819"/><path class="cls-14" d="M687.6337,185.3936l-6.1212,7.0369a1.5061,1.5061,0,0,1-2.1249.148l-4.0553-3.5275a1.5064,1.5064,0,0,1-.148-2.1251l6.1211-7.0369c1.8288-1.9983,3.5114-1.0146,5.0621.3134C688.0317,181.6278,689.4431,183.5414,687.6337,185.3936Z"/><path class="cls-1" d="M663.797,210.4615c3.8649-.9962,4.8006-1.8781,4.8006-1.8781a10.3968,10.3968,0,0,0,5.4262-1.7974s1.1495-2.8268.317-4.35c.2786,2.3316,3.452,3.274,4.36,2.3968,0,0,2.2929-4.2774.9107-6.6382,0,0,7.278,6.7553,5.8287-4.6489,5.2177,5.956,5.3674,3.2915,6.4766,1.7476l-3.3622-8.4c-.2245-.9729-8.3327-5.6026-9.4377-6.0277-2.5122-.9657-2.2979-2.2493-4.91-1.7828-1.4507.26-3.3136.0739-4.91,1.2069-1.2769.9079-3.786,2.8695-5.1711,3.8907-1.0868.8023-2.217,3.2065-3.2549,4.07-.7949.66-1.99,2.011-2.7436,2.6854a33.1889,33.1889,0,0,0-7.23,9.357l.4,8.385,7.0627,3.5892A26.035,26.035,0,0,1,663.797,210.4615Z"/><path class="cls-2" d="M662.27,211.3211a69.176,69.176,0,0,0,6.9212-2.18,8.5586,8.5586,0,0,0,5.1534-2.3379s.7664-2.808-.0661-4.3312a3.4136,3.4136,0,0,0,3.7961,2.9829s2.9545-.3773,1.5351-6.3871c0,0,7.3506,5.7877,6.1156-5.4567,2.7716,2.9106,4.0837,5.6263,6.1916,1.6826l-3.4249-8.364c-.2244-.9729-6.6172-4.0066-9.375-6.0633-2.1576-1.6092-2.36-2.2135-4.9725-1.747-1.4508.26-3.2512.0381-4.8476,1.1711-1.2769.9079-3.8486,2.9051-5.2335,3.9263-1.0869.8024-2.2171,3.2064-3.2552,4.07a16.88,16.88,0,0,0-2.7436,2.6854,31.7374,31.7374,0,0,1-6.8772,7.437"/><path class="cls-2" d="M667.2338,193.8982l1.4807,2.5986s4.1446,2.8926,5.5655,5.82"/><path class="cls-2" d="M671.71,189.3121l1.1069,1.5478s5.64,4.0938,6.6348,7.5492"/><path class="cls-2" d="M676.8722,184.7247a4.6689,4.6689,0,0,0,1.133,1.775c1.9482,1.6057,6.6,4.5967,7.4347,7.0462"/><path class="cls-2" d="M669.3787,204.6641l-.906-.3761s-3.8646-2.1092-4.5275-4.5128c0,0,2.8683,2.5907-1.5067,6.8372"/><path class="cls-2" d="M668.2016,205.3865s-.9434,2.1207.0161,3.0059"/><path class="cls-14" d="M664.5264,211.5455l4.3617-6.1425c.4158-.4758-.7978-.9557-2.4112-2.3519-1.5569-1.3462-2.5-2.9816-2.9016-2.5228l-5.3625,5.4966C655.5649,209.2631,662.4487,214.1113,664.5264,211.5455Z"/></g></g></svg>