<svg xmlns="http://www.w3.org/2000/svg" viewBox="0 0 503.6997 103.9173"><defs><style>.cls-1{fill:#e83820;}.cls-2{fill:#231815;fill-rule:evenodd;}</style></defs><g id="レイヤー_2" data-name="レイヤー 2"><g id="_01" data-name="01"><path class="cls-1" d="M13.32.3442a2.85,2.85,0,0,1,3,2.76c0,1.3193-.48,1.8-2.88,4.2-1.92,1.8-3.12,4.1992-3.12,5.04,0,.4795.12.72.72.96,2.4.84,6.72,2.52,6.72,8.5195a8.8577,8.8577,0,0,1-8.88,8.88c-4.08,0-8.88-2.88-8.88-9.72C0,9.9438,10.56.3442,13.32.3442Zm20.76,0a2.8718,2.8718,0,0,1,3,2.88c0,1.08-.48,1.92-2.76,4.08-2.04,1.8-3.24,3.96-3.24,5.1591,0,.36.12.6006.72.8409,2.4.84,6.72,2.52,6.72,8.5195a8.86,8.86,0,0,1-8.88,8.88c-4.56,0-8.88-3.48-8.88-9.6C20.76,9.7036,31.44.3442,34.08.3442Z"/><path class="cls-1" d="M469.62,30.4633a3.0144,3.0144,0,0,1-3-2.88c0-1.3194.36-1.68,2.88-4.08,2.28-2.1592,3.24-4.08,3.24-5.1592,0-.48-.36-.7207-.84-.8408-2.16-.84-6.72-2.52-6.72-8.52a8.7837,8.7837,0,0,1,8.88-8.88c4.8,0,8.88,3.6,8.88,9.48C482.94,21.104,472.26,30.4633,469.62,30.4633Zm20.76,0a2.93,2.93,0,0,1-3-2.88c0-1.3194.48-1.8,2.88-4.08,2.16-2.04,3.24-4.4395,3.24-5.1592,0-.48-.24-.6006-.84-.8408-2.16-.72-6.72-2.52-6.72-8.52a8.8577,8.8577,0,0,1,8.88-8.88c4.8,0,8.88,3.6,8.88,9.48C503.7,21.104,493.02,30.4633,490.38,30.4633Z"/><path class="cls-2" d="M363.2348,3.9148c-.2819.0292-.5661-.0519-.8481-.0227s-.5972-.1677-.8791-.1385c-.2066.0532-.4131.2191-.6428.2789-.2129.0555-.4825-.0511-.7042.0136-.2157.0629-.3366.4409-.5506.5157-.2157.0754-.3767.2509-.5806.3414a5.0134,5.0134,0,0,0-.587.2853,3.1937,3.1937,0,0,0-.5538.3345,1.8616,1.8616,0,0,0-.3627.5122c-.1087.1935-.41.3092-.44.5433a1.1561,1.1561,0,0,0,.23.639c.0986.1824.0417.5472.2069.7137.1531.1542.5219.101.6993.2361.1836.14.3545.2908.53.4042.22.1425.2929.4626.4369.553.1891.1189.6208-.1178.8.016s.2821.3785.45.5266.1776.4556.3327.6171.2358.3671.3772.5409.4764.1914.6034.3766c.1255.1832.1859.41.2975.6049.11.1926.04.47.1358.6734.094.2006.3046.3416.3839.5528s.11.4332.1723.6587c.06.217.3171.3906.3635.62.0447.221.1163.4476.15.6785.0324.2234.1294.45.1528.6809.0228.2253-.237.4794-.2214.7112.0152.2266.2471.4448.2566.6767.0094.2273.1119.4573.117.6887.005.2281-.2014.463-.2.6943.002.2286.2722.4588.2723.69,0,.2174-.0141.4406-.0064.6783.0075.2266-.2455.4672-.2419.6964.0037.2346-.2315.4549-.243.6757-.0126.2438.2235.49.1779.6957,0,.1944.1133.3849.1133.5794s-.12.3892-.12.5837c-.004.1956.0922.4114.0872.6323-.0046.206-.3989.403-.4092.6145-.01.2133.3026.445.2816.6477-.0231.2217.1566.4485.1148.6371,0,.3111-.119.6134-.119.9245a6.1341,6.1341,0,0,0-.0684.6628c-.0233.2171-.07.4255-.08.6492-.01.2205-.3977.4293-.4039.6516s.3044.4555.2943.6754c-.01.2243-.2024.4331-.2254.65-.0239.2249.23.4787.1825.69-.01.2431-.0756.4663-.0853.7094s-.3463.4571-.3561.7c-.0541.2425.07.5167.0413.7753-.0275.2495-.0832.5028-.0988.76-.0155.2541.1867.5229.1712.7767-.0156.2569-.05.5181-.0772.7672-.0285.2586-.2882.4859-.3425.7278,0,.2139.2849.4621.2849.676a4.5874,4.5874,0,0,0-.19.7568c-.0141.2568-.3751.4975-.3921.7611-.0167.2587.313.5607.2551.8169-.05.2209-.1095.4348-.147.6609-.037.2235-.0325.4489-.06.6765-.0271.2251-.14.44-.16.6676-.02.2263.1432.4647.128.6929s-.4677.4275-.4805.6555.3842.4786.3714.7063.0283.4615.0132.6886-.5112.4189-.531.6451c-.02.2282.32.4913.2927.7166-.0273.2274-.2905.4209-.3275.6443-.0374.2261-.1461.4292-.1959.65a6.0286,6.0286,0,0,0-.19.74c-.0219.2452.2143.5127.2045.7565-.01.2468.0083.4941-.0108.7345-.02.2471-.3416.4476-.3944.6826-.0195.2411.0076.5044-.0119.7456s.0075.486-.012.7272-.0341.4827-.0535.7238-.1324.4748-.1519.7159.2417.5065.2223.7476c-.0439.1972.09.4113.0744.62-.0148.2018-.0319.4-.0391.6083-.007.2038-.343.39-.3605.5962-.0173.2037.2678.4552.2231.6569-.0467.2106-.4228.3895-.4318.6172-.0085.2173.3016.4539.29.6789-.0112.2189-.234.4135-.2823.6324-.0488.2216.0338.4706,0,.6968-.0333.224-.2905.4267-.312.6547-.0213.2254.154.471.1414.7-.0126.226-.25.4467-.2565.6755-.007.2262.1454.4594.141.688-.0044.2267.1316.4573.1271.6858-.0046.2269-.3052.4457-.3126.674s.0481.4527.0353.6807.0822.4582.0616.6856c-.0212.2336.175.4841.1608.7223-.014.2344-.4688.4514-.4773.69-.0084.2351.544.4873.54.7256-.0044.2354-.3019.4671-.3036.7049-.0017.236.2157.4734.2154.7112,0,.2362-.2237.473-.2238.7105,0,.2081.0253.4343.0208.6633-.0045.2232.2.4424.2065.6569.0077.24-.1371.4671-.0947.6586.0048.2285.1563.4578.1612.6863s-.2078.4616-.203.69.2611.4517.266.68-.4243.4876-.4194.716a3.6915,3.6915,0,0,1,.0373.7c.0072.2378.0136.4835.0232.7261s.4378.4357.4911.669-.1741.5234-.1357.76.0527.4708.0815.7083.246.4534.2707.691.2192.4576.2452.6947c.0261.2387-.2888.517-.2559.7528.0332.2379.1466.4651.1924.6986.0461.2355.3247.4075.3894.6368.0655.2322.1464.4608.21.6916.0635.2326-.19.55-.1274.7814.0629.2328.1924.4467.2555.6775.0636.2327.317.4111.382.6413.0655.2323-.0088.5028.0594.7321.0687.231.274.417.3468.6446.0734.23-.19.5717-.1114.7975s.2586.4224.3451.6452.2437.4222.3393.6416c.094.2157.4208.3224.5183.5327.099.2134-.231.6306-.1283.8385.1041.2109.65.1951.758.4.1094.2081.1716.4337.285.6361.1148.205-.1042.6019.0148.8011.12.2016.6112.1728.7359.3687.1261.1979.2566.3832.3872.5754.1317.1939.0431.5376.1795.7257.1375.19.2223.4205.3646.6044s.5079.1909.6561.37.27.3773.4236.552.2353.4133.395.5831.4006.2571.5659.4217.3267.3262.4974.4855.3357.317.5115.4708.282.3839.4627.5322.372.2785.5574.4212.3169.3537.5067.4908.37.2865.5635.4181c.1921.13.5353.0293.733.1554.1956.1248.2711.4407.4721.5614.1988.1193.3975.2426.6017.358.2019.114.3357.36.5429.4705.2048.109.4749.1.6849.2056.2071.1039.4493.14.6616.24.21.0993.336.3869.5507.4829.2117.0947.5452-.0852.7619.0064.22.0932.4812.0661.7089.15.2243.0828.3355.4882.5661.5637.2272.0744.5493-.1544.7819-.0854.2293.0679.4776.0573.7116.1214.231.0633.4586.1307.6934.1917.2318.06.4525.1626.6875.2219.2326.0586.388.4292.6231.4882.2328.0585.4353.2384.67.2986.2075.0532.499-.3641.7077-.338s.3959.1767.6079.189c.21.0121.4129.16.6258.1721.2092.0113.4472-.2363.66-.213.2068.0225.4412.0507.6525.096.1788.0384.3587.2291.6049.2607.2026.0259.4246-.0246.6533-.0059.2128.0174.4158.2918.6366.301s.4466.0955.661.0945c.2287-.001.4616-.02.6667-.0348a5.426,5.426,0,0,0,.6568-.04c.2236,0,.4254-.0309.6491-.0309s.4528-.0786.6765-.0786c.2527-.0243.513-.0221.7658-.0464s.48-.311.7333-.3353.5305.21.7833.1856.52.02.7726-.0048c.2528-.0437.52-.0506.7725-.0944s.4243-.5572.6772-.6009.55.17.803.1261.5255-.0048.7782-.0486c.2268-.064.4307-.2276.6563-.29s.42-.246.6458-.3075c.2272-.0619.54.1919.7652.13.2271-.0623.3477-.5055.5727-.5686.227-.0637.5295.1409.7542.0753s.3424-.49.5658-.5585.5388.1526.76.0794c.2233-.0738.5321.0913.7521.0125s.3064-.5263.524-.6116.4713-.082.6858-.1751.3863-.2765.5973-.3722c.2126-.0965.5709.1206.78.0213.2109-.1.3413-.37.5488-.4727.209-.1036.3359-.3663.5416-.4728s.5626.0663.7664-.0438.3347-.3613.5365-.475.2731-.4554.4729-.5728.5684.0448.766-.0763.4108-.2251.6062-.35.394-.2523.5871-.3806.3168-.3644.5076-.4962.2686-.4237.4569-.5591.4157-.2151.6015-.354.4168-.2182.6-.3606.428-.209.6086-.3548.1659-.528.3439-.6771.4742-.1565.6494-.3088.2656-.3981.4381-.5536.4527-.1916.6223-.35.2527-.4066.42-.5682.2914-.3621.4554-.5267.3947-.26.5559-.4277.5474-.123.7057-.2932.3-.36.4553-.5326-.037-.6521.1156-.8275.7138,0,.8636-.1779-.0439-.6405.1031-.8206.6367-.085.781-.2674.2692-.3837.4107-.5683.063-.5363.2019-.723.3225-.3392.4587-.5279.2763-.3732.41-.5637.3723-.3085.5033-.5009.3334-.3387.462-.533.25-.3946.3757-.59-.1933-.673-.07-.8705.5157-.2256.6372-.4246c.1193-.1955.4046-.2976.5189-.497s-.0853-.5735.0239-.7758.4515-.2808.556-.4856.1917-.4195.2919-.6265-.11-.5579-.0138-.7667.3753-.3315.4681-.5419.33-.3572.42-.5688-.093-.535-.006-.7479.1227-.4427.2075-.6565.4038-.3336.4866-.5482.351-.3572.4322-.572-.0058-.4926.0744-.7079.1431-.4354.2224-.6507.3384-.3645.4174-.58-.18-.5542-.1015-.77.153-.4334.2324-.6493.1832-.4235.2634-.64c.0813-.2188.0252-.4815.1-.7034s.5986-.2982.6674-.5221-.2238-.554-.16-.78.0342-.4711.0933-.698.2888-.4067.3441-.6345.2411-.4232.2934-.6516.06-.4659.1105-.6948-.04-.4853.0088-.7141-.0239-.4812.0238-.71.401-.3937.4486-.623.23-.4291.2782-.6584.0147-.474.064-.7032-.0377-.486.0134-.7146.1278-.45.1814-.6787-.05-.4941.0064-.7217.4291-.3929.4721-.6233c.0439-.2354-.0109-.4966.0109-.7264.023-.242-.2306-.4823-.2409-.71a2.8219,2.8219,0,0,0-.1062-.6616,1.8922,1.8922,0,0,0-.1962-.6418c-.1322-.1856-.146-.5507-.3587-.6814-.2465-.1515-.5765.0452-.8059.0826-.2343.0382-.2973.2992-.5049.4667-.186.15-.4271.2067-.5849.4083s-.5672.2353-.69.4389c-.151.2495-.1117.5806-.2007.7519-.1044.2012-.3223.3428-.4274.5433s-.33.3372-.4364.5371.2311.6368.1241.8362-.5309.2286-.639.4273-.0626.4823-.172.68-.2715.3675-.3823.5647-.154.4337-.2663.63-.4348.2714-.5488.4666-.0214.5127-.1371.7068-.4313.2687-.5491.4619-.1256.4537-.2454.6455.0144.5465-.1075.7369-.6479.12-.7721.3084-.1228.46-.25.6477.0193.5641-.11.7494-.4207.26-.5525.4434c-.1342.1869-.4341.2529-.571.4379s-.2037.4214-.3432.6044-.3857.2818-.5279.4628.0462.6267-.0986.8056-.6788.038-.8263.2147.0088.61-.1414.7845-.5626.1193-.7154.2915-.2831.3609-.4385.5307-.0885.546-.2466.7134-.3805.275-.5411.44-.5122.1389-.6754.3013-.01.6476-.1763.8073-.6541-.0209-.8225.1362-.0654.6088-.2363.7632-.2967.3643-.47.5158-.3947.2523-.5706.4009-.4256.2113-.604.357-.454.1695-.6348.3122-.4451.1729-.6283.3126-.12.6064-.306.743-.5886-.0288-.7765.1045-.3069.3607-.4971.4908-.3314.331-.5237.4578-.3645.285-.559.4085-.4155.2045-.6123.3246-.4154.2017-.6143.3184-.494.06-.6948.1729-.2086.5729-.4114.6826-.59-.1327-.795-.0265-.2015.62-.4081.7226-.5823-.1439-.7907-.0449-.4423.1327-.6524.2281-.3376.3688-.5494.4606c-.2178.0944-.516-.0177-.7379.0687s-.2941.5726-.5191.6517-.5647-.1875-.7919-.1146c-.2254.0724-.3516.47-.58.5382-.2268.0673-.5513-.2009-.7814-.137-.2277.0633-.45.144-.6808.2049-.2288.0605-.4446.172-.6762.2312-.2287.0585-.3786.4339-.61.4921-.23.0579-.5186-.1141-.7507-.0556-.23.0579-.5063-.1142-.7382-.0547-.2431.034-.409.5278-.6521.5618s-.5488-.3789-.7919-.3448-.4378.4137-.6809.4478-.51-.1354-.7528-.1014c-.2334,0-.4372.3206-.6705.3206-.1981.0424-.4831-.2205-.77-.1916-.2333.0234-.4815.1121-.7426.1242-.2481.0114-.5038.1288-.7527.1282-.2608-.0007-.5118-.193-.747-.209a4.8083,4.8083,0,0,1-.7393-.1248c-.35,0-.7141.17-1.0642.17-.2077-.0466-.407-.2638-.6252-.2807-.2134-.0165-.4457.1622-.6619.1427-.2142-.0193-.488.1382-.6982.0856-.2247-.0561-.3786-.37-.591-.4243-.2246-.058-.3941-.2955-.6064-.3531-.2232-.0605-.4878.0544-.6991-.0071-.2212-.0643-.4124-.205-.6223-.272-.2185-.07-.4238-.1558-.6323-.23-.2149-.0765-.4691-.037-.6758-.12-.21-.0845-.4857-.0253-.69-.1187s-.445-.1381-.6456-.2426c-.1973-.1028-.1675-.6232-.3639-.7386-.1906-.1119-.5891.1051-.7811-.02-.184-.12-.3492-.29-.5365-.4244-.1779-.1279-.2242-.45-.41-.5857-.1806-.1317-.5189-.0654-.6944-.2067s-.4077-.2507-.5671-.4054c-.1646-.16.0256-.63-.1072-.806-.1481-.196-.5211-.2147-.6569-.4035-.1426-.198-.2327-.4264-.363-.62-.1352-.2008-.3068-.3743-.43-.5744-.1258-.204-.0021-.5472-.1174-.7548s-.2036-.4155-.31-.63c-.1037-.21-.23-.4017-.3262-.6237-.0928-.2135-.4045-.3384-.492-.5663-.0831-.2161-.4057-.3583-.4851-.5907-.0747-.2184.2575-.5788.185-.8142-.0678-.2205-.1272-.4476-.1939-.6852-.0613-.2186-.3159-.39-.36-.6179-.0433-.2223-.2323-.4333-.262-.6637-.0288-.2243.4116-.5.3933-.7312-.0179-.2256-.3-.4342-.31-.6665-.01-.2259-.2668-.4506-.2713-.6826-.0044-.2268.0341-.46.0328-.6927-.0013-.2272.4511-.4582.4511-.69,0-.1837-.427-.38-.43-.5824-.0028-.1973.3874-.3925.3944-.5814.0078-.2126-.1667-.4193-.13-.5869.0619-.2794.3334-.5669.3329-.8458-.0006-.2988-.4762-.6327-.4187-.8911s.4767-.4619.4931-.7187c.017-.2651.0823-.5257.0962-.7815.0144-.2663-.3166-.5639-.2594-.8128.0587-.2551.4719-.4544.4967-.7031.0256-.2562-.2346-.537-.221-.79s-.1189-.5232-.0928-.7779c.0256-.2495.3683-.4475.4292-.7009.0561-.2333-.2075-.53-.1723-.7712.0346-.2372.0061-.48.0354-.7219.029-.2386.1115-.478.15-.7177.0378-.2372.0465-.4992.1073-.7347.0573-.222.3936-.3742.4455-.5974s.2459-.4184.2935-.6426-.357-.5409-.3129-.7658.4584-.3794.5-.6049-.2133-.5047-.1732-.73-.0431-.4729-.0036-.6987.3576-.4032.3974-.6289.0826-.4511.1237-.6764-.0712-.4807-.0277-.7055.1759-.4336.2228-.6577-.0688-.4871-.0176-.71.32-.3968.3766-.6187.18-.425.2429-.6453c.0608-.2132-.2061-.5125-.1514-.73.0541-.2153.4884-.3388.5386-.5571.05-.2163-.1925-.4989-.1447-.717s.3017-.39.35-.6081.08-.4388.13-.6561.3576-.37.4116-.5862-.1414-.4945-.0811-.7087.0025-.4672.0714-.6787c.0731-.2245.0861-.4669.1569-.6925s.3388-.3892.4074-.6155.2039-.4328.27-.66-.1246-.5274-.06-.7546.4681-.3589.5315-.5865.042-.4791.1041-.7071.1755-.4425.2366-.6707-.0441-.5006.0162-.729.2412-.425.301-.6535-.2037-.5414-.1442-.77.4527-.37.5122-.5991.1313-.4541.191-.6827-.2681-.559-.208-.7875.4778-.3625.5386-.5908-.2461-.5557-.1844-.7836.5142-.35.5771-.5773.0125-.4863.0767-.7133c.06-.2133.3261-.3793.3768-.5949s-.4074-.5412-.3635-.7584.2086-.4062.2484-.6241.3009-.3947.3393-.6125-.1918-.4845-.1517-.7023.0253-.45.07-.6673.317-.3852.3684-.6007c.0194-.2625.2685-.5062.2879-.7687s-.4358-.5772-.4164-.84c.0454-.2123.3615-.3952.3907-.6229.0277-.217-.1254-.4516-.1112-.6792.0137-.22.2623-.4322.2646-.6586.0022-.2215.2124-.4562.2047-.6813-.0076-.2227-.0611-.4548-.0774-.6783s-.0049-.459-.0289-.6806c-.0243-.2244-.3-.4213-.3316-.6409-.0319-.2252-.2426-.4175-.2806-.6346-.04-.2256.3175-.5247.2727-.7383-.0475-.2265-.5435-.3444-.5955-.5535-.0567-.228-.1591-.4221-.2193-.6244-.0689-.2315.27-.5792.199-.77-.081-.2183-.1613-.4394-.2462-.65-.0869-.216-.2859-.3861-.3768-.5945-.093-.2131-.3844-.332-.4817-.5376-.0994-.21.08-.5553-.0241-.7576-.1061-.2063-.2162-.4147-.3271-.6134-.113-.2024-.1345-.4652-.2527-.66-.12-.1979-.4442-.2723-.57-.463-.1272-.1931-.1893-.4336-.3222-.62-.1342-.1879-.5307-.1779-.6709-.3588s-.1125-.4965-.26-.6721-.2638-.3826-.418-.5526-.5247-.1332-.6854-.2975-.1312-.5166-.2981-.6751-.4162-.2242-.5888-.3769c-.1711-.1514-.3365-.3082-.5143-.4552-.176-.1455-.4921-.11-.6746-.2514-.18-.14-.3234-.32-.51-.4562-.1841-.1342-.2149-.4837-.4055-.6149-.1878-.1293-.5039-.0676-.6981-.1943-.1909-.1245-.2667-.4306-.4638-.5529-.1989-.1234-.3762-.2892-.5811-.4067-.2028-.1162-.58.09-.7894-.0194-.2069-.1082-.2016-.6439-.4158-.7448-.211-.0994-.4673-.12-.6861-.2113-.2149-.09-.4912-.0355-.7144-.117-.2184-.08-.3748-.3625-.6018-.4336-.2215-.0695-.5313.15-.7617.089-.224-.0589-.3931-.3667-.6261-.4165-.2265-.0485-.5271.2821-.7626.2427-.2284-.0383-.4124-.388-.65-.4172-.2294-.0283-.4932.2712-.7314.2518-.2309-.0188-.435-.5551-.6746-.5652C363.7126,3.4456,363.4747,3.916,363.2348,3.9148Z"/><path class="cls-2" d="M172.2089,4.7175c-.1945.0324-.3488.3734-.5433.4058s-.4008-.0066-.5953.0258-.3755.0923-.57.1247c-.21.06-.5138-.1586-.7491-.0845-.2172.0683-.4567.1277-.68.2127-.2185.0834-.3571.37-.5659.4739a4.5261,4.5261,0,0,0-.5659.401c-.1978.1378-.2252.3926-.3766.5629-.1576.1773-.5368.1695-.6237.3876a2.2049,2.2049,0,0,0-.21.7448c.162.209.5112.3407.6344.5664.1261.2309.0493.6424.2633.8044.167.1263.4323.1188.6088.2257s.4439.0592.6232.1652c.1756.1038.2983.3086.4708.429.1886.1318.5013.12.6763.2657s.0276.6521.19.813.3987.2344.5468.4094.3239.3176.4569.5053c.1312.1851.4246.2725.5421.4713.115.1947.3021.3706.404.5786.0992.2027.2355.4125.3222.6279.0841.2091-.1972.5605-.1251.7816a4.9185,4.9185,0,0,1,.2093.6534c.0409.2263-.0986.4713-.0732.7055.0249.229.3815.4258.4036.6588.0218.23-.1391.4826-.1085.7136s.3628.4231.4134.65c0,.1944-.4668.4143-.4668.6088s.167.3982.167.5926a4.7194,4.7194,0,0,1,.1083.6633c.0157.2143-.0266.4394-.0263.6693s.117.4606.1014.6751c-.0184.2525-.1971.4513-.2379.6351-.0525.2369.225.5214.22.7765-.005.2461-.0235.4888-.013.7385.0105.2525-.1876.508-.19.7509a3.4155,3.4155,0,0,1-.2175.7131c0,.1848.23.3975.23.5823s.1049.3827.1049.5674a5.35,5.35,0,0,0-.23.6926c-.02.234-.0143.4749-.0206.716-.0063.2382.2685.4852.2624.7231-.0062.2414-.3606.4678-.38.7012-.02.2435-.2314.455-.2817.6813-.01.2527.3188.54.3091.7932s-.1383.4984-.148.7512c-.0486.2184.0443.4586.015.6858-.0287.2222-.36.42-.3768.6475-.0162.2246.1422.4645.132.6916s.2622.4657.2521.6918-.4868.4274-.5028.6518c-.0162.2282.1961.471.1676.6929-.0292.2276-.0915.4476-.14.6654-.0195.2479-.2079.4838-.2273.7318s-.0794.4927-.0988.7407-.0861.4922-.1055.74.1333.5022.1139.75c-.0513.2277.1975.5042.16.7378-.0368.2306-.3358.4246-.362.66-.0259.2324-.016.4717-.0345.7071-.0185.2334.0828.476.0688.7112s-.3341.4522-.3467.687.4208.4953.4068.73-.3175.4512-.3359.6847c-.0186.2355.3232.5078.2973.74-.0263.2349-.6026.3944-.6394.6248-.0373.2335.0891.4855.0378.7132a3.9613,3.9613,0,0,0-.0869.5958c-.013.1986.2872.4131.2769.6048-.0108.2011-.3227.3728-.3644.5577-.0194.2593.1674.54.1479.799s-.1054.5136-.1249.7729.0456.5341.0262.7933c-.0487.2167-.02.449-.0534.6725-.0333.22-.442.3936-.4647.6184-.0224.2215-.0572.45-.0728.6742-.0154.2228.0658.4547.0537.6791s-.0228.448-.0349.6718.26.4666.2447.6895c-.0157.2248.0543.4635.0317.6853-.0228.2244-.1167.45-.15.67-.034.2232-.2342.4226-.2828.6394-.0476.2118.1006.4278.0891.6413-.0118.218.0265.4339.0176.645a4.01,4.01,0,0,1-.0425.6674c-.0146.2382-.4464.4294-.461.6677s.38.5015.3653.74-.36.4562-.3745.6945.2511.5117.2365.75a4.9312,4.9312,0,0,0-.1765.8216,5.1251,5.1251,0,0,1-.1768.8445c0,.1847-.0082.3632-.0082.548s.0118.3757.0118.5605c-.0494.2285.1363.4941.1118.7518-.0227.2373-.4379.455-.4453.7086-.007.2426-.024.4957-.022.7459.002.2465.071.4956.0771.7424.0062.25-.0293.4985-.0237.7414.0059.2537.342.499.342.7375,0,.2421-.0438.504-.0536.7663-.0094.2488-.3549.4914-.3643.7473s.2146.5162.2135.7672c-.001.26-.0366.5129-.02.7574a6.06,6.06,0,0,0-.0164.7648c.0065.2463-.0647.4862-.0583.7325s-.0587.4946-.0523.7409.1192.5021.1257.7484a3.44,3.44,0,0,1,.057.687c.0042.232.2147.4546.2667.6839.0357.2495.1647.4887.2.7383s-.169.5335-.1334.783-.0649.5186-.0292.7682.4957.4386.5314.6881-.2033.5384-.1677.788.2759.4617.3116.7113c.06.23.118.4535.1739.684s-.2948.559-.2405.79.3884.3975.4431.6282.2186.4355.2758.6652.2368.4254.2986.6533c.0623.23.1208.4519.19.6778.0694.2279-.0727.5177.0054.74.0789.2247.1825.4366.2724.6548.0916.2222.0883.4831.1826.7016.0953.2206.3275.3789.4257.5957.0992.2189.1695.4484.2719.6633.1032.2169.0271.5211.1338.7339.1076.2146.2531.4115.3643.6218.1122.2122.284.3927.4.6.117.2095.3862.329.5074.534.1221.2065.3469.3435.4734.5453s-.088.6253.044.8237.5317.2154.6694.41.2807.3812.4243.5715.0022.6049.1517.7908.4919.2159.6474.3969.4041.2752.5657.4511.3709.2967.5385.467.0147.6665.1884.8309.5738.0826.7534.2409.3035.3756.4888.5274.3306.3514.5215.4967.4872.139.6833.2774c.1859.1312.2654.4152.4551.54s.3733.2631.5672.3815.5277-.0057.7253.1068.2582.468.4592.5748.391.2363.595.3377.3918.2382.5984.3346c.205.0956.5759-.1765.7849-.0848.2068.0908.31.42.5211.5074.2086.0865.4464.1022.6589.1857.21.0826.4262.1487.64.2288.2115.0792.3525.3559.5678.4331.2124.0761.439.12.6552.1947.2135.0735.4792-.0016.6964.0708.2143.0713.3925.2574.61.3279a4.7552,4.7552,0,0,0,.741.0544c.24.04.5047-.1105.7508-.0746.2321.0338.3669.5822.6162.645.22.0554.5676-.4261.7981-.3784.2226.046.3632.5445.5948.5835.2248.0379.46.0713.6925.1028.2265.0306.507-.3657.74-.3409.2278.0242.4237.4023.6565.421.2289.0184.4658-.0173.6987-.0041.23.013.4733-.2812.7061-.273.23.0081.4533.2746.6858.2781.2307.0034.464.2462.6963.2453s.4665-.0588.6984-.0639.4656-.0437.697-.0529.4564-.1959.6873-.209.4745.1231.7049.1061c.232-.0172.4313-.4159.661-.4368.2323-.0211.4677.0326.6968.0079.2321-.0251.45-.1319.6779-.1606.2319-.0291.4518-.1.6787-.1322.2321-.0334.5454.4761.7714.4391.232-.0379.4407-.2177.6653-.2592.2314-.0428.4-.3864.6224-.4327.2313-.0482.4987.095.7192.0432.2308-.0541.4469-.1466.6645-.2045.23-.0613.4007-.296.6146-.3611.242-.0737.5-.0721.7277-.1226.2374-.0527.4457-.2007.68-.2549.2277-.0525.5114.1155.7488.0362.22-.0736.3949-.28.6142-.3558s.4533-.1084.6716-.1874.4586-.0985.6758-.18.4187-.2052.6346-.29.3975-.2563.6124-.3438.59.2072.8033.117.3648-.3349.5765-.4282.2911-.4705.5-.5682.3777-.2649.5843-.3672.456-.1085.66-.2153.4667-.1.6686-.2106.3212-.3631.5208-.4784.5091-.04.7063-.16.44-.1664.635-.29.467-.1324.6594-.2594.41-.2246.6-.3553.131-.6175.3184-.7517.4646-.1429.6494-.28.2064-.4867.3887-.6276.4209-.2044.6006-.3485.4229-.2079.6-.3552.2408-.4252.4153-.5755.378-.2629.55-.4161.5019-.1314.6712-.2875.1739-.4871.34-.646.6495.0062.8134-.1554.1146-.54.2758-.7043.45-.2082.6085-.3751.1545-.4879.31-.6573.2629-.3819.4157-.5537.5617-.1223.7117-.2965.2764-.3746.4236-.5512.1658-.4627.31-.6416.1851-.4407.3264-.6219.1962-.4275.3345-.6109.5744-.1478.7095-.3334.0576-.5264.19-.7141c.1388-.1976.4327-.2888.5647-.49s.1666-.4663.293-.6717.2074-.436.3289-.6445.1652-.4576.2828-.6686.2511-.4087.3656-.6214.2479-.4121.36-.6263c.1116-.2124.1768-.449.2879-.6635s.6114-.2263.7226-.4416c.11-.2136-.2186-.6557-.1068-.8708.11-.2124.275-.3934.3815-.6091s.4064-.3351.5086-.5529.3764-.3575.4748-.5771.0616-.4993.1563-.72.2788-.4052.37-.6277-.167-.5839-.0786-.8075.1159-.4664.2017-.6911.6342-.2739.7176-.5-.2431-.5994-.1618-.8258.5375-.3175.6169-.5442.02-.5012.098-.7286-.062-.5273.0148-.7553.1928-.44.2685-.6679.4078-.3708.4829-.5994.12-.4658.1943-.6945.0091-.5027.0837-.7322c.0583-.2389.0774-.4868.1357-.7257s.4253-.4025.4836-.6414-.0437-.517.0146-.7559-.18-.55-.122-.7894.2942-.4345.3525-.6734.27-.4405.328-.6794.2221-.4491.28-.688c.0667-.2475.0056-.532.05-.7782.0456-.25.0226-.5133.0565-.7635s-.224-.5381-.1908-.79c.0329-.2484.0873-.5036.13-.7554.0417-.2453.3878-.4359.4487-.6859.04-.1651-.2053-.4484-.1559-.6823a4.14,4.14,0,0,0,.1392-.5911c.0147-.23.3515-.5031.2858-.68a2.0861,2.0861,0,0,0-.3177-.5686c-.1278-.1507-.4842-.0794-.6365-.2043-.1471-.1206-.2841-.1988-.429-.3379-.2774-.0131-.46-.2935-.6574-.1527a2.2286,2.2286,0,0,0-.56.3845,2.8577,2.8577,0,0,0-.4643.49,4.68,4.68,0,0,0-.2825.61c-.1136.1889-.19.3905-.2894.5939-.0979.2006-.4143.3-.5048.5045-.0918.2067-.08.4574-.1712.6567-.0956.2094-.0351.4975-.1375.6862-.1112.205-.5394.2372-.6515.4416s-.0735.4916-.1866.6954-.3944.3133-.5087.5163-.0229.5227-.1386.7249-.2417.3994-.3589.6006-.3976.3066-.5165.5068-.3085.3571-.4294.5563-.1943.4257-.3172.6235.09.6079-.0354.8042-.2375.4049-.365.6-.3636.3214-.4937.5144-.393.2963-.5257.4873-.15.4651-.2858.654c-.1389.1933-.4128.2878-.5544.4783s-.3644.3183-.5093.5064-.145.489-.293.6749-.3433.3337-.4944.5171-.062.5709-.2161.7517-.5369.1667-.6939.345-.31.36-.47.5359-.17.4924-.3327.6655-.5358.1463-.7015.3166-.1311.54-.3.7074-.3578.3179-.529.4828-.4715.195-.6453.3572-.1408.5524-.3172.7118-.4667.195-.6457.3516-.5492.09-.73.2434-.2423.4492-.4261.6-.2465.4535-.4327.6016-.6462-.0548-.8347.0905-.1839.5415-.3744.6839-.4572.18-.65.32-.3712.2967-.5659.4335-.417.2313-.6137.3653-.386.2753-.5845.4065-.3341.358-.5348.4865-.5237.0591-.726.1848c-.1792.1112-.3995.16-.5855.2732-.1815.1106-.3117.3065-.4984.4166-.1842.1086-.2761.3783-.464.4843s-.4242.1209-.6139.2216-.321.32-.5129.4142c-.1947.0954-.4453.0682-.64.1539-.21.0927-.391.2551-.6041.343s-.45.1135-.6647.1969-.3213.4579-.5381.5371-.448.1249-.6662.2c-.2166.075-.5084-.0642-.7278.008-.2176.0717-.399.262-.6192.3314-.2187.069-.4123.2291-.6336.2963-.2192.0666-.5186-.1284-.74-.0631-.22.0647-.4545.0812-.6771.1451-.22.0633-.3464.4634-.5693.5262-.2116.06-.543-.3763-.76-.334s-.4239.0574-.643.0886c-.2173.0309-.401.304-.62.33s-.4027.32-.6215.348-.4511-.09-.6685-.0544-.4834-.283-.6984-.2341c-.2431.01-.4647.0226-.7078.0323s-.5.0591-.7429.0688a3.6147,3.6147,0,0,1-.7157.2377c-.2276.0158-.4774-.048-.74-.0432-.2413.0045-.4858-.1009-.736-.105s-.5122.3475-.7529.3356c-.2636-.013-.5322.0905-.7582.0691a5.5434,5.5434,0,0,1-.7392-.1354c-.175-.01-.3351.0514-.51.0417s-.3-.5194-.4747-.5292c-.251-.0592-.56.219-.8155.1728s-.4846-.234-.7388-.279c-.2561-.0453-.56.1347-.8106.0786-.2544-.057-.5-.2-.7436-.28-.2215-.0734-.4786-.0558-.6929-.1349-.2189-.0808-.2583-.6142-.47-.701-.2157-.0887-.4737-.0562-.6819-.1513-.2121-.0969-.4947-.04-.6989-.1432-.2077-.1054-.3568-.3159-.5564-.4285-.2025-.1143-.29-.4041-.4842-.526-.1967-.1233-.4312-.1678-.6195-.2992-.19-.1325-.5179-.0719-.7-.2127s-.4789-.157-.6534-.3074-.1465-.5325-.313-.6921-.3867-.2649-.5448-.4334-.45-.2248-.599-.4017c-.1481-.1754-.3451-.3286-.4853-.5132-.1387-.1828-.0828-.5164-.2138-.7083-.1292-.1893-.1238-.4647-.2455-.663-.1161-.1893-.13-.4184-.2307-.6161s-.44-.2766-.5265-.4817c-.0856-.2028.065-.4944-.01-.7048-.0737-.2068-.44-.3165-.5057-.53-.0645-.21-.2771-.3851-.3359-.6011-.0577-.2117-.1111-.4328-.1654-.65-.0531-.2126-.1064-.4307-.1582-.6486-.0507-.2136.3341-.5326.2829-.751-.05-.2138-.043-.4447-.0952-.6628-.0547-.2283-.3323-.3976-.3319-.6235s.2223-.453.222-.6849c0-.22-.3139-.4182-.3638-.6512a3.6852,3.6852,0,0,1-.2274-.6534c-.0147-.2.0921-.4373.0879-.6682-.0038-.21.1412-.4329.1451-.6553.0037-.2172.2994-.4238.31-.64.01-.2234.0245-.4347.0408-.6445.018-.2322-.03-.4485-.006-.6472.0306-.2554.0166-.4646.054-.6317.0529-.2358-.29-.534-.2686-.7806.0208-.2434.3846-.466.3946-.7109.01-.2471-.2965-.5128-.2768-.7522.02-.25.2845-.465.3383-.6962a6.7188,6.7188,0,0,0,.14-.676c.0284-.2281.0725-.4573.0877-.6827.0153-.2278.0262-.4547.0417-.6815s.1772-.4275.2065-.6544c.0287-.2226-.2257-.4889-.1707-.7137.0615-.251.3723-.4639.4126-.7255.0394-.256-.1551-.5508-.121-.8121.0336-.2583-.0356-.5355.0071-.7942s.1686-.5054.2343-.7589c.0573-.2214-.114-.4951-.0621-.7177s.3264-.3927.3738-.6163.2588-.4148.3029-.6393.2389-.4222.2806-.647-.103-.485-.0624-.71-.2453-.5089-.2049-.7338.3525-.4011.3939-.6259.0113-.4632.0548-.6874.3072-.4034.3538-.627.1063-.4408.1572-.6635-.1391-.5018-.0828-.7232.3569-.3747.42-.5945-.3142-.5668-.252-.7877.2549-.4054.3164-.6265.1232-.4424.1839-.6637.3551-.3794.4152-.6008.1651-.4322.2247-.654.1487-.4365.2077-.6584-.1923-.5266-.1337-.7486.1658-.4313.224-.6533.4094-.368.4673-.59.0711-.4565.1288-.6788-.3423-.563-.2849-.7852.2132-.4191.27-.6414.3907-.3734.4478-.5957.2587-.4074.3158-.63.0538-.46.111-.6821.1886-.4251.2458-.6473.0715-.4552.129-.6773-.127-.5067-.0693-.7288.1133-.4446.1713-.6666.41-.3666.4683-.5885-.3433-.5651-.2845-.787.5672-.3233.6265-.5449-.024-.4809.0358-.7024.2428-.409.3032-.6306-.1556-.5184-.0944-.74.4125-.3613.4743-.5825-.3864-.5863-.3236-.8077c.0681-.24.1219-.4628.1713-.7085s.4386-.4254.4761-.6739c.0372-.2463-.1676-.5269-.1353-.776.0321-.2469.3427-.4579.3765-.7064.0337-.2469.188-.47.23-.7178.0415-.2455-.19-.537-.1342-.7819.0064-.2009-.023-.3991-.0165-.6s-.09-.4053-.0832-.6062.03-.4157.0364-.6167a5.66,5.66,0,0,0-.0633-.7687,3.7409,3.7409,0,0,0-.0162-.7337c-.0522-.2331.2129-.5122.2127-.7336,0-.2312.08-.4572.081-.6826a3.2871,3.2871,0,0,0,.0665-.7363c-.0559-.2329-.1568-.452-.21-.6834-.0532-.2339-.2233-.44-.2772-.67-.0551-.2347-.0666-.48-.1265-.7079-.0615-.2335-.4766-.3572-.5477-.58-.0737-.2306.1854-.5728.0965-.7882-.0881-.2137-.281-.3833-.3747-.5922-.0947-.2109-.42-.3087-.52-.5147-.1011-.2077.0109-.5179-.096-.7206-.1077-.2044-.2073-.4122-.3208-.6113s-.32-.3445-.44-.54-.0379-.5239-.1648-.7149-.5514-.1781-.685-.3647-.1358-.4672-.276-.649-.0918-.52-.2385-.6965-.4081-.2624-.5611-.4338-.2718-.38-.431-.5456-.5657-.0829-.731-.2429-.136-.5235-.3071-.6775-.2353-.4381-.4119-.5858-.6157.0306-.7977-.1107-.2962-.363-.4832-.4977-.364-.2767-.5557-.4048-.4136-.2-.61-.3212-.3718-.2658-.5721-.3806c-.1987-.1139-.3023-.4034-.5064-.5115-.2023-.1072-.3715-.2934-.5791-.3949-.2055-.1-.51-.0006-.72-.0954-.2085-.0939-.4991.0084-.7127-.08-.2113-.0874-.3542-.3407-.5705-.4226-.2139-.081-.381-.2983-.6-.3739-.216-.0747-.4072-.2434-.6278-.3128-.2183-.0687-.4927.0337-.7155-.03-.22-.0627-.3883-.3363-.6127-.3939-.2269-.0582-.5369.2159-.785.1872-.2343-.027-.4669-.1613-.7147-.17-.2375-.0085-.4827-.1577-.7279-.1566-.24.001-.4841.089-.7274.0925S172.45,4.7182,172.2089,4.7175ZM229.7023,18.21c.13.18.5253.2145.6545.4348.116.1978.1717.4566.2773.6814.0993.2114.2242.4342.3065.665.0793.2223-.1325.5364-.0759.7726a5.62,5.62,0,0,1,.1023.6926c.0269.2361.2479.4582.2419.7a4.8119,4.8119,0,0,1-.0125.7327c-.0419.2317.0611.54-.021.7707-.0742.209-.4628.2927-.5528.4806-.0945.1975-.2681.3376-.3768.5185-.1112.1851-.0106.5051-.133.68s-.4878.1727-.6179.3448c-.1341.1776-.1835.4392-.3844.6012-.1784.144-.2933.43-.5119.5523a5.8028,5.8028,0,0,1-.7141.2143c-.2219.0861-.4146.3544-.6513.41-.2341.0551-.5487-.3733-.7889-.354a4.03,4.03,0,0,1-.6947.12,3.3479,3.3479,0,0,1-.7029-.0877c-.2284-.0717-.5416.0057-.75-.1208a6.8444,6.8444,0,0,1-.6245-.3285c-.1792-.1367-.3952-.2672-.564-.4217-.1659-.1519-.0617-.59-.2191-.7562-.1545-.1634-.337-.298-.4846-.4728-.1453-.1721-.1516-.4509-.2915-.6317-.1382-.1784-.5431-.1561-.6774-.3407-.133-.1829-.1135-.4761-.244-.6628s-.5031-.2046-.6316-.392.129-.6408,0-.8277-.3965-.2812-.5269-.4661c-.1316-.1866-.2823-.36-.4163-.5415-.1363-.1843-.2362-.3982-.3763-.5745-.1426-.1795-.3847-.2765-.5326-.4452-.1514-.1725-.1975-.4464-.356-.6048-.1456-.1456-.5378-.0887-.7524-.2692-.1752-.1473-.3482-.3247-.5489-.4887-.1852-.1511-.244-.47-.4359-.63-.1891-.1581-.2782-.4272-.46-.59-.1888-.1688-.5245-.1663-.69-.335a7.0717,7.0717,0,0,1-.5713-.492,1.9382,1.9382,0,0,1-.2428-.7143,1.0541,1.0541,0,0,1,.0308-.6951c.0885-.2224.0341-.6127.1945-.7818.1925-.203.6405-.1124.7868-.208.2215-.1448.5807.0378.7984-.1116.2336.0005.3871-.3255.6169-.323.2337.0025.4638.1252.6935.13.2338.0049.4694-.12.6988-.1128.2339.0076.4523.3285.6815.3391.2338.0108.4724-.1471.7012-.1328.2337.0146.4868-.2493.7151-.2307.2334.0189.4213.5041.649.5275.2329.0241.487-.182.7138-.1529.2324.03.4579.0875.6837.1231.2318.0366.4276.2425.6522.2856.2306.0443.4412.13.6639.1819.2287.053.4309.1531.6511.2145.226.063.4886-.0367.7054.0356.2222.0741.5434-.1236.7557-.0391.2174.0866.3245.4287.5313.5268.2109.1.4269.1763.6264.2893.2027.1147.4618.1372.6524.2659.1923.13.19.51.37.6549s.6475-.0381.8144.1226.12.53.2725.7054C229.4591,17.8209,229.5652,18.0205,229.7023,18.21Zm-10.6173,8.052c.13.1754.5126.1715.6374.3523.1233.1784.1876.4094.3.6a6.6265,6.6265,0,0,1,.338.5787c.0891.1933-.1036.5031-.0339.7179a4.8042,4.8042,0,0,1,.15.6926c.0423.2432.2744.4559.2833.6965a6.1088,6.1088,0,0,1,.0412.7415c-.0219.2455.1143.5352.0654.7708-.05.2423-.4318.4077-.5054.6357a6.7077,6.7077,0,0,1-.3364.645c-.1016.2307.02.5663-.0966.77-.1276.223-.5075.2651-.6438.4486-.13.1743-.1568.4327-.3234.5949-.1574.1534-.2255.4384-.41.5752a6.0183,6.0183,0,0,1-.6383.2811c-.195.109-.33.3946-.54.4793-.2082.0839-.5715-.2947-.7905-.2392a4.48,4.48,0,0,1-.62.2353,3.9989,3.9989,0,0,1-.6618.0646c-.2231-.0143-.4853.1469-.7062.0923a4.0205,4.0205,0,0,1-.6975-.1571,4.2032,4.2032,0,0,1-.6449-.3235c-.203-.1414-.1619-.6009-.3413-.7641a6.3653,6.3653,0,0,1-.5393-.4834c-.1607-.1832-.1712-.47-.3157-.6685-.1429-.1965-.5561-.2065-.6868-.4147-.1293-.2059-.0944-.5119-.2154-.7261-.12-.2118-.4972-.286-.6121-.5029-.1141-.2154.1881-.65.0753-.8673s-.3736-.3578-.4882-.5736-.2512-.4226-.3714-.6347-.2046-.4529-.3344-.6589c-.1341-.2129-.38-.3527-.5256-.5548s-.1773-.4962-.3311-.6923-.5473-.2027-.7047-.3962-.2945-.4054-.4509-.6-.151-.5252-.3018-.7242c-.162-.1491-.23-.4118-.3922-.5609s-.4809-.1277-.643-.2768-.4032-.2281-.5652-.3772a8.207,8.207,0,0,1-.3368-.7574,6.2994,6.2994,0,0,0-.4532-.6581c-.004-.2954-.239-.6094-.18-.8016.083-.2723.5291-.3224.7034-.4666.1792-.1482.46-.081.6933-.1936.206-.0995.2875-.5158.5032-.662.2361.001.4962.119.7282.1243.2361.0053.4751-.1183.7067-.1084.2361.01.4519.3341.6832.349.2359.0152.4792-.1374.71-.117.2355.0208.4991-.2353.729-.209.2349.0268.4076.5187.6366.5514.234.0334.4981-.1614.7258-.1217.233.0406.4577.1094.6839.1568.2317.0485.4183.2649.6428.3207.23.0572.4369.1552.6589.22.2272.0665.4251.1787.6439.2536.2238.0766.494-.0068.7088.0789.2195.0875.5533-.091.7631.0062.2142.0991.3051.4474.509.5569.2077.1115.4223.199.619.3215.2.1245.46.158.6479.2941.19.1375.18.52.3581.67s.6515-.0235.8179.14.12.5347.274.7111S218.9455,26.0732,219.085,26.2619Z"/><path class="cls-2" d="M294.9872,6.4533c-.2528.0486-.5307-.14-.7835-.0914s-.4451.34-.6979.3887c-.2174.0712-.39.191-.61.2788-.2169.087-.653-.3-.858-.1923a4.7684,4.7684,0,0,0-.5547.4885,3.0517,3.0517,0,0,0-.4636.5554c-.1467.1806-.47.32-.5527.5429a1.4234,1.4234,0,0,0,.0913.8061c.0683.2186.41.3088.5568.4819.1655.1951.2591.4394.3957.5656.1922.1778.5419.0642.7626.1829s.2239.675.4588.7832a5.9762,5.9762,0,0,1,.6653.3092c.1838.1118.6129-.1479.8029-.0228.1835.1207.2872.3775.4681.51s.4081.216.5775.3583c.1728.1451.3512.3032.5047.4587.16.1623.0915.52.2214.6922.1456.1937.1774.4426.3038.6485s.4367.2946.5455.5129c.1061.2129.2627.4083.3551.636.089.2192.3175.4006.3956.635.0746.2238.1428.466.2092.7049a3.59,3.59,0,0,1,.0418.8341c.0091.2508-.2205.5349-.1578.8164.0351.1577.0667.3617.0951.5914.0246.1988.3033.3968.3028.5953,0,.23-.4247.3463-.4858.5028-.0829.2125.2357.6964.0675.9067-.155.1938-.7032.033-.8893.1975a3.6312,3.6312,0,0,1-.5591.4357c-.2249.1316-.3891.5739-.6877.5836-.2737.009-.5931-.3305-.86-.268-.2138.05-.4443-.0495-.6634-.0153-.2173.0339-.394.343-.6143.37-.2186.0265-.4527-.0651-.6721-.0372s-.4073.256-.6248.2933-.386.2287-.6.2838c-.2354.0605-.5513-.1961-.7854-.137s-.4992.0022-.7332.0607c-.2355.0589-.4563.1736-.69.232-.2354.0588-.4038.3807-.6374.44-.2352.0593-.4448.2119-.678.2718-.2348.06-.4683.1153-.7009.1769-.2344.062-.5391-.1437-.7711-.08-.2338.0644-.45.1875-.6813.2543-.2331.0674-.4363.2278-.6666.2983s-.5842-.239-.8129-.1644c-.23.0752-.3634.4441-.59.5236s-.5044.0308-.7294.116-.4075.2878-.63.3793c-.1974.0811-.3432.31-.5539.4-.2018.0865-.5053-.065-.715.0127s-.4472-.0015-.6608.0506c-.22.0535-.3756.4726-.5945.4809-.2225.0085-.4089-.3051-.626-.3626a1.78,1.78,0,0,1-.6078-.1784c-.2036-.1353-.4536-.1915-.5982-.3564-.1522-.1737-.0919-.4854-.2092-.6839-.1138-.1928-.4633-.2574-.5732-.4661-.1031-.1958-.05-.4862-.1742-.69-.1087-.1784-.2232-.3569-.3368-.5355s-.3727-.2588-.4894-.4342-.2586-.3305-.3785-.5026c-.1211-.1737-.1664-.3976-.29-.5659-.1386-.1888-.4043-.2676-.5514-.4459-.1488-.18-.1937-.4394-.3512-.6094s-.1506-.5086-.3178-.67-.6411.0176-.8173-.1342-.3056-.34-.49-.482-.1124-.6318-.3041-.7651c-.19-.132-.5749.025-.7729-.0991-.1956-.1227-.4647-.1084-.6682-.2239-.2007-.1139-.1946-.6092-.4028-.7165-.2052-.1057-.4907-.0592-.7031-.1589-.2086-.0979-.5205.04-.7359-.0527-.212-.091-.3376-.3864-.5562-.4725-.2146-.0846-.5122.0553-.7331-.0249-.234-.0849-.3271-.6763-.58-.7325-.2429-.054-.5417.0929-.7973.0537-.2466-.0377-.4843-.1844-.7387-.2189-.2489-.0337-.4891-.11-.7418-.1507-.2489-.04-.5156.0589-.7647.0034a2.9171,2.9171,0,0,0-.8525-.2106,2.3143,2.3143,0,0,0-.8318.334,3.2361,3.2361,0,0,0-.5318.4536c-.19.1732-.0056.5419-.0868.7212-.0965.2131-.4194.33-.3936.5518a2.1916,2.1916,0,0,0,.1075.7,4.9838,4.9838,0,0,0,.3495.5964c.12.1785.197.4393.3351.6225.1653.1555.5293.1318.6947.2874s.4083.236.5735.3916c.14.1575.2247.3833.3667.5518.1394.1655.2255.3771.3586.547.1365.1742.1624.4211.2838.5934.1326.1882.5269.203.6466.3978s-.0042.5328.1045.7347.533.2464.6319.454c.0981.2058-.196.5914-.1055.8033.0894.2092.3476.3481.4312.563.0823.2119.3744.35.4527.5676.077.2138-.2265.5636-.1519.7825.0732.2149.3065.3773.3787.5969.071.2159-.0949.5108-.0236.7311.07.2162.1946.4173.2663.6376.0662.2034.3538.3827.4487.6511.08.2263-.02.5256.0559.7771.0725.2414.46.41.5082.6568a5.0342,5.0342,0,0,1,.2078.7828,2.5749,2.5749,0,0,1-.2408.8045c-.0781.214-.2951.3791-.4069.5695-.1137.1937-.073.5223-.2138.6954s-.4431.2268-.6034.3832-.2874.3626-.4588.5057-.2949.3633-.4711.4981c-.18.1376-.4361.1732-.6116.3053a4.4471,4.4471,0,0,0-.4948.4c-.1527.1524-.4661.1556-.6134.3164s-.2435.3635-.3953.5156a4.8373,4.8373,0,0,1-.434.4832c-.1723.13-.4926.09-.647.23-.157.1426-.2862.3394-.4288.4965-.14.1543-.2463.3436-.3765.5158-.1361.1264,0,.5254-.1366.6519s-.5427-.0179-.6788.1085c-.1433.1892-.0024.6177-.1525.8023s-.6788.0541-.8321.2358-.2421.4165-.3957.5977-.1788.4711-.33.6542-.4059.2862-.5512.4737-.2729.3959-.41.59c-.1337.19.0226.5791-.1081.7718s-.4574.2511-.5849.4459-.3787.31-.503.5072-.3.3638-.4207.5625.0088.5477-.1093.7483-.4558.2737-.5709.4762.1386.6094.0263.8134-.62.1924-.73.3981.0826.5685-.0242.7755-.526.2541-.63.4623.1982.6156.0965.8252-.48.2849-.579.4957-.29.379-.3871.5907-.17.4354-.265.6484-.2426.4036-.3351.6175.1646.5731.082.79c-.0834.2183-.2112.4145-.2857.6347s-.01.48-.0773.7036-.101.4483-.1631.6734c-.0616.2235-.5489.3337-.607.56-.0575.224.1978.5279.1421.7554-.0551.2246-.3265.3981-.3815.6264-.054.2243-.0293.47-.0848.6978-.0545.2244-.3644.3869-.4218.6154-.0561.2237.0033.4772-.057.7053-.0586.2218.1537.5134.1031.7458-.0489.2251-.4087.3935-.45.6271-.04.2274.307.5193.2739.7536-.0325.2293-.0556.4557-.0813.69-.0252.2308-.1262.4513-.1449.6862-.0185.2319-.2224.452-.2346.6868-.0121.2328.2873.4759.2814.7105s-.4641.4615-.4638.6957.3317.4647.338.6985-.2312.4783-.2189.7114c.0125.2347-.0992.4819-.0807.7141.0187.2348.333.4434.3579.6745.0253.2346.2759.4352.3075.665.0323.2346-.1277.4909-.0888.7192.04.2341.0867.4612.1334.6874.0481.2329-.0993.5076-.0439.7306.0574.2317.1992.44.2644.6594.0683.23.2754.4066.3521.621.081.2266-.0383.5263.052.7339.0945.2172.422.3253.5317.5375s-.0449.5718.0779.7762.5032.2446.6384.4407.0151.5842.1619.7712.3266.365.4845.5422.4648.2249.6334.3913c.17.1681.5193.1282.6985.2826.1816.1565.293.3738.4824.5147.1926.1433.2146.5308.4141.6565s.4352.2088.6455.3207c.2082.1107.3463.3794.56.4825s.5531-.0554.7672.0456.3619.3388.5725.4442c.2134.1068.3491.33.5525.4468.2073.1189.6635-.1612.8549-.0256.1942.1377.1478.5725.32.7339s.5159.1609.66.3522a5.19,5.19,0,0,1,.2739.6236c.1068.1923.0618.4516.1505.6588.0864.202.5542.2625.628.4752.0722.2079-.1395.5148-.0749.73.0635.2118.0852.4363.1454.652.06.2137.4721.3294.5325.5441s-.0332.47.0319.6822.0517.4493.1259.6579c.075.2109.0711.4529.1592.6557.0868.2.2894.3432.3948.534s.4009.2476.5229.4281.0592.4811.1963.65.3353.2758.486.4325.3966.1929.56.3361c.1646.1446.268.3326.4422.4611.1766.13.1954.4861.38.5985.1975.12.35.3955.5728.4919.2121.0919.6029-.2712.8345-.2.2214.0684.4486.0542.6848.1052.2274.049.4052.3429.6437.3769.2311.0329.4623.1026.7016.1223.2334.0193.4743-.0561.7133-.0485.235.0074.4667-.2108.705-.2139.2361-.003.4915.547.7288.5345s.464-.2482.7-.2693.4573-.1885.6915-.2176c.2373-.0294.4716-.051.704-.0877.2373-.0375.4625-.1127.6925-.1569.2369-.0455.47-.0757.6965-.1273.2368-.054.5471.2006.77.1411.2365-.0632.4022-.3615.62-.43.2364-.0739.5291.0344.74-.0438.2208-.082.4029-.214.6134-.2772.2181-.0656.3966-.2458.6108-.3144a6.6223,6.6223,0,0,0,.6425-.21c.21-.0911.4768-.0593.6839-.1546s.2868-.4638.4917-.5636.4763-.0673.6791-.1714.4433-.1417.644-.25.5-.0481.6985-.16.2719-.45.4683-.5657.277-.4245.4713-.5438.3714-.2617.5636-.3841.6254.1236.8156-.0019.2713-.4195.4594-.5479.4509-.1544.6371-.2855c.1809-.1275.301-.3442.4759-.4793s.31-.3218.48-.4629.3668-.2513.5342-.3959.1314-.52.2972-.6661.4078-.2064.5738-.3523.4686-.1359.6363-.2795.3-.33.4713-.4693.2307-.4031.4069-.5363c.175-.1815.4451-.2526.62-.4341s.2188-.49.3939-.6711.6382-.083.8132-.2644c.1622-.1622.2161-.4293.3783-.59s.19-.4554.35-.6181.3606-.2822.5165-.45.1837-.437.3324-.6115.466-.2032.6046-.3868c.1556-.1361.4834-.1145.6389-.2506.1444-.1914.0042-.6311.156-.8211s.2441-.4447.4059-.6242.6275-.0685.8049-.2313a5.1557,5.1557,0,0,1,.5718-.411,2.7677,2.7677,0,0,1,.5849-.4218c.2278-.0855.4973.0464.748-.005.2387-.0488.4333-.3358.6855-.3664.2446-.03.5081.1.7589.0761.248-.0238.5044-.0208.7521-.05.2494-.0295.4916-.1683.7345-.2146a6.0057,6.0057,0,0,0,.7251-.2211c.2145-.07.4222-.1695.6317-.2544s.3815-.2527.5845-.3515.3566-.279.5522-.3914.49-.0628.6775-.1883.3937-.2367.5715-.375.2579-.3987.425-.55.4519-.1882.607-.3514.222-.4133.3633-.5884.3483-.31.4743-.4963.0415-.5015.15-.6987.549-.2381.6386-.4451a6.5229,6.5229,0,0,0,.2963-.8017c.0744-.2669.089-.56.151-.8187.0468-.1958-.1157-.4613-.1095-.6865a5.1707,5.1707,0,0,0,.0145-.6518,4.3878,4.3878,0,0,0-.1266-.6395c-.0642-.2509-.3-.4353-.3608-.6539-.068-.2466-.0233-.5041-.1-.7221-.0816-.2322-.3028-.3809-.411-.5962-.1049-.2087-.0354-.514-.1813-.7216a6.9115,6.9115,0,0,0-.3846-.5849c-.1507-.1735-.4887-.1828-.6425-.3556s-.1529-.475-.2936-.659a4.4559,4.4559,0,0,1-.33-.5957c-.107-.1962-.0579-.4285-.1283-.6581-.0823-.2687-.55-.4811-.5265-.7315a3.5187,3.5187,0,0,1,.22-.8119c.0976-.27.5861-.3718.6734-.585.0857-.2091.0575-.4694.1334-.6823s-.198-.5438-.128-.7581c.0706-.2162.4872-.3189.5551-.5325.0692-.2178.16-.4248.2306-.6365.0723-.2175.2476-.4054.3158-.6246s-.3452-.5831-.2806-.8035.5117-.33.5731-.5512-.2112-.5313-.1526-.7535.1757-.4257.2319-.6484.2062-.42.26-.6432.1489-.4354.2016-.659-.0511-.4811,0-.7046.0671-.4536.118-.6775.1749-.43.2255-.6538.3991-.38.45-.6038.0559-.4574.1072-.6816.09-.4489.1421-.6726.16-.4328.2133-.6566.2122-.42.2674-.6433-.2782-.5372-.221-.76c.0361-.22.03-.44.0659-.66s.5137-.3663.55-.5858-.3983-.5164-.3622-.7358.2655-.4072.3016-.6267.21-.4162.2465-.6357-.3381-.5065-.302-.7259.2451-.4144.2813-.6338c.0534-.225.0874-.4537.1221-.693.0334-.23.115-.4552.1369-.6939.0215-.2341.2939-.4522.31-.6895s-.2283-.4912-.2122-.7263c.0164-.2389.2368-.4582.259-.6908.0229-.2406-.2719-.518-.2365-.7464.0373-.2412.36-.4209.4187-.6424.0626-.2373-.2085-.6038-.1126-.8108.1022-.2206.4051-.3675.5558-.5445a2.4144,2.4144,0,0,1,.5169-.5571,1.3646,1.3646,0,0,1,.6682-.0826,1.642,1.642,0,0,1,.5917.1929c.1913.0788.4336.0655.6.1524.2274.1188.4873.1821.7006.3051.22.127.3031.48.5124.6124.2132.1346.3887.3182.5949.4587s.4426.2362.6466.3836c.201.1453.2659.4739.4687.6261.1765.1325.65-.0868.8264.07.1668.149.219.4386.3834.6044.159.1606.0938.5313.2488.7028.153.1694.5077.1591.6551.3346s.1675.4556.3084.6339c.1444.1827.2.4237.3346.6029.1417.1887.4319.2566.5606.4358.1314.1829.3015.3376.4277.524s.4707.233.592.4229-.0833.5832.0332.7763.0976.4584.2094.6545.7056.1221.8129.3208c.1066.1972-.1567.5919-.0535.793.1023.1993.0835.4558.1827.6591.0983.2013.3737.316.4692.5213.0944.2029.2985.3571.39.5639.091.2046.2738.3724.3627.581.0878.206-.0513.5087.0347.7186.094.23.0366.5052.1162.7433.0786.2352.4016.3914.47.6328.0679.239.2271.4567.2891.7.0615.2409.2254.4589.2848.7015s-.04.5233.0216.7652.2928.4354.36.6752c.0616.2208-.3368.55-.2941.7773.0423.2251.3209.4081.3515.6373.03.2271.0525.4567.078.6859s.1259.4476.1531.6759.0714.45.107.6771.24.4336.2909.6574c.01.2237-.0528.4756-.0431.6992s.0169.4312.0266.6548a5.5731,5.5731,0,0,1,.118.6519c.0195.212-.1818.4513-.1763.6745.0052.2152-.1043.4337-.1064.6541-.0021.2179-.1137.4346-.1175.6526-.0038.2205.2038.4434.2039.6589,0,.202.13.4192.1339.6414.004.2167-.0724.44-.0793.648-.0077.233.1135.47.0727.6558,0,.2041-.1444.3884-.1444.5926s.2267.4389.2267.643a4.6157,4.6157,0,0,0-.2242.6407c-.0188.22-.1775.434-.196.6529-.02.233-.284.4215-.33.6228-.0194.2333.373.5174.3536.7508s-.2843.44-.3037.6737c-.0529.22-.1443.4312-.1873.6542s.121.4832.0838.7071-.04.4531-.0751.6771-.2336.4226-.2711.6456c-.0377.2247-.1315.436-.1753.6576-.0442.2235.0073.4646-.0473.6835-.0551.2209.0848.5043.0149.7191-.0753.2314-.4647.3608-.539.5918s-.2574.4283-.3317.6592-.0734.4868-.1486.7173-.2556.4262-.3324.6559-.0289.5015-.1084.73c-.08.23-.2741.4156-.3571.6428-.0837.229.24.61.1521.8352-.0883.2273-.1092.4866-.2023.71-.0939.225-.3709.3744-.4706.5945-.1005.2222-.1239.484-.2312.7007-.1081.2183-.178.4636-.2939.6757-.1167.2136-.6234.2006-.749.4074-.12.1969.08.5882-.04.7837s-.3834.3049-.5054.5-.0882.49-.2118.6834-.4188.2782-.5443.4705-.2247.4025-.3525.5933-.3482.3187-.4785.5079-.2042.4168-.3371.604-.21.4153-.3457.6c-.1584.2157-.5369.2331-.7261.4311-.1871.1959-.14.6191-.3271.8133a6.4494,6.4494,0,0,0-.4869.6351c-.1552.2052-.4065.3474-.5817.5474-.1715.1958-.2862.4556-.4721.6415s-.5294.2054-.7251.3769c-.2.1752-.1638.6192-.3691.7743-.1556.1555-.6646-.0707-.82.0849s-.0922.5366-.2478.6921c-.1956.1475-.2952.4239-.4887.5745s-.4131.2648-.6055.4166-.37.3226-.5629.4742-.3788.3145-.573.4641-.5353.1076-.7321.2537-.4985.1415-.6991.2825c-.1918.1348-.3057.3781-.501.5088s-.3369.3411-.5351.4675-.3039.4035-.5047.5258-.6509-.1779-.8541-.06-.1653.6553-.3707.77-.5692-.0626-.7766.0483-.3161.4064-.5254.5138-.555-.062-.766.0421-.2233.6151-.4359.7161-.5533-.0744-.7673.0236-.3674.3261-.5826.4213-.4478.1462-.6639.2387-.4089.2381-.626.3281-.5181-.0294-.7363.0585-.3548.3764-.5739.4621-.53-.0706-.75.0132-.4518.1273-.6724.2094-.3089.5168-.53.5971-.5459-.1319-.7675-.053-.4186.2218-.6408.3-.3278.4864-.55.5628-.528-.0917-.751-.0162-.3978.29-.621.3646-.547-.1522-.7712-.0781c-.2225.0737-.4153.2308-.64.2974s-.4271.21-.6537.2709-.4037.3189-.6313.3756-.5013-.0735-.7294-.02-.4058.3237-.6341.3766-.5019-.0908-.73-.0375-.4614.0841-.6891.1393-.4987-.0589-.7255,0-.4008.3176-.6263.3809a5.8293,5.8293,0,0,1-.6906.0858c-.2267.0343-.4308.25-.6576.2809-.2318.032-.5241-.2807-.7421-.2285a2.9715,2.9715,0,0,0-.62.3673,3.3743,3.3743,0,0,0-.5905.3763c-.2.1672-.21.4349-.3122.615-.1241.2191-.4462.3823-.438.6026a1.56,1.56,0,0,0,.2886.6948c.1162.18.48.1282.6816.2779a2.4581,2.4581,0,0,0,.54.36c.2007.0848.3343.5075.5741.5618.2479.0048.5163.0179.7643.0227s.4964-.0157.7444-.0108.4958.0149.7437.02.528-.4592.776-.4543c.1839.0392.3648.2771.583.2888.197.01.4016.1684.6112.1662.2046-.0022.4035-.3634.6063-.3689.212-.0059.4266.0785.6214.0785.2441,0,.516-.063.7852-.056.2621.0069.5154.03.7684.0237.2809-.0074.5756.4146.8033.3644.2431,0,.4629-.0157.706-.0157s.4949-.1172.7379-.1172a4.5846,4.5846,0,0,1,.6143-.2222c.2079-.0155.421-.19.6343-.192.21-.0019.4244.248.636.2452s.425-.0087.6344-.0261c.211-.0175.3918-.1907.5971-.2371.2284-.0517.4971.1159.7322.0886.2322-.027.4654-.0015.7014-.0171.2341-.0155.4634-.1219.6985-.1383s.4439-.2572.677-.2864a6.4831,6.4831,0,0,0,.6972-.0254c.2375-.0561.5258.118.7658.0685s.43-.3514.6705-.396.4784-.1144.7194-.1561.4875-.0614.7286-.102.5379.2373.7783.196c.242-.0416.4641-.1992.7033-.2432.2421-.0446.4783-.12.7163-.169.2411-.05.415-.3818.6508-.4379.24-.0571.51.0374.7433-.0285s.46-.1513.6834-.2c.2334-.05.4861.016.7142-.0289s.458-.0926.6883-.1471c.2231-.0527.5068.0639.7365-.0111.2157-.07.3653-.343.5809-.4122s.415-.1945.6311-.2632.47-.022.6855-.0907.38-.3023.5954-.3716.4857.0276.7007-.0428.3277-.4494.542-.5214.5764.2861.79.2117.3169-.46.5291-.5377.5272.1168.7381.0359.3288-.4008.5379-.4858.5054.034.7126-.0559c.2169-.0941.2871-.5177.5019-.6137s.4732-.0942.6869-.1927.4921-.06.7046-.1613.5083-.0356.7195-.1392.4218-.2172.6317-.3233.4174-.2254.6259-.3342.29-.4614.4972-.5729.3679-.3068.5735-.4211.4708-.1224.6749-.2394.3929-.2607.5953-.3806.3464-.3355.547-.4583.4652-.1418.664-.2675.286-.4227.483-.5514.5257-.0569.7207-.1886.3635-.3028.5565-.4376.3031-.384.494-.5218.3871-.2641.5757-.405.5685-.03.7547-.1741.3136-.3659.4974-.513.3051-.3711.4864-.5213.4944-.1456.6731-.299.4471-.21.6231-.3663.3222-.3526.4954-.5122.355-.3161.5253-.4789.1661-.5074.3335-.6733.3162-.349.48-.5179.1713-.4838.3324-.6558.6117-.0758.77-.2508.26-.4012.4148-.5792.4594-.2313.6107-.4122.18-.4658.3278-.65.217-.43.3613-.6164.3866-.2991.5274-.4884.2134-.4292.3506-.6213.3712-.3172.5047-.5119.0275-.5493.1573-.7466.5107-.2315.6369-.4312c.12-.19-.09-.578.0232-.77s.2747-.3521.3819-.5477.1709-.41.2731-.6087.2947-.3482.3924-.5493.2257-.3851.32-.5883.25-.3759.3406-.5807c.09-.2031-.1018-.5283-.0135-.7343.0876-.2042.5625-.2449.6492-.4521.0857-.2047.1473-.4214.233-.6291.0846-.2052-.1225-.5319-.0371-.74.0842-.2053.3205-.35.4062-.5581.0895-.2177.1986-.43.28-.6566.08-.222.3433-.3872.4168-.616.0724-.2251-.03-.5086.0381-.7387.0672-.2274.3368-.4.4011-.6308.0638-.2287.0315-.486.094-.7164s-.2638-.5663-.2012-.7967.2229-.4264.2871-.6554c.0389-.2217.2781-.3989.317-.6206s.0481-.4486.087-.67-.079-.4709-.04-.6926.489-.3713.5279-.593.0766-.4359.1155-.6576c.0576-.2465-.238-.5571-.2166-.8124.0212-.2526.1814-.4987.19-.7533s-.0425-.5125-.0236-.7638c.0194-.2569-.1038-.5274-.0492-.7724,0-.2139.1292-.4109.1292-.6248s.165-.4128.165-.6267a6.244,6.244,0,0,0,.0681-.6912c.0176-.2158.0551-.4565.0609-.6991.0054-.2264-.3727-.46-.3768-.6934s.4174-.4841.4044-.71c-.0139-.2435-.1526-.475-.1758-.6893-.0286-.2636.1163-.5237.0752-.71-.0129-.22-.2655-.407-.2785-.6274s-.2531-.4274-.2661-.6478.3046-.4709.2917-.6913c-.0469-.204-.3-.3841-.3247-.5961-.0246-.2084-.03-.4234-.0486-.6351-.0188-.21.0536-.43.0254-.6391s-.2258-.378-.2785-.5823c-.0576-.2234-.0349-.4688-.0876-.6927s-.3075-.4051-.3573-.63c-.05-.226.1323-.5032.0834-.7282s-.2626-.415-.3125-.6395-.0286-.4648-.0815-.6881c-.0532-.2249.1112-.5025.0533-.724-.0585-.2238-.4057-.3637-.4711-.5832-.066-.2214.22-.5542.1449-.7706-.0756-.218-.4508-.3224-.5379-.5345-.0848-.2066-.0749-.4526-.1588-.66s-.1105-.4381-.1945-.6455-.1706-.4143-.2557-.6211-.245-.3829-.3323-.5885-.0473-.468-.1379-.6719-.2512-.3782-.3463-.58-.2808-.36-.3817-.5582.0188-.5181-.089-.7127c-.1086-.1962-.3468-.32-.4628-.51-.1232-.2016-.0415-.5334-.1681-.7332s-.2452-.4094-.375-.6072-.3622-.33-.4952-.5261-.2086-.4343-.3448-.6276-.3775-.3144-.5169-.5054-.2409-.4125-.3835-.6011-.4918-.2185-.6376-.4047-.3963-.2848-.5453-.4684.0857-.684-.0664-.8651-.3153-.3582-.4706-.5365-.6841-.0252-.8425-.2007-.0022-.6392-.1638-.8119-.544-.1352-.7087-.3049-.3186-.3468-.4864-.5134-.3427-.3227-.5135-.4862-.2652-.4065-.4391-.5667-.532-.1124-.7089-.2693.0077-.7291-.1723-.8826-.6453.0334-.8282-.1165-.4036-.2461-.5894-.3924-.3314-.3377-.52-.48-.2275-.4857-.4191-.6245-.3557-.3192-.55-.454-.485-.1288-.6822-.26-.3114-.39-.5113-.5168-.4717-.138-.6742-.26-.39-.269-.5951-.3872-.4859-.0973-.6935-.211-.3132-.4153-.5232-.5246-.574.0919-.7863-.0128-.4246-.1939-.6392-.294-.3673-.3235-.5841-.4189c-.2108-.0927-.4583-.09-.6721-.1779s-.4116-.2-.6271-.2838-.3953-.25-.6124-.33-.47-.0468-.6884-.1235-.3387-.4269-.5578-.5007-.4958.0333-.7159-.0383-.4843.0054-.7052-.0646c-.2189-.0693-.393-.2806-.614-.3492s-.4617-.0666-.6834-.1346-.4006-.2673-.6224-.3349a5.8979,5.8979,0,0,0-.6394-.2109c-.2123-.0416-.4047-.2705-.633-.3079-.2206-.0361-.4534-.0145-.6756-.0531-.2265-.0393-.4642.0093-.6786-.039a5.3653,5.3653,0,0,1-.6279-.2351c-.2324-.0815-.3208-.2978-.4868-.4158a4.4391,4.4391,0,0,1-.5451-.4582c-.1773-.1729-.4585-.2337-.6086-.4319-.16-.2117-.6124-.3057-.7012-.5192-.0389-.22.0412-.4909.0023-.7113s-.0008-.4544-.04-.6748-.2092-.408-.2481-.6284c-.0636-.227.2892-.56.2275-.7887s-.6208-.32-.684-.5479c-.0637-.2289.407-.6131.3383-.8381-.07-.2277-.3993-.3749-.4776-.5957-.08-.2248-.1708-.4439-.2635-.6587-.0936-.2171-.04-.5074-.1437-.72s-.3912-.3342-.5055-.5419-.4293-.29-.5535-.4917.1854-.685.0514-.8806-.5792-.17-.7227-.3591-.0073-.605-.16-.7864-.3962-.2948-.5581-.4683-.2446-.4381-.4152-.6032-.6091-.0423-.7881-.1984-.4521-.18-.639-.3267c-.1853-.1454-.2645-.42-.4588-.5571-.1925-.1355-.1932-.57-.3944-.6966-.1991-.1253-.4949-.11-.7026-.2261-.2052-.1149-.3811-.3054-.5946-.4109-.2107-.1041-.5668.098-.7856.0033-.2156-.0933-.379-.3122-.6025-.3959-.22-.0824-.3913-.3242-.6187-.3969-.2235-.0714-.4412-.206-.672-.2678-.2263-.0605-.5028.0435-.7361-.0074-.229-.05-.52.226-.7555.1856-.2311-.04-.415-.3868-.6525-.4169-.2322-.0293-.477.025-.7154.0051-.2337-.02-.4647-.1557-.7042-.166C295.4478,6.1345,295.227,6.4542,294.9872,6.4533Zm-.158,23.08c.2287,0,.4626.2841.67.3672.209.0838.5566.0063.73.1484a3.0713,3.0713,0,0,1,.5445.5086c.1366.196-.2361.6306-.1818.8318a1.1752,1.1752,0,0,1,.1043.5887c-.0482.2527-.0423.508-.0827.6772-.0506.2121-.2942.3984-.32.6032-.0267.2128.0723.443.0546.6521s.2041.4443.1769.655a6.063,6.063,0,0,1-.2358.6043c-.06.237.1676.5339.1188.7742s-.5932.3856-.6357.6272-.0532.4888-.0944.73.358.5614.3131.8021-.2436.4556-.2972.6944-.0432.5008-.11.7365c-.0621.218-.12.4362-.18.6549s-.3982.3611-.4578.58-.2287.4093-.2878.6285.1027.4988.0435.718-.0578.4548-.1174.6732.0264.479-.0344.6969-.1279.4374-.19.6548-.1852.4216-.25.6385-.3612.365-.4289.5807-.1424.4293-.2135.6435c-.0718.216.1032.5162.0279.7289-.076.2145-.5466.2817-.6268.4924-.0809.2127.3322.62.2465.8284-.0941.2287-.6487.27-.7261.4873-.0831.2331-.1418.4578-.2259.6721-.09.2292.2181.6413.1023.8429-.1187.2064-.5349.203-.7081.3735-.16.1571-.3877.1551-.6162.2759-.2086.11-.4518.6282-.8235.546-.1946-.0431-.3489-.24-.556-.3657-.18-.1088-.4786-.0812-.6556-.2284-.1691-.1405-.4508-.1915-.6071-.3475-.1628-.1625-.0827-.5564-.2208-.7145a5.4666,5.4666,0,0,1-.3211-.583c-.1366-.1813-.3309-.329-.4785-.5065-.1455-.1747-.5024-.1754-.6494-.3518s-.3715-.3-.51-.4816-.2787-.3893-.4007-.5828c-.12-.19-.0006-.53-.1146-.727-.1126-.1943-.2748-.3624-.3823-.5624-.1064-.198-.2966-.3563-.3984-.5593-.1009-.201.1622-.5783.0654-.7835-.0961-.2037-.4681-.2788-.5606-.4859s-.0529-.4685-.1418-.677-.2872-.3682-.3729-.5776-.31-.3633-.393-.5737.0735-.5145-.008-.7255-.0225-.4748-.1028-.6861-.5259-.2854-.6055-.497.1208-.5284.0415-.7392c-.0859-.2285-.2443-.42-.3154-.6467-.0723-.23-.2613-.4224-.3284-.6522s.0815-.5244.01-.7553c-.07-.2256-.4117-.3632-.4963-.5925-.0594-.161.0044-.4261-.0684-.6538a1.0789,1.0789,0,0,1-.0513-.5976,3.2286,3.2286,0,0,1,.1416-.8359,6.269,6.269,0,0,1,.4427-.72,2.47,2.47,0,0,1,.6287-.4519c.1988-.1326.3606-.3971.5918-.5.2229-.1.5146-.0664.7453-.1552.2346-.09.5613.0444.781-.0511.2177-.0946.2626-.6036.4845-.695.22-.09.469-.1219.6925-.2093.2213-.0866.6.2371.8252.1534.2227-.0829.3291-.4867.5551-.5669.224-.08.4029-.3.63-.3776.2251-.0764.5906.2645.8185.19.2263-.0737.4021-.3057.631-.3772.2269-.0709.3821-.3833.6113-.4522s.5229.08.7532.0128.4058-.3619.6366-.4267c.2217-.0427.558.4489.78.4061s.4062-.2783.6279-.3211.465.0264.6867-.0164.4516-.043.6733-.0858S294.6075,29.5763,294.8292,29.5335Zm-24.384,15.2982c.2046-.004.4631.2292.6329.2468.2008.0207.5012-.1631.67-.1228.1556.1556.4118.3271.5674.4826.1235.1846-.2541.6474-.19.88.06.2175.2164.4078.2624.6371a5.7387,5.7387,0,0,0,.2492.66c.0713.2171-.0572.5.0141.7169s.2547.3976.326.6147.3716.3592.4429.5763.0266.4725.0979.69.4148.345.4861.5621-.3381.6021-.2668.8193c.092.2218.2163.44.3092.66.0937.2211.6.2642.6943.4826.0956.22.0514.4992.1484.7167.0978.2193.2625.4057.3619.6221.1.2181.2036.4316.3057.6468.103.2169-.0526.5574.0526.7713s.1126.4825.221.6947.4234.3214.5352.5318.2817.3913.3974.6.3652.34.4849.5464.2358.4115.36.6153.1974.436.3259.6371.0586.5326.1918.7308.2657.4.4037.5954.4906.2331.6337.4247c.1446.1936-.02.6482.1414.8274s.7162-.0158.8872.1549-.0122.699.1607.8676.3535.32.5213.4936.6657.0488.8212.233.0349.5851.17.786c.0893.1325.075.3517.1748.55.0832.165.4109.2325.4431.4349a1.5622,1.5622,0,0,1-.1408.5661c-.0643.252.0145.56-.1124.7677a4.1571,4.1571,0,0,1-.3632.7146c-.1724.1817-.5917.1214-.7792.2834-.193.1667-.4671.238-.6477.3988s-.32.36-.5.5154c-.1823.157-.1905.5191-.3744.6706s-.3159.3811-.5042.5277-.39.2914-.5833.4319-.5515.0519-.7506.1853-.3668.3119-.572.4371c-.2028.1237-.3642.3285-.5754.4445-.2075.114-.6008-.1339-.8176-.0278-.2123.1038-.2955.48-.5178.5759-.2167.0934-.4891.0517-.7164.1372-.2205.0828-.4037.2758-.6352.3509-.2237.0725-.4132.2862-.6483.3511-.2265.0626-.5229-.1271-.7607-.0719-.2256.0523-.4334-.0733-.6528-.0677-.23.0058-.4712.3777-.6883.3437-.2292-.0358-.3794-.38-.5865-.447a5.4717,5.4717,0,0,1-.6449-.1619c-.2266-.1089-.4869-.114-.6474-.2211-.2166-.1446-.2779-.4687-.4612-.618-.2-.1629-.57-.121-.736-.2933-.1756-.1818-.1964-.4907-.3415-.6875a5.8354,5.8354,0,0,1-.3994-.6157c-.1181-.21-.3829-.3557-.4856-.589-.0962-.2184-.2179-.4439-.3062-.6859-.0814-.2231-.0735-.4906-.1526-.7366-.0727-.2263-.3-.4175-.3744-.6653-.0652-.2175.0058-.4839-.0476-.7117-.0519-.2215.1393-.494.0979-.724-.04-.2244-.522-.3851-.5528-.6164-.03-.2264.0062-.4729-.0153-.7049-.0211-.2279.3981-.4906.385-.7229-.013-.2289-.3649-.4442-.3706-.6763-.0055-.23-.1578-.4648-.1566-.6966.0012-.23.4443-.4542.4517-.6855s-.15-.4665-.1365-.6972-.2232-.4815-.2045-.7114.265-.4431.2888-.6722-.1836-.49-.1549-.7183c.029-.23.602-.3851.6355-.6122.0339-.23-.1244-.4853-.0863-.7109.0389-.23.1915-.4348.2343-.6592.0439-.23.1313-.4435.1788-.6664.0489-.2294-.0424-.4827.01-.7033.0542-.2293.2872-.4045.3445-.6228.06-.2289.0135-.4749.0762-.69.0665-.2286.0786-.4616.1474-.673.078-.24-.2092-.5864-.14-.823.07-.2411.4441-.3917.5106-.6288.0677-.2416.2359-.45.3056-.6869.07-.24.14-.4715.2189-.7054.08-.2361.2468-.4238.341-.653.0846-.206-.0838-.5167-.0073-.7276s.0475-.4569.12-.6681.2266-.397.3014-.6066c.076-.2126.2167-.3991.299-.6046.0843-.21.2867-.3579.383-.5562.0989-.204-.0754-.5564.042-.7432.12-.1909.4742-.211.62-.3789S270.268,44.9716,270.4452,44.8317Z"/><path class="cls-2" d="M112.0377.4767c-.1357.0814-.4707-.2188-.7882-.1733-.24.0343-.4411.5308-.6868.5615a3.3609,3.3609,0,0,0-.68.1648c-.2188.0714-.512-.0526-.75.044-.2185.0887-.3825.3049-.61.4131-.2162.1029-.4294.2-.6475.3193-.2125.116-.4584.1639-.6671.2938s-.5936-.0017-.792.14c-.2007.1432-.2776.4583-.4633.6128-.1912.1592-.5549.1432-.7242.3127-.1774.1777.0832.7326-.0632.92-.1554.1989-.524.22-.6364.4276a3.274,3.274,0,0,0-.3366.6594,1.2869,1.2869,0,0,0,.087.8948c.149.29.644.2928.8007.4515.1583.16.24.3421.4362.4649a4.3968,4.3968,0,0,0,.5825.3087c.2047.09.4351.0862.6532.1629.2134.0751.4246.1468.6421.2177s.2979.551.5114.6262c.2183.0769.5206-.0778.7252.0124.2134.0941.5277.04.7159.1581.2071.13.1666.6092.3485.7509.1917.1493.2546.3951.42.5585a5.027,5.027,0,0,1,.4939.4648,4.8784,4.8784,0,0,1,.3655.571c.1175.2019.3651.3185.46.54a6.5945,6.5945,0,0,1,.2552.6544c.0682.22-.0242.476.0281.7149.049.2241.298.4106.3342.6525.034.2271,0,.4675.0238.7111.0221.229.1792.4545.1929.6988.0128.23-.11.4723-.1037.7167.0056.2309.0285.4666.0284.7108,0,.2563-.1414.527-.1417.8,0,.2682.4834.5566.4676.8177-.017.2794-.5314.5073-.5842.7511,0,.1944-.0746.4119-.0746.6064s.51.4193.51.6138c-.056.2575-.3561.4754-.3822.7185-.028.2609-.2331.5019-.2493.7465-.0173.2615.4176.559.3863.8023-.0331.2566-.3943.4481-.4757.6847-.08.2327-.0524.532-.2113.7458a3.8078,3.8078,0,0,1-.4222.6111,3.2279,3.2279,0,0,1-.6055.461c-.204.0966-.6014-.298-.8384-.23-.211.0606-.3164.5795-.56.6353-.2139.049-.5043-.203-.7476-.1458-.2917.02-.5349.4-.8266.42-.2152.0474-.4431.0057-.67.0406-.2188.0336-.4753-.1572-.7024-.1348-.2213.0219-.4335.27-.66.2818-.223.0114-.4581-.0524-.6845-.05-.2242.0018-.45-.1625-.6758-.17s-.4562.0735-.68.0577-.4517-.048-.6745-.0721c-.2255-.0244-.48.139-.7006.1065-.2256-.0332-.4207-.2722-.639-.3134-.2251-.0426-.4729.0149-.6879-.0358-.2246-.0529-.4076-.2622-.6185-.3235-.2233-.0649-.3722-.319-.5769-.3927-.2209-.0795-.5744.1895-.77.1005-.2168-.0989-.3053-.4306-.485-.54-.1926-.1175-.5769.016-.754-.1247s-.129-.5582-.3038-.7022c-.173-.1425-.5059-.0672-.6922-.1965a3.6125,3.6125,0,0,0-.5787-.2709c-.1965-.0917-.3147-.331-.5455-.3822a3.0777,3.0777,0,0,0-.66-.15c-.22.2005-.29.5783-.5115.7466-.2194.1668-.7171.0783-.84.3748-.1107.2663.0432.6121.08.9015.0381.3.3665.5154.4408.7623.0667.2215-.2552.5538-.19.7632.0678.2193.22.4069.29.6153.0721.2164.0888.45.1666.6575.0793.2112.5249.2649.6145.4693s-.2788.6247-.1745.8251c.11.2123.2726.4038.3906.6089.1192.2073.5207.2425.6475.4423.1281.2017.36.3206.4961.5148s.14.4762.2847.6643.0727.5536.2256.7352.5871.1154.7481.29.0031.6589.172.8262.33.36.5061.52.34.3525.5233.5046.7093-.1274.8992.0167.1786.5571.3746.6933.3734.3043.5748.4325c.2.1271.5545.0013.7608.1216.2044.1191.2294.5654.44.6779.2087.1113.4609.1556.676.2605.2124.1036.4588.1477.6773.245.2161.0963.5432-.0689.7652.0213.2191.089.3878.3015.6125.3846.2158.08.4351.1413.6611.2045.2216.0619.4056.2878.6343.34.2247.0509.4628.0585.6916.1051.2267.0463.5246-.2452.7527-.1977s.4429.1788.6688.2326a2.9173,2.9173,0,0,0,.556-.0135c.2.01.3791.358.57.3752.204.0183.5072-.2509.6822-.1731.1664.074.0822.6759.276.84s.4482.2083.5548.3521a1.9422,1.9422,0,0,1,.2335.573c.0759.208.6128.3174.6394.543.0251.2139-.32.4694-.3233.7-.0026.215.2557.4507.242.6813-.0128.2155-.5124.4118-.5239.6415-.0108.2164.5045.4539.5038.6836-.0006.2178-.0125.4573-.0082.7041.0041.2413-.3392.4789-.3586.7035a1.3836,1.3836,0,0,1-.1935.613c-.1307.2307.07.6588-.0647.8294-.1625.2064-.6347.0766-.81.2133-.1943.1517-.2418.5169-.4623.6089-.2117.0885-.412.3462-.6581.4045-.218.0517-.4753.0536-.7277.1-.22.04-.4723-.0226-.7234.0255-.2211.0424-.4615.0834-.71.14-.2431.02-.4932.0842-.7363.1036s-.4655.1014-.7086.1209c-.2069.0447-.4812-.2638-.7213-.2439-.2252.0187-.4337.32-.66.3392-.2382.02-.4851-.1417-.6942-.0967-.1847,0-.3712-.0181-.556-.0181s-.39-.2034-.5747-.2034c-.168.0351-.3794.4664-.6713.4874-.2163.0155-.4644.0771-.7178.0848-.2307.0069-.4786.0429-.7193.0432s-.4838-.2365-.715-.2431c-.2539-.0072-.4754-.3287-.6919-.3443-.2914-.021-.5738.2965-.7409.26-.2127-.0465-.42.0814-.6244.0665-.2135-.0156-.4017-.4866-.61-.4907-.2116-.0041-.4214.1688-.63.1523a3.6628,3.6628,0,0,1-.6282-.0357c-.2213-.0562-.4441-.0962-.66-.1528-.2207-.0579-.476.0179-.6908-.0417-.22-.061-.3091-.56-.5228-.6241-.2185-.0656-.5253.1695-.7372.0993-.2163-.0716-.3476-.3674-.557-.4453-.213-.0792-.5879.2523-.7936.165-.2088-.0886-.21-.6278-.4107-.7263-.203-.0994-.5815.1428-.7768.0316s-.224-.4919-.4119-.6168c-.1983-.1319-.6487.0709-.8313-.0793s-.0362-.6787-.2093-.84-.469-.1914-.6381-.3575-.1748-.5051-.3459-.6683-.6678.0282-.8473-.1252-.4026-.2161-.5964-.3523a3.0547,3.0547,0,0,0-.6608-.3773c-.2774-.1091-.4265-.3334-.6542-.1794-.2279.0564-.6585-.1512-.8251-.0093a2.2709,2.2709,0,0,0-.3774.6747,2.659,2.659,0,0,0-.161.7,3.1893,3.1893,0,0,0-.0506.7008,4.1075,4.1075,0,0,0,.2379.6579c.064.2376-.0886.5335-.0244.7689.0648.2375.3594.4113.4256.6458.0669.2372.0362.5023.1059.7357.07.2364.0224.5122.0971.7439.0758.2348.5358.3391.6173.5682.0826.2324.2581.42.3481.6453.0914.2291-.0265.5384.0739.76.1019.2245.2346.4295.3475.6448.1143.218.22.4356.3474.6432.1232.201.3705.3182.4995.5141s.2711.3771.4067.5686.0941.5112.2364.698.4482.242.5971.4237.3722.29.5277.4662.0309.6048.1929.7752.413.2551.5814.4193.1777.503.3524.6607.4855.1647.6663.3157.5426.0667.7292.2106.3775.2606.57.3972.17.5765.3675.7056.3467.34.5492.4617c.2008.12.3619.33.5691.444.2051.1124.5523-.0322.7636.0735.2093.1047.4438.1569.6593.2548.2129.0968.4685.0884.6875.1784.2058.0846.2694.5609.4818.6323.21.0707.5056-.1063.7219-.0458.2134.06.4451.05.6636.1023.2154.0516.4663-.0626.686-.0157.2168.0462.43.1031.6505.1472.2172.0435.347.5332.5672.577.2176.0432.4913-.1867.7113-.141.2173.0451.4428.03.6619.0793.175.01.3376.0685.5126.0782s.3461.08.5211.0893c.21.0463.4306.0641.6555.0932.2143.0276.4172.3016.6421.3164.2169.0143.4519-.1287.6759-.1238.2186.0048.4444.219.6672.2172.22-.0019.444-.12.6655-.1265s.43-.41.65-.4179c.2227-.0082.4518.1877.671.18.2236-.0081.4422-.12.66-.1252.2253-.0057.45.1923.6652.1919.2094,0,.4441-.1788.6991-.2089.2289-.0271.4667-.09.7028-.1123a5.1868,5.1868,0,0,1,.7206-.0181c.2628.0121.4176.273.6.3784.1919.1106.6082-.0221.81.1531.1855.1613.0294.647.1772.8437.1565.2081.7.24.7632.4664.0117.2178-.1745.471-.1628.6888s-.15.4449-.1382.6627-.08.4412-.0683.659.0159.436.0275.6538.5611.3882.5728.606c.0342.1574-.3058.4871-.2625.803.0337.2459.3951.4841.41.7323a3.2349,3.2349,0,0,1-.03.8315c-.0554.2019-.458.256-.5821.4163-.1294.167-.38.1961-.5164.3329-.1417.1423-.0212.58-.1841.7211-.1572.1364-.4494-.0848-.6605-.026-.2489.0117-.4647.17-.7136.1812s-.4911.1665-.74.1782-.5066-.1616-.7555-.15-.4878.2375-.7367.2491-.5355-.3048-.7844-.2931c-.2413.0537-.4812.154-.7241.1924s-.4788.09-.7229.12-.4837.1047-.7278.1329c-.2457.0284-.4805.1518-.7236.1853-.2449.0338-.4286.3949-.6695.4411-.2425.0464-.5928-.3819-.83-.3156-.2281.0639-.4268.23-.6518.2951-.2274.0653-.5051-.04-.7294.0261-.2268.0673-.3225.5655-.5462.6345-.226.07-.4678.08-.6907.1516-.2251.0727-.5327-.1056-.7546-.03-.2235.076-.3277.4892-.548.5685-.2221.08-.4834.0441-.7023.1279s-.4424.1576-.6594.2463-.3745.314-.5893.4082c-.2324.1019-.43.2435-.6568.3633-.2252.1189-.559.034-.7781.1655s-.3552.3917-.5681.5309c-.2153.1408-.6779-.0862-.8857.0569-.2135.1471-.0936.7676-.2985.9114-.1924.135-.66-.1174-.8465.02-.1893.1391-.2737.4194-.4572.5613-.1857.1435-.1808.5189-.3605.666-.1814.1485-.4028.2366-.578.3894s-.376.2719-.5459.4308-.4047.248-.5688.4133-.3115.3441-.4692.5161-.53.1585-.6809.3372.0165.612-.1263.7974c-.1415.1838-.3.3469-.435.5388-.133.19-.5752.1764-.7013.3745-.1242.1952-.1664.4514-.2838.6555-.1151.2-.3586.3423-.467.5514-.1062.205-.0429.5046-.1427.7188-.0974.2091-.0829.4717-.174.69-.0834.2-.4535.3151-.5255.5381-.0673.2084-.1345.4435-.1907.668-.0536.2147.0342.4778-.0082.7037-.0411.2192-.1437.4415-.1732.6681-.029.2224.0909.4691.074.6957-.0167.2249.23.4585.2262.6847s-.2563.4514-.2466.6763c.01.2273.2145.4357.2392.6585.0252.2272.169.4194.2106.6387.0428.2254-.3066.5366-.2455.75a6.351,6.351,0,0,0,.2561.6447c.0938.2288.5579.2646.6679.4688a6.5069,6.5069,0,0,0,.33.6058,6.9116,6.9116,0,0,0,.4506.5263c.1546.1858-.1215.7557.0435.9256.1675.1726.4174.2774.5917.4392s.387.2921.5656.45.4815.177.66.3362.2866.3917.46.5573.33.3364.4929.5132c.16.174.4614.2335.6092.425a7.0551,7.0551,0,0,1,.4453.5789,4.621,4.621,0,0,1,.338.6743c.09.2228-.1672.5727-.093.8068.0734.2318.2808.4224.3535.6538.0738.235.211.448.3.6708a4.8052,4.8052,0,0,0,.217.7174c.121.1988.3537.329.4868.52s.1124.5042.2573.686.58.1185.7361.2909.2036.441.37.6035.2392.4314.4157.5834.45.1884.6351.3294.3792.2659.5732.3955.3078.3894.5092.5072.5371-.0158.7453.09c.2064.1048.2624.5372.4766.6306.2124.0926.4459.1695.6646.2493.2171.0792.4758.0634.6988.1324.22.0682.5129-.111.7385-.05.2223.06.377.392.6043.4469.2238.054.5015-.112.73-.0605.2243.0506.4932-.0944.7216-.0442.225.05.3309.6446.5595.6957.2248.05.46.0521.6877.1059.2487.0586.548-.2251.7921-.2175.2463.0076.4862.2171.7372.2245.24.007.5012-.1718.7536-.1186.1977.0416.3909.3963.646.4226.2173.0225.4645.0551.7056.0662.2266.01.4731-.54.7066-.5393s.4661.2509.693.2409c.2413-.0107.4659-.0971.6833-.12.2547-.0264.4385-.2331.6357-.2762a4.9182,4.9182,0,0,1,.7006.0107c.2229-.0159.454.1286.6718.125.221-.0037.4566.2307.676.2147a4.7737,4.7737,0,0,0,.6557-.2312c.22-.0527.4621.03.6854-.0129s.36-.5574.5838-.5962.4485-.0516.6708-.0935.5127.244.7322.1921c.2216-.0523.3628-.3769.5775-.4461.2212-.0712.5552.2032.77.1287.2193-.0759.2864-.5657.5-.6452.2171-.0811.5583.1689.7694.0838.2149-.0866.404-.2346.6129-.3257.2121-.0925.4675-.0924.6738-.19.2089-.0987.482-.079.6853-.1831.2053-.105.378-.286.5778-.3969.2014-.1117.4032-.2353.5994-.3532s.403-.2353.5952-.36.3493-.3137.5371-.4459c.1727-.1215.3792-.22.5644-.3544.1759-.1278.3617-.2618.5387-.4.175-.1363.1372-.5353.3038-.68.1705-.1477.5-.119.6519-.2733.1611-.164.2134-.4184.3412-.5876.1435-.19.3834-.3015.515-.4853.1376-.1922.0976-.5.2236-.6888.13-.1951.4064-.2911.5254-.4863.121-.1984-.0577-.5624.0532-.7647s.4915-.2574.5933-.4666c.1-.2048.0739-.4686.1666-.6844.0893-.2078.1593-.4235.2434-.6448.08-.21.3756-.35.4518-.5751.0719-.2125-.0979-.5095-.0284-.7379.0653-.2145.0842-.4347.1482-.6652.0291-.209.4677-.3487.4969-.5578s-.2406-.46-.2114-.6688.1832-.4008.2123-.61.0368-.4229.0659-.632c.01-.1847-.1938-.3827-.1841-.5675s-.0147-.3985-.005-.5832a3.2528,3.2528,0,0,1,.5931-.6786c.1858-.1894.5276-.1885.76-.292.2587-.1152.6117-.5155.85-.3652a1.743,1.743,0,0,1,.5465.4191,3.9312,3.9312,0,0,0,.4276.3732c.1686.1267.3078.3131.4724.4491s.0225.6214.18.765.3792.2056.528.3571.2578.33.3966.4894c.14.1612.2814.3279.4087.4964.1945.175.72.0433.9146.2183.1515.2006.3188.41.479.6046s.1544.5226.3182.7137.2354.4609.3985.6521.3379.3726.4959.5674.4943.26.6427.4616c.14.1906.0834.5275.2248.7207.14.1915.1056.5143.2481.7063s.6286.1234.7739.3129.3648.313.5144.4986.3264.3368.4819.5171.1571.49.32.663.3912.2738.5629.4383.3276.3327.5093.4862.4381.1865.6308.3266.1343.6462.3384.77c.2266.1379.6075.0413.8825.15.2689.1064.5861.02.8473.0926.2243.0624.3246.66.5431.6967.2289.0383.5108-.3905.7328-.3787.2309.0122.4566.3042.6794.29a6.0011,6.0011,0,0,0,.6869-.1c.2256-.0412.5132.0836.7282.0182.2188-.0666.2515-.6481.4585-.7369.21-.09.617.2244.8139.1144.1993-.1113.3546-.3239.54-.4527.1876-.13.102-.6026.2743-.7478.175-.1475.5828-.0251.741-.1845.1619-.1631.25-.3927.3936-.5647.1478-.1774.5393-.18.6662-.3633.1323-.1907.22-.4327.3289-.6253.1148-.204.04-.51.127-.7113.0931-.2159.4067-.3664.477-.59s-.0819-.5225-.0329-.7521-.0634-.4839-.0343-.717.2931-.4473.3039-.682-.1334-.4755-.1393-.71-.0264-.4684-.0476-.7019.2026-.5052.1675-.7365c-.0354-.2331-.4291-.4046-.477-.6329-.0486-.2315.0532-.4957-.0067-.7205-.0614-.23-.0366-.4877-.1082-.7084-.0735-.2269-.3863-.3669-.4689-.582-.0859-.2241.0352-.53-.0585-.7388-.0989-.2206-.1841-.45-.2893-.6508-.1133-.2164-.274-.4057-.3916-.5958-.1256-.2031-.3056-.3739-.4364-.5734s-.3384-.3476-.4745-.5437-.394-.3016-.5351-.4941-.2222-.4253-.3681-.6142.0341-.6393-.1166-.8244-.56-.159-.7151-.34-.1167-.536-.2763-.7135-.7018-.0018-.8656-.1753.0031-.6653-.1649-.8349-.472-.2041-.6439-.37-.3207-.3561-.4964-.5176-.5757-.0685-.7552-.2259-.1618-.5392-.3448-.6924-.3532-.3223-.54-.4714-.4121-.2474-.6018-.3922-.49-.137-.6824-.2775-.3844-.2745-.58-.4107-.2768-.437-.4757-.5688-.5124-.0816-.7141-.2091c-.2108-.1332-.3219-.4114-.5341-.5318-.2147-.1218-.4624-.1772-.6785-.2944s-.2894-.4908-.506-.6114c-.2123-.1181-.5776.0228-.7911-.107s-.454-.2221-.6788-.3535c-.2186-.1276-.3236-.459-.5493-.5847-.2231-.1242-.54-.075-.7673-.1941s-.3267-.4932-.5552-.6042c-.2334-.1134-.5988.0667-.8295-.0345-.2218-.0972-.3647-.3755-.5877-.4715s-.3618-.39-.5853-.4847-.5251-.0058-.749-.0994-.35-.4241-.5741-.5169-.515-.0285-.7393-.1209-.5328.021-.7561-.0708c-.2136-.0879-.3433-.3912-.5553-.4669-.2181-.0779-.5126.0639-.7218-.0149-.2178-.0821-.3-.4486-.5-.5469a3.0131,3.0131,0,0,1-.5247-.3568,1.97,1.97,0,0,1-.4029-.4515c-.114-.1516-.6655-.0014-.79-.1687a4.56,4.56,0,0,1-.389-.5211c-.0955-.1862.3545-.5789.3044-.794-.0476-.204-.4474-.3414-.4761-.5582-.028-.2116.2926-.4745.2624-.6862-.0308-.2153-.3049-.3955-.3588-.5985-.06-.2251-.1495-.4449-.2-.6758-.05-.2278-.1989-.44-.2425-.6722-.0429-.23.13-.4987.0918-.7318-.0376-.2306-.4363-.408-.4705-.6413-.0338-.2312.1539-.4962.1218-.7292s.0026-.4738-.0291-.7069.1848-.5.152-.733-.04-.4724-.0757-.7044-.0915-.4666-.1313-.6977-.3427-.4184-.3884-.6481c-.0447-.2256-.2029-.5188-.12-.7227a2.6543,2.6543,0,0,1,.4005-.5945,5.6093,5.6093,0,0,1,.4924-.4654,1.96,1.96,0,0,1,1.3276-.8381c.2251-.0693.5575.1991.822.1306.2227-.0577.4415-.2211.7053-.3073.2049-.0669.3319-.3995.5421-.4615.2072-.061.416-.1316.6261-.1908s.5292.2725.7386.2126.3393-.3889.5469-.4529.4783.0609.6829-.01c.2063-.0718.469-.0179.6693-.1.2116-.0866.4161-.1887.6278-.2746s.3368-.3867.5486-.4726.318-.4307.5292-.5168.59.234.8.1471.4041-.2208.6143-.3089.3545-.3354.5639-.4252.5462.1072.7545.0153.4041-.2235.6111-.3182.2737-.4961.4791-.594.3934-.23.5969-.3323.4729-.0761.6742-.1822.5514.05.75-.0609.3607-.3034.5561-.42.1595-.6108.3512-.7333.5178-.039.7052-.1679.2-.4962.3827-.6323.41-.2009.5869-.3445.5721-.03.7424-.1819.3189-.3363.4819-.496.1023-.5332.2571-.7011.6712-.0222.8172-.1984.1094-.5051.2456-.6894c.1333-.18.2844-.3492.4133-.5325s.3683-.3.4886-.4907c.1183-.1875-.1125-.5819-.0055-.7819.1039-.194.5-.25.59-.46.086-.2009.1908-.4166.2611-.636.0716-.2238-.3744-.4983-.3615-.71.0123-.2.4635-.357.516-.5943a3.408,3.408,0,0,0,.1918-.6556,3.2226,3.2226,0,0,0-.0023-.72c-.0516-.235-.6772-.3207-.7364-.5387-.0631-.2324.07-.5034-.003-.7174-.0772-.2279-.207-.417-.2958-.6249-.0941-.2206.1946-.625.0865-.8243-.1137-.21-.3949-.3345-.5253-.522-.1348-.1939-.564-.1381-.718-.31-.1556-.1736-.174-.4553-.3507-.608-.1743-.1506-.4287-.1712-.6249-.3029-.1893-.1271-.2282-.5022-.4391-.6132-.2005-.1054-.5594.1321-.7805.04-.2086-.0868-.2523-.6265-.48-.7024-.2143-.0715-.56.2682-.7918.2056-.2184-.0589-.395-.2935-.63-.3454-.2206-.0487-.4953.107-.78.0925-.2578-.0131-.53-.4908-.7861-.4774a4.3527,4.3527,0,0,0-.7751.2c-.35,0-.687.395-1.037.395-.2232,0-.4392-.4527-.6553-.4566-.2234-.004-.4362-.0146-.6509-.025-.2241-.0109-.4777.445-.691.4247-.2238-.0213-.4651-.0106-.6755-.0452-.2223-.0365-.3715-.4373-.5771-.492-.2134-.0568-.5028.1813-.7215.1351a2.9265,2.9265,0,0,1-.6491-.3046c-.2059-.1021-.1915-.428-.2733-.656-.1463-.153-.5056-.3349-.4942-.5908.0109-.2458.2358-.5131.2828-.6994.1937-.1308.4524-.1794.6456-.3026.1969-.1256.3685-.2863.5638-.4066.1987-.1223.2578-.47.4537-.5891.1991-.1213.462-.1321.6569-.2532.1978-.1228.6132.096.8055-.0294.1946-.1269.1613-.5928.349-.7255.1894-.1338.5366-.0563.7176-.199s.2682-.4062.44-.5614.3113-.3387.4706-.5079c.1568-.1663.4047-.2614.5493-.4452.1405-.1785.1137-.481.2415-.6787.1227-.19.1681-.4158.2782-.6255.1045-.1992.3165-.3441.4087-.5635.0846-.2013.3123-.38.3825-.6257.0625-.2187-.2011-.5223-.1557-.7647.0429-.2289.3078-.4244.3307-.6653.0225-.2355-.0234-.4762-.0243-.7147a6.1146,6.1146,0,0,0,.0033-.7135,4.6514,4.6514,0,0,0-.2051-.6822c-.065-.2328.1936-.5871.1063-.8068-.09-.2269-.59-.2672-.7033-.4714-.12-.2155.1043-.6743-.0415-.8541-.1509-.1862-.322-.364-.4763-.5443-.1556-.1819-.66-.0482-.826-.2182s-.0523-.6512-.2368-.8037c-.1817-.15-.56-.0525-.7667-.18a4.2731,4.2731,0,0,0-.5837-.35,6.2077,6.2077,0,0,0-.62-.3032c-.2114-.0652-.4311-.16-.66-.2092-.2192-.0475-.43-.2608-.66-.2914-.2246-.03-.5018.4757-.7312.4642s-.4333.011-.661.02c-.23.0093-.4811-.331-.7052-.2984a5.5332,5.5332,0,0,0-.6633.2033c-.2333.0647-.3478.442-.5737.5314s-.565-.1042-.7867-.0143c-.2288.0928-.4317.2561-.658.3225-.1958.0573-.36-.2387-.5461-.2818-.1952-.0452-.3754.0252-.5243-.0917a.9134.9134,0,0,1-.2453-.4855c-.1566-.2043-.58-.3843-.5478-.6409.0294-.2368.3022-.4708.3977-.7a7.0482,7.0482,0,0,0,.12-.7465c.0737-.1959.6341-.2554.723-.5119.0739-.2135-.1819-.5574-.1061-.8015.0693-.2232.3662-.3925.4308-.633.0619-.23-.3067-.5675-.2545-.8067.0516-.2366.5293-.3915.5664-.63.0377-.2427-.2611-.5217-.2437-.7595.0181-.248.1712-.4782.1612-.7131a4.169,4.169,0,0,0-.0793-.7184c-.05-.2295-.341-.39-.4005-.61-.0613-.2266.0793-.5018.0087-.7186-.0725-.223.153-.5552.0709-.768-.0843-.2183-.3735-.3583-.4675-.5664-.0962-.2128-.0214-.5171-.1275-.7195-.1083-.2065-.6692-.1565-.7875-.3525-.12-.1993-.2646-.3621-.3948-.551-.1318-.1912-.0131-.5558-.1548-.7368-.1429-.1825-.3908-.2741-.5434-.4467s-.2318-.4124-.3943-.5762-.5356-.0953-.7073-.25-.1777-.4878-.3576-.6336-.4669-.138-.6539-.2749c-.1855-.1357-.1745-.55-.3677-.6785-.1913-.1271-.3455-.3273-.544-.4475-.1964-.1188-.5889.0973-.792-.0152-.2008-.1112-.3937-.2275-.6008-.3329-.2045-.1041-.3966-.2254-.6068-.3242-.2079-.0977-.42-.18-.6328-.2729-.2106-.0917-.3229-.4192-.5384-.5066a6.4113,6.4113,0,0,0-.7068-.3634c-.2431-.0645-.5644.1658-.8172.1155-.2491-.05-.4686-.265-.72-.3118s-.4992-.0964-.7462-.1517c-.236-.0528-.52.16-.7842.1458-.2467-.0128-.5023-.4492-.76-.4432-.2528.0058-.4929.5356-.7448.5452C112.5192.5552,112.2831.478,112.0377.4767Zm11.6577,36.0288c.2853,0,.4416.33.626.439.1172.0694.5869-.138.796.0717.1439.1443.3431.2909.5028.4679.1485.1648.1391.4853.2822.6553.1534.1823.4045.2829.53.445a4.9569,4.9569,0,0,1,.3924.5815,2.2533,2.2533,0,0,1,.1123.6526c.0232.1993-.2969.35-.3643.5347-.0758.2074.0117.4623-.1161.6309-.129.17-.4393.1191-.61.2538-.1654.1306-.0448.72-.2386.8209-.1876.0979-.5236-.0792-.7281-.0056-.2012.0725-.4247.0706-.633.1228-.4225.106-.6176-.1764-.818-.3018-.2259-.1412-.6532-.0445-.8114-.2134a2.47,2.47,0,0,1-.3612-.7356,2.7158,2.7158,0,0,1-.1668-.77,4.0615,4.0615,0,0,1-.065-.7771,7.6019,7.6019,0,0,1,.13-.7555c.0383-.1758.4523-.313.4426-.4854-.0106-.1863-.2663-.3778-.206-.5359.1217-.3192.2545-.6818.4845-.8075C123.1,36.6716,123.44,36.68,123.6954,36.5055ZM105.7915,80.2007c.2492-.0035.5364.346.7786.3388.25-.0074.4813-.4874.7224-.4949.2506-.0079.4994-.0595.7391-.0632.2522-.0039.5041.2133.7426.2191.2533.0062.5165-.1116.7524-.0887a6.3774,6.3774,0,0,1,.7491.126,4.0791,4.0791,0,0,1,.702.31c.2273.0989.2624.49.4547.6422.1862.1477.48.1622.63.37a2.4051,2.4051,0,0,1,.2186.7665c.0591.2129.6348.4106.6273.6947-.0063.2413-.3284.4928-.3675.754-.0379.2528-.152.4939-.2077.7386-.06.2651-.1463.5083-.2122.732-.0919.312.1392.6934.0741.8472-.09.2133-.2846.3952-.3913.5907a6.7247,6.7247,0,0,1-.3707.5921,6.9,6.9,0,0,1-.364.6075,6.7635,6.7635,0,0,1-.4943.5059c-.1659.1536-.6188-.0305-.8013.1063-.18.1349-.2215.4671-.4169.5865-.1913.1169-.3088.4012-.5145.5041-.2.1-.5821-.1835-.7953-.096-.2066.0849-.4559.0244-.6745.0982-.2116.0715-.3966.1918-.6191.2535-.2269.0629-.4457.098-.6834.1453-.2316.0461-.4291.25-.6686.2819-.2349.0311-.4669.0694-.7071.0869-.2371.0173-.4751-.1264-.7152-.1219-.2384.0044-.4731.2142-.7123.2063s-.4722-.0841-.71-.104c-.2394-.02-.4924.0929-.7282.0609-.2388-.0323-.454-.2008-.6869-.2449-.2376-.0451-.4725-.0757-.7015-.1327-.2359-.0586-.42-.2613-.6438-.3322-.2328-.0736-.6258.3048-.843.2184-.2282-.0907-.252-.6332-.46-.7375a5.7932,5.7932,0,0,1-.5648-.4064c-.2085-.1353-.7078.1288-.88-.0229-.1868-.1649-.1721-.5355-.3093-.7187-.13-.1742-.1036-.4613-.2265-.66-.12-.1945-.6356-.1976-.7177-.4053-.0964-.2434.1571-.5851.1461-.83a3.131,3.131,0,0,1-.0874-.7659,4.4337,4.4337,0,0,1,.1488-.7759,5.4174,5.4174,0,0,1,.3324-.7244c.1282-.1867.6637-.0536.8066-.2181.1472-.1695-.0419-.662.12-.81.1641-.15.538-.0572.7168-.1884s.17-.5616.362-.6759c.1885-.1123.4405-.1542.6419-.2533.196-.0965.4949.0116.7026-.0747.2016-.0837.33-.3813.5417-.4575.205-.0736.4437-.0795.658-.148.2082-.0664.4695.0231.6861-.04.21-.0613.4034-.2117.6209-.2717.2463-.0389.4986-.0667.7449-.1056s.4624-.27.7087-.3087.5228.1234.7691.0845a2.945,2.945,0,0,1,.7246-.1255A1.13,1.13,0,0,0,105.7915,80.2007Z"/></g></g></svg>