<svg xmlns="http://www.w3.org/2000/svg" viewBox="0 0 425.1967 158.7422"><defs><style>.cls-1{fill:#008cd6;}</style></defs><g id="レイヤー_2" data-name="レイヤー 2"><g id="レイヤー_1-2" data-name="レイヤー 1"><path class="cls-1" d="M85.9443,131.2832a7.3854,7.3854,0,0,0-.98,2.3535,40.6931,40.6931,0,0,1-8.0429,15.1407c-3.6089,4.1211-7.9234,7.1826-13.9654,9.9648a12.0983,12.0983,0,0,0-3.334-4.1182,35.3364,35.3364,0,0,0,8.5918-4.6279A31.0707,31.0707,0,0,0,79.6689,133.44l-12.8071.1972a38.356,38.356,0,0,1-9.1792,10.043,10.44,10.44,0,0,0-3.8052-3.375,30.1645,30.1645,0,0,0,10.1611-11.3769,14.63,14.63,0,0,0,2-5.1778l5.3745,1.0606a19.6,19.6,0,0,0-1.1768,2.3134c-.1182.2344-.1182.2344-.5093,1.02A9.4524,9.4524,0,0,1,69.1,129.4c.5093-.041,1.1362-.08,1.8813-.08l9.5894-.1172a6.94,6.94,0,0,0,2.8638-.3916Z"/><path class="cls-1" d="M113.4062,141.7188c0-.1983.08-2.1953.1182-2.8242a23.8187,23.8187,0,0,1-4.0015,5.4912,54.1216,54.1216,0,0,1-7.729,6.8271,57.0729,57.0729,0,0,1-5.8052,3.6055,11.3921,11.3921,0,0,0-3.2563-4.0781,41.7107,41.7107,0,0,0,12.3574-8.5137,37.2772,37.2772,0,0,0,5.2573-6.4717H99.5966a40.0346,40.0346,0,0,0-4.8242.1973v-4.7891a22.6551,22.6551,0,0,0,4.9439.2764h13.5718l-.0381-3.1387a28.53,28.53,0,0,0-.1963-3.6074h5.1772a25.3643,25.3643,0,0,0-.1557,3.334v.2353l.0776,3.1768h3.9619a22.1319,22.1319,0,0,0,4.6294-.2764V135.91a40.5307,40.5307,0,0,0-4.51-.1553h-4.041l.1958,18.2041c.0386,1.9219.1172,3.4121.2349,4.51h-5.3359a24.9916,24.9916,0,0,0,.2363-3.7666v-.7051l-.1182-11.73Z"/><path class="cls-1" d="M149.4922,141.4824a4.3875,4.3875,0,1,1-4.3877-4.3877A4.3727,4.3727,0,0,1,149.4922,141.4824Z"/><path class="cls-1" d="M195.4375,133.2051a6.115,6.115,0,0,0-.4317,2.6289c-.1172,4.4326-.5488,10.4736-.9414,13.0615-1.0195,6.7862-2.3926,8.3965-7.1,8.3965a29.84,29.84,0,0,1-4.8662-.4307,11.87,11.87,0,0,0-.9-5.0224,20.4314,20.4314,0,0,0,5.1777.9043c1.6866,0,2.2745-.8643,2.9024-4.2793a87.912,87.912,0,0,0,.8633-12.5537l-9.1407.042a28.7064,28.7064,0,0,1-3.1386,11.2177c-2.1573,4.1573-5.6485,7.73-10.5918,10.8672a15.475,15.475,0,0,0-3.53-4.1572c4.9033-2.5908,8.12-5.6895,10.2-9.8877a20.1831,20.1831,0,0,0,2-6.8252c.0791-.5488.1562-.9433.1963-1.2148l-6.5117.0381a27.96,27.96,0,0,0-4.2373.1962l-.0391-4.8261a22.3286,22.3286,0,0,0,4.3545.3154l6.8662-.04c.1162-1.49.1953-3.7666.1953-4.9034v-.9814a7.57,7.57,0,0,0-.1181-1.5273l5.2568.1152a11.4181,11.4181,0,0,0-.1572,1.2178c0,.2334-.0391.4707-.0391.7431-.0771.8242-.0771.8242-.1572,2.8653-.0391.8613-.0391,1.2128-.1563,2.4707l8.709-.0381a7.884,7.884,0,0,0,3.0977-.3555Z"/><path class="cls-1" d="M203.7715,138.6182a38.4707,38.4707,0,0,0,6.3544.2764h18.9146a38.4635,38.4635,0,0,0,6.3574-.2764v5.4531a43.037,43.037,0,0,0-6.3945-.1963H210.167a43.0533,43.0533,0,0,0-6.3955.1963Z"/><path class="cls-1" d="M246.7905,158.1553a26.3417,26.3417,0,0,0,.2344-4.3955V128.6153a25.0773,25.0773,0,0,0-.2344-4.001h5.375a26.3832,26.3832,0,0,0-.1563,4.1191V136.03a114.9868,114.9868,0,0,1,17.8106,8.2764l-2.7461,4.6289a93.0552,93.0552,0,0,0-13.8867-7.4932,11.93,11.93,0,0,1-1.334-.667,20.3905,20.3905,0,0,1,.1562,2.668v10.3574a43.3079,43.3079,0,0,0,.1563,4.3545ZM262.976,127.458a21.1746,21.1746,0,0,1,3.7657,5.2949L263.7983,134.4a26.0227,26.0227,0,0,0-3.7656-5.374Zm5.7227,3.8448a25.8541,25.8541,0,0,0-3.6855-5.2168l2.8222-1.53a22.4154,22.4154,0,0,1,3.7676,5.0615Z"/><path class="cls-1" d="M290.9643,143.834a6.9777,6.9777,0,0,0,1.4121-1.1758c1.1368-1.1377,4.9844-5.6875,7.0235-8.3174a11.8746,11.8746,0,0,1,2.9394-3.0986,4.7106,4.7106,0,0,1,2.67-.7822c1.9219,0,2.8633.6269,5.8438,3.999a137.0975,137.0975,0,0,0,12.709,12.5166,30.3662,30.3662,0,0,0,3.7265,2.9805l-2.4687,5.375a200.5161,200.5161,0,0,1-16.5938-16.5957c-2.51-2.7451-2.51-2.7451-3.18-2.7451-.627,0-.7813.1171-2.3926,2.2763-1.6465,2.1963-4.2735,5.4492-7.0215,8.7461-.5859.67-.7832.9424-1.334,1.6494Zm34.6641-12.6074a4.9719,4.9719,0,0,1-4.9844,4.9853,5.029,5.029,0,0,1-4.9824-4.9853,4.9834,4.9834,0,0,1,9.9668,0Zm-7.5664,0a2.582,2.582,0,1,0,5.164,0,2.5534,2.5534,0,0,0-2.582-2.582A2.61,2.61,0,0,0,318.062,131.2266Z"/><path class="cls-1" d="M364.3628,127.6729a16.643,16.643,0,0,0-1.4512,1.374,69.4908,69.4908,0,0,1-9.2578,8.082V153.88a29.5022,29.5022,0,0,0,.1972,4.3564h-5.4941a21.8327,21.8327,0,0,0,.2363-4.2392V140.19c-4.59,2.7422-6.7871,3.7646-14.0058,6.3525a14.776,14.776,0,0,0-2.625-4.4707,57.348,57.348,0,0,0,20.5937-10.1982c3.4922-2.708,6.16-5.416,7.2969-7.3389Z"/><path class="cls-1" d="M121.9262,81.05c-18.4384,0-26.5732-8.01-40.0459-21.2793q-1.7028-1.68-3.4873-3.4248C67.64,45.86,46.7983,41.792,31.9345,47.2793a27.82,27.82,0,0,0-9.8862,6.1045A22.3593,22.3593,0,1,1,62.05,37.5342a55.0367,55.0367,0,0,1,17.185,7.583A39.7955,39.7955,0,1,0,39.8,79.6006,39.6091,39.6091,0,0,0,66.5893,69.1914q1.5594,1.5264,3.0562,2.999c14.3252,14.11,26.6972,26.295,52.2807,26.295A61.1407,61.1407,0,0,0,165.2783,80.5L152.9541,68.1787A43.76,43.76,0,0,1,121.9262,81.05Zm0-11.9863a31.9507,31.9507,0,0,0,31.9156-31.916V1.9893H136.4067V37.1475a14.48,14.48,0,1,1-28.96,0V1.9893H90.0092V37.1475A31.9523,31.9523,0,0,0,121.9262,69.0635ZM204.0527,0a39.8,39.8,0,1,0,39.8,39.8008A39.8443,39.8443,0,0,0,204.0527,0Zm0,62.1641a22.3638,22.3638,0,1,1,22.3648-22.3633A22.3906,22.3906,0,0,1,204.0527,62.1641ZM416.937,28.5576,397.8354,68.3584,379.0288,28.5576h-8.3594l23.084,48.2569-12.3652,25.8144h8.2578l35.5507-74.0713ZM284.8061,1.9893H258.5385v75.622H266.4V42.1875h18.4062c13.83,0,24.08-7.2666,24.08-20.1982C308.8862,9.252,298.6362,1.9893,284.8061,1.9893Zm0,33.1338H266.4V9.0537h18.4062c9.1543,0,16.2188,4.4776,16.2188,13.0362C301.0249,30.6446,293.96,35.1231,284.8061,35.1231Zm68.0567,1.292c-4.3789-5.7705-11.3438-9.0528-19.502-9.0528-13.0351,0-24.4805,10.249-24.4805,25.77,0,15.5244,11.4454,25.7744,24.4805,25.7744,8.1582,0,15.1231-3.2842,19.502-9.0557v7.7607h7.5625V28.5576h-7.5625ZM334.5561,72.1406c-10.1523,0-18.31-7.3681-18.31-19.0087,0-11.7422,8.1582-19.1026,18.31-19.1026,9.252,0,18.3067,7.36,18.3067,19.1026C352.8628,64.7725,343.8081,72.1406,334.5561,72.1406Z"/></g></g></svg>